<svg xmlns="http://www.w3.org/2000/svg" viewBox="0 0 500 500"><g id="freepik--background-complete--inject-5"><polygon points="430.8 161.36 429.3 161.36 429.3 160.36 429.8 160.36 429.8 159.86 430.8 159.86 430.8 161.36" style="fill:#ebebeb"></polygon><path d="M427.28,161.36h-2v-1h2Zm-4,0h-2v-1h2Zm-4.05,0h-2v-1h2Zm-4,0h-2v-1h2Zm-4.05,0h-2v-1h2Zm-4,0h-2v-1h2Zm-4,0h-2v-1h2Zm-4.05,0h-2v-1h2Zm-4.05,0h-2v-1h2Zm-4,0h-2v-1h2Zm-4,0h-2v-1h2Zm-4.05,0h-2v-1h2Zm-4.05,0h-2v-1h2Z" style="fill:#ebebeb"></path><polygon points="374.67 161.36 373.17 161.36 373.17 159.86 374.17 159.86 374.17 160.36 374.67 160.36 374.67 161.36" style="fill:#ebebeb"></polygon><path d="M374.17,157.83h-1v-2h1Zm0-4h-1v-2h1Zm0-4h-1v-2h1Zm0-4.05h-1v-2h1Zm0-4.05h-1v-2h1Zm0-4h-1v-2h1Zm0-4h-1v-2h1Zm0-4.05h-1v-2h1Zm0-4h-1v-2h1Zm0-4h-1v-2h1Zm0-4h-1v-2h1Zm0-4h-1v-2h1Zm0-4h-1v-2h1Z" style="fill:#ebebeb"></path><polygon points="374.17 105.22 373.17 105.22 373.17 103.72 374.67 103.72 374.67 104.72 374.17 104.72 374.17 105.22" style="fill:#ebebeb"></polygon><path d="M427.28,104.72h-2v-1h2Zm-4,0h-2v-1h2Zm-4.05,0h-2v-1h2Zm-4,0h-2v-1h2Zm-4.05,0h-2v-1h2Zm-4,0h-2v-1h2Zm-4,0h-2v-1h2Zm-4.05,0h-2v-1h2Zm-4.05,0h-2v-1h2Zm-4,0h-2v-1h2Zm-4,0h-2v-1h2Zm-4.05,0h-2v-1h2Zm-4.05,0h-2v-1h2Z" style="fill:#ebebeb"></path><polygon points="430.8 105.22 429.8 105.22 429.8 104.72 429.3 104.72 429.3 103.72 430.8 103.72 430.8 105.22" style="fill:#ebebeb"></polygon><path d="M430.8,157.83h-1v-2h1Zm0-4h-1v-2h1Zm0-4h-1v-2h1Zm0-4.05h-1v-2h1Zm0-4.05h-1v-2h1Zm0-4h-1v-2h1Zm0-4h-1v-2h1Zm0-4.05h-1v-2h1Zm0-4h-1v-2h1Zm0-4h-1v-2h1Zm0-4h-1v-2h1Zm0-4h-1v-2h1Zm0-4h-1v-2h1Z" style="fill:#ebebeb"></path><rect x="370.14" y="157.33" width="7.06" height="7.06" style="fill:#fff"></rect><path d="M377.69,164.88h-8.05v-8h8.05Zm-7.05-1h6.05v-6h-6.05Z" style="fill:#ebebeb"></path><rect x="370.14" y="129.01" width="7.06" height="7.06" style="fill:#fff"></rect><path d="M377.69,136.57h-8.05v-8.06h8.05Zm-7.05-1h6.05v-6.06h-6.05Z" style="fill:#ebebeb"></path><rect x="370.14" y="100.69" width="7.06" height="7.06" style="fill:#fff"></rect><path d="M377.69,108.25h-8.05v-8.06h8.05Zm-7.05-1h6.05v-6.06h-6.05Z" style="fill:#ebebeb"></path><rect x="426.77" y="157.33" width="7.06" height="7.06" style="fill:#fff"></rect><path d="M434.33,164.88h-8.06v-8h8.06Zm-7.06-1h6.06v-6h-6.06Z" style="fill:#ebebeb"></path><rect x="426.77" y="129.01" width="7.06" height="7.06" style="fill:#fff"></rect><path d="M434.33,136.57h-8.06v-8.06h8.06Zm-7.06-1h6.06v-6.06h-6.06Z" style="fill:#ebebeb"></path><rect x="426.77" y="100.69" width="7.06" height="7.06" style="fill:#fff"></rect><path d="M434.33,108.25h-8.06v-8.06h8.06Zm-7.06-1h6.06v-6.06h-6.06Z" style="fill:#ebebeb"></path><rect x="398.45" y="100.69" width="7.06" height="7.06" style="fill:#fff"></rect><path d="M406,108.25H398v-8.06H406Zm-7.06-1H405v-6.06H399Z" style="fill:#ebebeb"></path><rect x="398.45" y="157.33" width="7.06" height="7.06" style="fill:#fff"></rect><path d="M406,164.88H398v-8H406Zm-7.06-1H405v-6H399Z" style="fill:#ebebeb"></path><path d="M402.67,139.27h-11.3L387,151.6h4.28v1.09h-8.73V151.6h2.68l14.56-39.21h4.68l14.38,39.21h2.63v1.09H402.78V151.6h4.05ZM391.88,138h10.33l-5-15Z" style="fill:#dbdbdb"></path><path d="M116,78.62s-.2,11.13-7.32,23.74h-10c-7.12-12.61-7.31-23.74-7.31-23.74C101.59,72.86,101.86,60,101.86,60h1V80.39a3.15,3.15,0,1,0,1.44,0V60h1S105.65,72.86,116,78.62Z" style="fill:#ebebeb"></path><rect x="96.21" y="101.14" width="14.83" height="6.24" style="fill:#c7c7c7"></rect><path d="M138,93.35h-1a33.42,33.42,0,1,0-66.84,0h-1a34.42,34.42,0,1,1,68.84,0Z" style="fill:#ebebeb"></path><rect x="68.92" y="58.51" width="68.62" height="1" style="fill:#ebebeb"></rect><rect x="66.17" y="89.82" width="7.06" height="7.06" style="fill:#fff"></rect><path d="M73.73,97.37H65.67V89.32h8.06Zm-7.06-1h6.06V90.32H66.67Z" style="fill:#ebebeb"></path><rect x="66.17" y="55.48" width="7.06" height="7.06" style="fill:#fff"></rect><path d="M73.73,63H65.67V55h8.06Zm-7.06-1h6.06V56H66.67Z" style="fill:#ebebeb"></path><rect x="134.01" y="89.82" width="7.06" height="7.06" style="fill:#fff"></rect><path d="M141.57,97.37h-8.06V89.32h8.06Zm-7.06-1h6.06V90.32h-6.06Z" style="fill:#ebebeb"></path><rect x="134.01" y="55.48" width="7.06" height="7.06" style="fill:#fff"></rect><path d="M141.57,63h-8.06V55h8.06Zm-7.06-1h6.06V56h-6.06Z" style="fill:#ebebeb"></path><path d="M414.79,332.89l13.36-.28,6.58-.11c2.19-.05,4.36,0,6.54-.06l-.44.45-.06-11.19.5.5L428,322.14c-4.41,0-8.82-.12-13.24-.17l.28-.27c0,1.83-.09,3.67-.14,5.54Zm0,0-.14-5.54c0-1.86-.11-3.75-.13-5.65v-.27h.27c4.42-.05,8.83-.16,13.24-.17l13.24-.06h.5v.5l0,11.19v.45h-.45c-2.23,0-4.47,0-6.69-.06l-6.66-.11Z" style="fill:#ebebeb"></path><path d="M429.56,347l13.36-.28,6.58-.11c2.19-.05,4.36,0,6.54-.06l-.44.45-.05-11.19.49.5-13.24-.06c-4.41,0-8.82-.12-13.24-.17l.28-.27c0,1.83-.09,3.67-.13,5.54Zm0,0-.14-5.54c0-1.86-.11-3.75-.13-5.65v-.27h.27c4.42-.05,8.83-.16,13.24-.17l13.24-.06h.51v.5L456.49,347v.45H456c-2.23,0-4.46,0-6.69-.06l-6.66-.11Z" style="fill:#ebebeb"></path><path d="M400,347l13.36-.28,6.58-.11c2.18-.05,4.36,0,6.54-.06l-.44.45L426,335.81l.5.5-13.24-.06c-4.41,0-8.83-.12-13.24-.17l.27-.27c0,1.83-.08,3.67-.13,5.54Zm0,0-.14-5.54c-.05-1.86-.11-3.75-.13-5.65v-.27H400c4.41-.05,8.83-.16,13.24-.17l13.24-.06h.5v.5L427,347v.45h-.44c-2.23,0-4.47,0-6.69-.06l-6.66-.11Z" style="fill:#ebebeb"></path><path d="M58.73,347l13.35-.28,6.58-.11c2.19-.05,4.37,0,6.55-.06l-.45.45-.05-11.19.5.5L72,336.25c-4.42,0-8.83-.12-13.24-.17l.27-.27c0,1.83-.09,3.67-.13,5.54Zm0,0-.15-5.54c0-1.86-.11-3.75-.13-5.65v-.27h.28c4.41-.05,8.82-.16,13.24-.17l13.24-.06h.5v.5L85.65,347v.45h-.44c-2.23,0-4.47,0-6.7-.06l-6.66-.11Z" style="fill:#ebebeb"></path><path d="M58.73,85.77l13.35-.28,6.58-.12c2.19,0,4.37,0,6.55-.05l-.45.45-.05-11.19.5.49L72,75c-4.42,0-8.83-.11-13.24-.16l.27-.27c0,1.83-.09,3.67-.13,5.53Zm0,0-.15-5.54c0-1.87-.11-3.76-.13-5.65v-.27h.28c4.41,0,8.82-.16,13.24-.16l13.24-.06h.5v.51l-.06,11.19v.44h-.44c-2.23,0-4.47,0-6.7,0L71.85,86Z" style="fill:#ebebeb"></path><path d="M44,99.88l13.35-.28,6.58-.12c2.19,0,4.36,0,6.55,0l-.45.45,0-11.19.5.49L57.2,89.12C52.78,89.12,48.37,89,44,89l.27-.27c0,1.83-.09,3.67-.13,5.53Zm0,0-.15-5.54c0-1.87-.11-3.76-.13-5.65v-.27H44c4.41,0,8.82-.16,13.24-.16l13.24-.06h.5v.51l-.06,11.19v.44h-.44c-2.24,0-4.47,0-6.7,0l-6.66-.12Z" style="fill:#ebebeb"></path><path d="M429.56,85.78l13.36-.28,6.58-.11c2.19,0,4.36,0,6.54-.06l-.44.45-.05-11.19.49.5L442.8,75c-4.41,0-8.82-.11-13.24-.16l.28-.27c0,1.83-.09,3.67-.13,5.53Zm0,0-.14-5.54c0-1.87-.11-3.75-.13-5.65v-.27h.27c4.42,0,8.83-.15,13.24-.16L456,74.09h.51v.5l-.05,11.19v.45H456c-2.23,0-4.46,0-6.69,0l-6.66-.11Z" style="fill:#ebebeb"></path><path d="M193.79,272.2l-13.36.28-6.58.11c-2.19.05-4.36,0-6.54.05l.44-.44.06,11.19-.5-.5,13.24.06c4.41,0,8.82.11,13.24.16l-.28.28c0-1.83.09-3.68.13-5.54Zm0,0,.14,5.53c0,1.87.11,3.76.13,5.66v.27h-.27c-4.42,0-8.83.16-13.24.16l-13.24.07h-.51v-.5l.05-11.19v-.45h.45c2.23,0,4.46,0,6.69.06l6.66.11Z" style="fill:#ebebeb"></path><path d="M179,258.09l-13.35.28-6.58.11c-2.19,0-4.36,0-6.55,0l.45-.44.05,11.19-.5-.5,13.24.06c4.42,0,8.83.11,13.24.16l-.27.28c0-1.83.09-3.68.13-5.54Zm0,0,.15,5.53c0,1.87.11,3.76.13,5.66v.27H179c-4.41.05-8.82.16-13.24.16l-13.24.07H152v-.5l.06-11.19v-.45h.44c2.24,0,4.47,0,6.7.06l6.66.11Z" style="fill:#ebebeb"></path></g><g id="freepik--Floor--inject-5"><polygon points="44.35 388.23 95.76 387.99 147.18 387.9 250 387.73 352.82 387.9 404.24 387.98 455.65 388.23 404.24 388.47 352.82 388.56 250 388.73 147.18 388.56 95.76 388.47 44.35 388.23" style="fill:#263238"></polygon></g><g id="freepik--Plant--inject-5"><path d="M110.68,288.63c-3.15-3.09-7.22-6.82-12-5.48-4.53,1.25-6.26,6.19-7.08,10.32-1,5.31-1.86,10.67-2.7,16s-1.65,10.81-2.43,16.22c-.44,3.05-.87,6.11-1.3,9.16-.21,1.53-.42,3.06-.64,4.59s-.45,3-.54,4.5a.43.43,0,0,0,.84.1c.58-2.55.82-5.2,1.2-7.79s.75-5.2,1.13-7.8q1.14-7.75,2.32-15.49t2.41-15.49c.69-4.37,1-9.81,4.9-12.69a7.5,7.5,0,0,1,7.25-.68,21.55,21.55,0,0,1,6.59,4.61C110.65,288.78,110.74,288.69,110.68,288.63Z" style="fill:#263238"></path><path d="M106.37,285.48s-6.44-2.32-9.62,2.38.62,16.65,30,23.4a82.8,82.8,0,0,0-7.06-26.51C113.35,271,102.15,276.23,106.37,285.48Z" style="fill:#79C7D9"></path><path d="M125,309.3a23.45,23.45,0,0,0-1.47-2.38c-.49-.75-1-1.5-1.49-2.25-.38-.57-.76-1.12-1.15-1.68,0-.14,0-.28.06-.42s.06-.51.1-.76c.07-.55.15-1.1.23-1.65s.17-1.09.28-1.63a8.34,8.34,0,0,1,.38-1.73c0-.09-.12-.13-.13,0a5.34,5.34,0,0,1-.26,1l-.2.74c-.14.56-.27,1.12-.4,1.68s-.21,1-.3,1.55l-.12.76c-.52-.75-1.05-1.49-1.6-2.21-1.56-2.05-3.21-4-4.91-5.95,0,0,0,0,0-.06a53,53,0,0,1,.76-9.16c0-.08-.11-.13-.13,0a31.23,31.23,0,0,0-1.09,8.76c-.61-.68-1.23-1.36-1.86-2q-2.13-2.31-4.37-4.53a.06.06,0,1,0-.09.09c2.47,2.66,4.82,5.43,7.1,8.25a50.44,50.44,0,0,0-5.36.2c-2,.15-4,.4-5.94.68-.08,0-.06.14,0,.13a53.31,53.31,0,0,1,5.93-.53c1.91-.08,3.81,0,5.73,0q1.85,2.3,3.66,4.63h-.28c-.45,0-.9,0-1.34,0-.9,0-1.79.08-2.68.16a39.45,39.45,0,0,0-5.41.81.07.07,0,0,0,0,.13c1.81-.21,3.61-.38,5.42-.44.87,0,1.73,0,2.6,0h1.35a1.65,1.65,0,0,0,.74-.06c.79,1,1.58,2,2.36,3.07.62.82,1.23,1.65,1.84,2.48s1.17,1.78,1.85,2.58A.07.07,0,0,0,125,309.3Z" style="fill:#263238"></path><path d="M109.17,292.14A19.2,19.2,0,0,0,106,292c-1.05,0-2.1,0-3.14.06a.07.07,0,1,0,0,.13c1.06-.07,2.12-.09,3.18-.08s2.06.12,3.08.09C109.2,292.19,109.21,292.14,109.17,292.14Z" style="fill:#263238"></path><path d="M118.38,294.5a30,30,0,0,1,.46-3c0-.1-.12-.13-.13,0-.15,1-.34,2-.49,2.95-.07.5-.14,1-.2,1.48a7.43,7.43,0,0,0-.12,1.4.09.09,0,0,0,.17,0,8.21,8.21,0,0,0,.15-1.4C118.27,295.45,118.32,295,118.38,294.5Z" style="fill:#263238"></path><path d="M116.45,283.4c-.26,1-.51,2-.69,3-.09.5-.17,1-.24,1.51a6.79,6.79,0,0,0-.1,1.49s.07,0,.08,0a8.29,8.29,0,0,0,.23-1.41c.07-.49.14-1,.23-1.46.17-1,.36-2,.61-3C116.6,283.37,116.47,283.32,116.45,283.4Z" style="fill:#263238"></path><path d="M78.26,342.88q-.24-2.78-.53-5.53-.58-5.49-1.32-10.94c-.49-3.63-1-7.27-1.54-10.89a28,28,0,0,0-1.12-4.94A4.73,4.73,0,0,0,71,307.49c-3.45-1.19-5.78,2.39-7.17,4.92,0,.08.07.13.12.07.83-1.2,3.14-4.57,5.75-4.41,1.77.1,3.17,1.35,4,5.74,2.11,10.94,4,33.15,4.23,34.6.11.77.66.74.66-.09C78.63,346.51,78.42,344.69,78.26,342.88Z" style="fill:#263238"></path><path d="M64.77,311.05s3-10.65-3.65-5.32c-11.1,8.86-11.49,28.14-11.49,28.14s19.73-11.46,22.18-19C75.46,303.6,64.77,311.05,64.77,311.05Z" style="fill:#79C7D9"></path><path d="M68.51,316.28c-1.55.31-3.12.52-4.69.74l-2.22.31-1.5.18c1.46-2,2.95-4,4.36-6.1.05-.08-.07-.17-.14-.1a46,46,0,0,0-3.29,3.8c-.29-.82-.59-1.64-.88-2.47s-.69-1.9-.94-2.88a.06.06,0,1,0-.12,0c.27,1,.46,2,.72,2.95s.54,1.88.87,2.79c-.72.94-1.41,1.9-2.09,2.87-.34-1-.76-1.89-1.06-2.87,0-.08-.15,0-.12,0,.35,1.08.54,2.21.87,3.29-.45.67-.9,1.33-1.33,2-.8,1.24-1.55,2.49-2.29,3.75a.31.31,0,0,0-.17.3c-1.25,2.15-2.43,4.34-3.6,6.55a.07.07,0,1,0,.12.06c1.17-2.18,2.47-4.3,3.82-6.38h0a4,4,0,0,1,.64-.12l.68-.15c.51-.11,1-.24,1.53-.37,1-.24,2-.48,3-.66.09,0,0-.14,0-.12-1.19.22-2.39.36-3.59.5-.57.07-1.14.14-1.71.23h-.08c.71-1.08,1.43-2.15,2.16-3.2s1.45-2.07,2.19-3.09c.68-.1,1.36-.28,2-.41L64,317.3c1.53-.3,3.05-.64,4.58-.89A.07.07,0,0,0,68.51,316.28Z" style="fill:#263238"></path><path d="M56.65,317.33l-.27-.85c-.18-.59-.33-1.18-.45-1.78,0-.09-.14-.05-.13,0,.13.6.27,1.2.41,1.8a12,12,0,0,0,.52,1.77.12.12,0,1,0,.22-.07C56.87,317.93,56.75,317.63,56.65,317.33Z" style="fill:#263238"></path><path d="M70.52,313.81c-.9.14-1.8.2-2.71.28s-1.81.21-2.71.34c0,0,0,.08,0,.08.91-.06,1.81-.13,2.71-.25s1.81-.25,2.72-.31C70.61,313.94,70.61,313.8,70.52,313.81Z" style="fill:#263238"></path><path d="M92.78,329.4c-.35-7.84-.85-15.67-1.63-23.48-.4-3.89-.84-7.77-1.38-11.64A84.18,84.18,0,0,0,87.52,283a21.72,21.72,0,0,0-3.75-7.95,8.52,8.52,0,0,0-7.58-3.31c-3.43.42-6.2,2.59-8.59,4.93-2.68,2.64-5.13,5.52-7.62,8.34l-1.87,2.15c0,.06,0,.15.1.09,2.43-2.79,4.95-5.5,7.59-8.09,2.44-2.4,5-5,8.33-6a8.58,8.58,0,0,1,4.84-.12,7.63,7.63,0,0,1,3.31,2.1A17.38,17.38,0,0,1,86,282.4c2.1,7.21,2.86,14.76,3.64,22.2s1.33,15.15,1.72,22.74.68,15.28,1.41,22.89c.09.93.21,1.87.33,2.81.08.63,1.06.63,1,0C93.5,345.15,93.13,337.28,92.78,329.4Z" style="fill:#263238"></path><path d="M67.17,277.53s4.48-8.28-.81-10.94-23,17.11-28.17,46c0,0,28.6-12.66,38.31-25.26S75.2,272,67.17,277.53Z" style="fill:#79C7D9"></path><path d="M71.38,284.27c-3.22,0-6.42-.24-9.64-.22L63.55,282a30.51,30.51,0,0,0,2.52-2.92c0-.06-.06-.16-.12-.11a23.32,23.32,0,0,0-2.43,2.44L61.11,284c-1.22,1.33-2.43,2.68-3.63,4v-.39c0-.56,0-1.12,0-1.68l0-3.27c0-2.21,0-4.44.17-6.64,0-.09-.12-.08-.13,0-.15,2.22-.38,4.43-.49,6.65-.06,1.09-.08,2.18-.1,3.27,0,.56,0,1.12,0,1.69,0,.3,0,.63,0,.94-.19.22-.38.42-.57.63-2.57,2.93-5,6-7.38,9.05a4.38,4.38,0,0,0,0-.51c0-.34-.07-.68-.11-1-.09-.74-.19-1.47-.3-2.21s-.21-1.37-.33-2.06-.31-1.56-.37-2.34a.07.07,0,1,0-.13,0,23.35,23.35,0,0,1,.27,2.36c.06.7.13,1.41.19,2.12s.13,1.41.2,2.12c0,.34.07.68.1,1,0,.17,0,.34.07.51a.94.94,0,0,0,.13.4c-.4.54-.81,1.07-1.22,1.6-1.62,2.15-3.21,4.32-4.8,6.49,0,.06,0,.16.09.09,1.51-2,3.06-3.9,4.63-5.81,1.18.05,2.38,0,3.56-.06s2.48,0,3.72,0c.08,0,.08-.13,0-.13-1.24,0-2.48,0-3.72,0s-2.28-.05-3.41,0c1.38-1.68,2.78-3.35,4.18-5,.51-.61,1-1.22,1.54-1.82a6.82,6.82,0,0,0,1.43,0h1.69c1.06,0,2.12,0,3.17,0,2.18,0,4.37-.11,6.55-.11.09,0,.08-.14,0-.14-2.19,0-4.37-.12-6.56-.17l-3.17-.08-1.69,0c-.32,0-.65,0-1,0l3.6-4.27a.19.19,0,0,0,.07-.08c1.17-1.38,2.34-2.76,3.53-4.13l.49-.56c3.33.1,6.66-.12,10,0C71.46,284.41,71.46,284.27,71.38,284.27Z" style="fill:#263238"></path><path d="M69.73,290H69c-.07,0-.07.12,0,.12h.78C69.82,290.09,69.82,290,69.73,290Z" style="fill:#263238"></path><path d="M68,290q-1.55,0-3.09-.06l-1.54,0a5.34,5.34,0,0,0-1.44,0s0,.08,0,.09a5,5,0,0,0,1.44.1l1.55,0H68A.07.07,0,0,0,68,290Z" style="fill:#263238"></path><path d="M59,299.62a43.29,43.29,0,0,0-6.32-.58s0,0,0,0c2.1.2,4.2.31,6.29.65C59.06,299.76,59.09,299.63,59,299.62Z" style="fill:#263238"></path><path d="M50.41,290.42l-.06-.56c-.05-.41-.12-.82-.19-1.23-.12-.79-.26-1.57-.41-2.35,0-.08-.13-.06-.12,0,.09.8.18,1.61.26,2.42,0,.4.06.8.1,1.2a3.29,3.29,0,0,0,.16,1.13.15.15,0,0,0,.28,0A1.46,1.46,0,0,0,50.41,290.42Z" style="fill:#263238"></path><path d="M92.5,266.89c-1-1.9-2.33-4.42-4.88-4.26-2.11.13-3.06,2.28-3.51,4.06-1.4,5.51-1.49,11.31-1.77,16.95-.57,11.92-1.08,23.85-1.16,35.79,0,3.31,0,6.61,0,9.92s0,6.77.24,10.14a.25.25,0,0,0,.49,0c0-2.89-.08-5.78-.09-8.66s0-5.64.06-8.45q.13-8.56.45-17.11c.21-5.67.46-11.33.7-17q.18-4.25.37-8.49c.12-2.74.24-5.49.55-8.22.18-1.52.41-3.05.72-4.56A6.47,6.47,0,0,1,86,263.93a2.89,2.89,0,0,1,3.73-.27,8,8,0,0,1,2.65,3.3C92.43,267,92.54,267,92.5,266.89Z" style="fill:#263238"></path><path d="M91.81,266s-2.1-7.41,2.54-3.71c7.73,6.18,8,19.61,8,19.61s-13.75-8-15.45-13.25C84.36,260.79,91.81,266,91.81,266Z" style="fill:#79C7D9"></path><path d="M99.46,276.37c-.12-.2-.26-.4-.39-.61a3.31,3.31,0,0,0,0-.63c0-.32,0-.64,0-1,0-.62,0-1.25.07-1.87a.07.07,0,0,0-.14,0c0,.61-.05,1.23-.07,1.84l0,.92,0,.4c-.54-.84-1.09-1.67-1.67-2.48-.16-.24-.34-.47-.51-.7a15,15,0,0,1,0-2.42c0-.87,0-1.73.06-2.59,0-.08-.13-.08-.14,0,0,.9-.07,1.8-.11,2.69,0,.64-.09,1.28-.06,1.92-1.32-1.8-2.73-3.54-4.16-5.27,0-.06-.14,0-.1.08.89,1.12,1.73,2.26,2.56,3.42-1.62-.38-3.26-.59-4.9-.83-.09,0-.12.12,0,.13,1.74.26,3.45.7,5.17,1.08h0l2,2.79.78,1.15h-.08l-.53-.07c-.38,0-.76-.08-1.14-.11-.8-.06-1.59-.1-2.38-.14-.09,0-.09.13,0,.13.78,0,1.56.08,2.33.16l1.23.15.54.06.16,0,1.32,1.95c.77,1.15,1.47,2.38,2.3,3.49,0,.06.14,0,.1-.07A34.26,34.26,0,0,0,99.46,276.37Z" style="fill:#263238"></path><path d="M96,268c0-.28,0-.57,0-.86a13.78,13.78,0,0,1,.07-1.82.07.07,0,1,0-.13,0c0,.6-.07,1.2-.09,1.8,0,.3,0,.6,0,.9v.41a1.23,1.23,0,0,0,0,.43.06.06,0,0,0,.12,0,1.31,1.31,0,0,0,0-.4C96,268.29,96,268.14,96,268Z" style="fill:#263238"></path><path d="M94.34,271.07c-.51-.09-1-.12-1.55-.16s-1.13-.1-1.69-.17c-.1,0-.12.12,0,.13,1.09.07,2.17.26,3.25.3A.05.05,0,0,0,94.34,271.07Z" style="fill:#263238"></path><path d="M98.66,271.11c0,.06,0,.22,0,.29v1.27a1.18,1.18,0,0,0,0,.46,0,0,0,0,0,0,0,.41.41,0,0,0,0-.22V271.4c0-.08,0-.23,0-.29S98.57,271,98.66,271.11Z" style="fill:#263238"></path><path d="M92.82,306.47c-2.89-2.17-5.49-5.29-9.37-5.44-3.21-.12-5.46,2.29-6.75,5a28.78,28.78,0,0,0-1.57,4.43q-.87,3-1.64,6.12c-1,4-1.87,8.1-2.57,12.19-.39,2.28-.76,4.57-1,6.87a59.47,59.47,0,0,0-.68,7,.37.37,0,0,0,.72.08c.39-1.93.55-3.91.84-5.85s.58-3.91.91-5.85q1-5.84,2.3-11.62c.83-3.64,1.64-7.33,2.82-10.87.84-2.54,2.19-5.5,4.93-6.41,4.17-1.39,8,2.14,11,4.43C92.79,306.62,92.89,306.52,92.82,306.47Z" style="fill:#263238"></path><path d="M89.83,304.4s-2.67-7.61,1.19-9.1c5.77-2.24,20.89,14.79,17.93,40.87a148.25,148.25,0,0,1-20.3-13.67c-8.63-7.24-10.83-16.69-7-19.13S89.83,304.4,89.83,304.4Z" style="fill:#79C7D9"></path><path d="M107.2,330.58a20.07,20.07,0,0,0-1.4-2.63c-.5-.9-1-1.79-1.51-2.67-1-1.71-2-3.43-3-5.13l-.51-.83c0-.1,0-.2.07-.3l.17-.76c.13-.56.23-1.14.33-1.71.21-1.11.41-2.24.71-3.34,0-.08-.12-.11-.13,0-.24,1.11-.59,2.21-.92,3.3-.17.54-.34,1.08-.48,1.62l-.15.56c-1.24-2-2.5-4.06-3.86-6a2.84,2.84,0,0,0,.13-.84c0-.38.09-.76.13-1.14.11-.86.2-1.72.33-2.57a49.94,49.94,0,0,1,.92-5c0-.08-.11-.1-.14,0-.41,1.64-.86,3.28-1.18,4.95-.15.82-.29,1.64-.4,2.46-.06.41-.1.82-.14,1.24,0,.12,0,.25,0,.37-.42-.59-.84-1.18-1.28-1.76-1.33-1.75-2.71-3.47-4.11-5.17,0-.07-.16,0-.11.07a92.48,92.48,0,0,1,6.57,9.6l1.14,1.84-.38-.05c-.49-.06-1-.09-1.47-.14l-3-.25c-2-.16-3.94-.28-5.9-.49-.09,0-.11.12,0,.13,2,.23,4,.55,6,.83,1,.14,2,.27,2.93.39a11,11,0,0,0,2.25.23L101,321.1a4.52,4.52,0,0,0-.52,0H97.69l-3.8,0c-.09,0-.08.13,0,.13,1.28,0,2.56.08,3.84.15l1.83.11c.3,0,.6.05.91.06a1.8,1.8,0,0,0,.8,0c.66,1.07,1.32,2.14,2,3.21s1.22,2,1.84,2.94a24,24,0,0,0,2,3C107.13,330.7,107.23,330.66,107.2,330.58Z" style="fill:#263238"></path><path d="M101.64,309.5a21.44,21.44,0,0,1-.52,2.48c-.22.84-.47,1.68-.74,2.51a.08.08,0,1,0,.16.05c.26-.83.49-1.65.69-2.49s.33-1.69.54-2.53C101.79,309.44,101.65,309.41,101.64,309.5Z" style="fill:#263238"></path><path d="M93.06,314.59a1,1,0,0,0-.64-.24l-1.1-.15-2-.25c-1.43-.16-2.85-.3-4.27-.48-.09,0-.11.12,0,.13,1.35.16,2.68.37,4,.54l2,.26,1,.1a3.27,3.27,0,0,1,1.08.19C93.06,314.72,93.1,314.64,93.06,314.59Z" style="fill:#263238"></path><path d="M101.62,326.06c-.67-.06-1.35-.08-2-.1l-1,0h-.49a3.39,3.39,0,0,1-.64,0c-.09,0-.1.14,0,.13a3,3,0,0,1,.6,0l.53,0,1,.06c.67,0,1.35.08,2,.09C101.69,326.21,101.7,326.07,101.62,326.06Z" style="fill:#263238"></path><path d="M105.73,323.14c.08-.38.15-.76.22-1.14l.42-2.26a.07.07,0,0,0-.13,0c-.17.73-.33,1.46-.5,2.19l-.24,1.1c0,.17-.07.34-.1.51a1.25,1.25,0,0,0-.06.54c0,.06.1.11.14.05A2.67,2.67,0,0,0,105.73,323.14Z" style="fill:#263238"></path><polygon points="100.06 345.62 99.41 356.4 97.49 388.23 64.85 388.23 62.93 356.4 62.28 345.62 100.06 345.62" style="fill:#37474f"></polygon><polygon points="100.06 345.62 99.41 356.4 62.93 356.4 62.28 345.62 100.06 345.62" style="fill:#263238"></polygon><rect x="59.27" y="338" width="43.79" height="10.79" style="fill:#37474f"></rect></g><g id="freepik--Shadow--inject-5"><ellipse cx="250" cy="435.47" rx="180.13" ry="15.73" style="fill:#ebebeb"></ellipse></g><g id="freepik--Screens--inject-5"><rect x="161" y="55.88" width="168.83" height="168.48" style="fill:#a6a6a6"></rect><rect x="161" y="55.88" width="168.94" height="10.18" style="fill:#263238"></rect><path d="M169,61a2.12,2.12,0,1,1-2.12-2.12A2.12,2.12,0,0,1,169,61Z" style="fill:#c7c7c7"></path><path d="M177.67,61a2.12,2.12,0,1,1-2.12-2.12A2.12,2.12,0,0,1,177.67,61Z" style="fill:#fff"></path><path d="M186.31,61a2.12,2.12,0,1,1-2.12-2.12A2.12,2.12,0,0,1,186.31,61Z" style="fill:#79C7D9"></path><rect x="183.74" y="83.3" width="123.45" height="123.45" style="fill:#fff"></rect><path d="M245.39,186.55v-1a42.93,42.93,0,1,0-42.92-42.92h-1a43.89,43.89,0,1,1,43.88,43.88Z" style="fill:#79C7D9"></path><path d="M204.34,142.67a2.36,2.36,0,1,1-2.35-2.36A2.35,2.35,0,0,1,204.34,142.67Z" style="fill:#fff"></path><path d="M202,145.5a2.84,2.84,0,1,1,2.83-2.83A2.84,2.84,0,0,1,202,145.5Zm0-4.71a1.88,1.88,0,1,0,1.87,1.88A1.88,1.88,0,0,0,202,140.79Z" style="fill:#79C7D9"></path><path d="M232.21,133.61a5.12,5.12,0,1,1-5.12-5.11A5.12,5.12,0,0,1,232.21,133.61Z" style="fill:#79C7D9"></path><circle cx="263.69" cy="133.61" r="5.12" style="fill:#79C7D9"></circle><circle cx="288.8" cy="142.67" r="2.36" style="fill:#fff"></circle><path d="M288.8,145.5a2.84,2.84,0,1,1,2.83-2.83A2.84,2.84,0,0,1,288.8,145.5Zm0-4.71a1.88,1.88,0,1,0,1.87,1.88A1.88,1.88,0,0,0,288.8,140.79Z" style="fill:#79C7D9"></path><path d="M247.75,99.26a2.36,2.36,0,1,1-2.36-2.35A2.36,2.36,0,0,1,247.75,99.26Z" style="fill:#fff"></path><path d="M245.39,102.1a2.84,2.84,0,1,1,2.84-2.84A2.84,2.84,0,0,1,245.39,102.1Zm0-4.71a1.88,1.88,0,1,0,1.88,1.87A1.87,1.87,0,0,0,245.39,97.39Z" style="fill:#79C7D9"></path><path d="M247.75,186.05a2.36,2.36,0,1,1-2.36-2.36A2.36,2.36,0,0,1,247.75,186.05Z" style="fill:#79C7D9"></path><path d="M254.76,191.57a26.9,26.9,0,0,1,1.87,11.94l-4.38,2.14a26.73,26.73,0,0,1-8.26-8.81c3.27-4.72.63-10.41.63-10.41l.46-.22,4.36,8.92a1.52,1.52,0,1,0,.63-.31l-4.36-8.92.45-.22S249,191.25,254.76,191.57Z" style="fill:#263238"></path><rect x="251.24" y="203.89" width="7.21" height="3.03" transform="translate(-64.3 132.69) rotate(-26.03)" style="fill:#263238"></rect><rect x="262.38" y="203.29" width="0.56" height="5.4" style="fill:#263238"></rect><rect x="259.96" y="205.71" width="5.4" height="0.56" style="fill:#263238"></rect><rect x="259.96" y="205.71" width="5.4" height="0.56" transform="translate(-68.72 246.06) rotate(-45)" style="fill:#263238"></rect><rect x="262.38" y="203.29" width="0.56" height="5.4" transform="translate(-68.72 246.06) rotate(-45)" style="fill:#263238"></rect><path d="M262.65,194.27c-4.25-.1-5.68-2.88-6.94-5.33a7.56,7.56,0,0,0-2.43-3.26c-3.39-2-6.6.91-6.74,1l-.76-.82s3.95-3.58,8.07-1.18c1.35.79,2.08,2.21,2.85,3.72,1.23,2.38,2.39,4.63,6,4.72Z" style="fill:#263238"></path><path d="M255,132.45a9.61,9.61,0,1,1-19.22,0Z" style="fill:#79C7D9"></path><rect x="116.11" y="91.3" width="29.44" height="110.72" style="fill:#455a64"></rect><rect x="118.38" y="92.24" width="0.24" height="2.57" transform="translate(-31.43 111.18) rotate(-45)" style="fill:#ebebeb"></rect><rect x="117.21" y="93.41" width="2.57" height="0.24" transform="translate(-31.42 111.19) rotate(-45)" style="fill:#ebebeb"></rect><rect x="142.38" y="93.22" width="0.24" height="1.53" transform="translate(-24.71 128.33) rotate(-45.01)" style="fill:#ebebeb"></rect><rect x="141.73" y="92.96" width="1.53" height="0.24" transform="translate(-24.08 128.02) rotate(-45)" style="fill:#ebebeb"></rect><rect x="143.57" y="93.22" width="0.24" height="1.53" transform="translate(-24.37 129.13) rotate(-45)" style="fill:#ebebeb"></rect><rect x="142.93" y="92.96" width="1.53" height="0.24" transform="translate(-23.73 128.86) rotate(-45)" style="fill:#ebebeb"></rect><path d="M124.24,109.72l-1.26-3-2.26,1.75V98.6l6.87,6.94-2.88.43,1.26,3Zm-1.06-3.82,1.32,3.2.84-.35L124,105.58l2.55-.38-5.38-5.43v7.67Z" style="fill:#ebebeb"></path><polygon points="139.91 105.77 141.2 108.88 139.91 109.41 138.62 106.28 136.5 107.93 136.5 99.19 142.62 105.37 139.91 105.77" style="fill:#ebebeb"></polygon><rect x="119.16" y="121.48" width="9.72" height="0.72" transform="translate(-48.31 144.81) rotate(-52.08)" style="fill:#ebebeb"></rect><polygon points="123.45 118.75 121.99 119.02 121.66 120.56 121.33 119.02 119.87 118.75 121.33 118.39 121.66 116.94 121.99 118.39 123.45 118.75" style="fill:#ebebeb"></polygon><polygon points="126.69 116.31 125.83 116.47 125.64 117.38 125.45 116.47 124.59 116.31 125.44 116.1 125.64 115.25 125.84 116.1 126.69 116.31" style="fill:#ebebeb"></polygon><polygon points="127.7 121.17 127.21 121.26 127.1 121.77 126.99 121.26 126.51 121.17 126.99 121.05 127.1 120.56 127.22 121.05 127.7 121.17" style="fill:#ebebeb"></polygon><rect x="133.36" y="148.93" width="9.72" height="0.72" transform="translate(-64.49 166.59) rotate(-52.08)" style="fill:#ebebeb"></rect><polygon points="139.91 123.19 141.2 126.3 139.91 126.83 138.62 123.7 136.5 125.35 136.5 116.6 142.62 122.79 139.91 123.19" style="fill:#ebebeb"></polygon><path d="M135.9,122a2.81,2.81,0,0,1-2.58-1.11c-.51-1-.13-3.09,3-4.8,2.49-1.36,5-.8,5.58.18a2,2,0,0,1,.1,1.67,6.1,6.1,0,0,1-3.44,3.47h0A6.74,6.74,0,0,1,135.9,122Zm3.49-6.24a5.94,5.94,0,0,0-2.83.75c-2.81,1.53-3.22,3.37-2.81,4.17s2.36,1.29,4.62.29h0a5.67,5.67,0,0,0,3.18-3.17,1.55,1.55,0,0,0-.05-1.27A2.51,2.51,0,0,0,139.39,115.76Z" style="fill:#ebebeb"></path><path d="M134.54,122.62a1.1,1.1,0,0,1-.92-.46h0a1,1,0,0,1-.14-1.11,1.44,1.44,0,0,1,1.25-.74,1.1,1.1,0,0,1,1,.56,1.14,1.14,0,0,1-.44,1.53A1.43,1.43,0,0,1,134.54,122.62Zm-.53-.75a.73.73,0,0,0,1,.12.65.65,0,0,0,.27-.89.58.58,0,0,0-.56-.31,1,1,0,0,0-.83.48.55.55,0,0,0,.1.6Z" style="fill:#ebebeb"></path><path d="M135.9,123.91l-.29-.39c.14-.1.31-.26.29-.43s-.57-.57-.82-.67l.17-.45c.11,0,1,.42,1.12,1.06A.93.93,0,0,1,135.9,123.91Z" style="fill:#ebebeb"></path><path d="M120.94,134.57a12,12,0,0,1,4.73-2.51l1.53,1.53a11.86,11.86,0,0,1-2.5,4.74,5.06,5.06,0,0,0-4.46,1.23l-.16-.16,3.12-3.11a.68.68,0,1,0-.22-.22l-3.12,3.11-.15-.16A5,5,0,0,0,120.94,134.57Z" style="fill:#ebebeb"></path><rect x="125.13" y="131.87" width="3.2" height="1.35" transform="translate(122.62 315.87) rotate(-135)" style="fill:#ebebeb"></rect><rect x="131.79" y="129.43" width="11.78" height="11.01" style="fill:#263238"></rect><path d="M136.06,134.57a12,12,0,0,1,4.74-2.51l1.53,1.53a12,12,0,0,1-2.51,4.74,5.06,5.06,0,0,0-4.46,1.23l-.15-.16,3.11-3.11a.68.68,0,1,0-.22-.22L135,139.18l-.16-.16A5,5,0,0,0,136.06,134.57Z" style="fill:#ebebeb"></path><rect x="140.25" y="131.87" width="3.2" height="1.35" transform="translate(148.43 326.56) rotate(-135)" style="fill:#ebebeb"></rect><path d="M135,139.42a1.88,1.88,0,0,1-1.65-.81c-.34-.54-.55-1.57.36-3.47a1.79,1.79,0,0,0,.14-1.64,2.15,2.15,0,0,0-1.49-.84l.05-.48a2.58,2.58,0,0,1,1.86,1.09,2.2,2.2,0,0,1-.13,2.08c-.81,1.7-.65,2.57-.38,3a1.4,1.4,0,0,0,1.24.59Z" style="fill:#ebebeb"></path><path d="M126.9,144.82v2h-.66a.26.26,0,0,1-.27-.22c0-.07,0-.22-.06-.47h-1.69V152l.34.06.17,0h.07a.35.35,0,0,1,.3.36v.68h-3.29v-.68a.33.33,0,0,1,.29-.36h.07l.17,0,.33-.06v-5.9H121c0,.25,0,.41,0,.48a.26.26,0,0,1-.27.22H120v-2h6.9Z" style="fill:#ebebeb"></path><path d="M128.06,169.13h-8.43V160.7h8.43Zm-7.7-.72h7v-7h-7Z" style="fill:#ebebeb"></path><path d="M141.35,194.25h-7.28v-6.51h7.28Zm-6.55-.72h5.83v-5.07H134.8Z" style="fill:#ebebeb"></path><path d="M137.35,196.18h-5.07v-4.57h5.07Zm-4.34-.73h3.62v-3.12H133Z" style="fill:#ebebeb"></path><rect x="137.7" y="189.93" width="2.59" height="0.48" transform="translate(-93.76 153.98) rotate(-45)" style="fill:#ebebeb"></rect><polygon points="140.26 190.34 139.78 190.34 139.78 189.38 138.86 189.38 138.86 188.9 140.26 188.9 140.26 190.34" style="fill:#ebebeb"></polygon><path d="M141.75,169.13h-8.43V160.7h3.93a3.2,3.2,0,0,1,6.37.43,3.22,3.22,0,0,1-1.87,2.91Zm-7.71-.72h7v-4.86l.23-.09a2.48,2.48,0,0,0-.84-4.81,2.46,2.46,0,0,0-2.47,2.42v.35H134Z" style="fill:#ebebeb"></path><path d="M138.65,163.06c-1.26-.21-1.44,1.12-1.46,1.64a1.45,1.45,0,0,1-1,1.11s1.95.54,2.92-.46A1.31,1.31,0,0,0,138.65,163.06Z" style="fill:#ebebeb"></path><path d="M143,159l-3.15,4.45a1.34,1.34,0,0,0-1-.74l-.22,0,2.62-3.69Z" style="fill:#ebebeb"></path><rect x="121.77" y="176.23" width="3.13" height="6.38" transform="translate(163 -34.66) rotate(45)" style="fill:#ebebeb"></rect><rect x="124.88" y="175.64" width="3.13" height="1.35" transform="translate(161.71 -37.77) rotate(45)" style="fill:#ebebeb"></rect><polygon points="119.78 182.98 119.96 180.63 120.44 180.66 120.3 182.46 122.1 182.33 122.14 182.81 119.78 182.98" style="fill:#ebebeb"></polygon><path d="M140.17,179.23a1.7,1.7,0,1,1,1.69-1.7A1.7,1.7,0,0,1,140.17,179.23Zm0-2.67a1,1,0,1,0,1,1A1,1,0,0,0,140.17,176.56Z" style="fill:#ebebeb"></path><path d="M132.36,181.89l6.66-3.67,1.14.65s-4.85,3-5.71,3.28A3.29,3.29,0,0,1,132.36,181.89Z" style="fill:#ebebeb"></path><path d="M140.14,183a1.7,1.7,0,1,1,1.7-1.69A1.7,1.7,0,0,1,140.14,183Zm0-2.67a1,1,0,1,0,1,1A1,1,0,0,0,140.14,180.34Z" style="fill:#ebebeb"></path><path d="M132.33,177l6.67,3.67,1.14-.65s-4.85-3-5.71-3.28A3.33,3.33,0,0,0,132.33,177Z" style="fill:#ebebeb"></path><path d="M119.68,195.08v-6.25l4,3.13Zm.72-4.76v3.28l2.1-1.64Z" style="fill:#ebebeb"></path><polygon points="128.01 188.93 128.01 194.99 124.15 191.96 128.01 188.93" style="fill:#ebebeb"></polygon><path d="M124.05,195.28h-.24v-1h.24Zm0-1.92h-.24v-1h.24Zm0-1.93h-.24v-1h.24Zm0-1.92h-.24v-1h.24Z" style="fill:#ebebeb"></path><rect x="333.98" y="63.87" width="60.64" height="35.98" style="fill:#455a64"></rect><polygon points="337.19 67.09 335.37 65.27 335.54 65.1 337.36 66.92 337.19 67.09" style="fill:#ebebeb"></polygon><polygon points="335.54 67.09 335.37 66.92 337.19 65.1 337.36 65.27 335.54 67.09" style="fill:#ebebeb"></polygon><rect x="391.3" y="65.79" width="0.24" height="1.53" transform="translate(67.54 296.21) rotate(-44.99)" style="fill:#ebebeb"></rect><rect x="390.66" y="65.53" width="1.53" height="0.24" transform="translate(68.22 295.99) rotate(-45)" style="fill:#ebebeb"></rect><rect x="392.49" y="65.79" width="0.24" height="1.53" transform="translate(67.89 297.05) rotate(-44.99)" style="fill:#ebebeb"></rect><rect x="391.85" y="65.53" width="1.53" height="0.24" transform="translate(68.64 296.94) rotate(-45.02)" style="fill:#ebebeb"></rect><rect x="344.69" y="69.59" width="0.24" height="23.64" style="fill:#ebebeb"></rect><rect x="353.41" y="69.59" width="0.24" height="23.64" style="fill:#ebebeb"></rect><path d="M340.38,71.77a3,3,0,0,0-2.53,1.43,3.12,3.12,0,0,0,2.53,1.44,3.23,3.23,0,0,0,2.56-1.44A3.08,3.08,0,0,0,340.38,71.77Zm0,2.61a1.18,1.18,0,1,1,0-2.35,1.18,1.18,0,0,1,0,2.35Z" style="fill:#ebebeb"></path><path d="M341.28,73.21a.91.91,0,1,1-.91-.91A.9.9,0,0,1,341.28,73.21Z" style="fill:#ebebeb"></path><path d="M340.38,80a3,3,0,0,0-2.53,1.43,3.12,3.12,0,0,0,2.53,1.44,3.23,3.23,0,0,0,2.56-1.44A3.08,3.08,0,0,0,340.38,80Zm0,2.6a1.17,1.17,0,1,1,1.17-1.16A1.17,1.17,0,0,1,340.38,82.6Z" style="fill:#ebebeb"></path><path d="M341.28,81.43a.91.91,0,1,1-1.81,0,.91.91,0,0,1,1.81,0Z" style="fill:#ebebeb"></path><path d="M340.38,87.85a3,3,0,0,0-2.53,1.43,3.12,3.12,0,0,0,2.53,1.44,3.23,3.23,0,0,0,2.56-1.44A3.08,3.08,0,0,0,340.38,87.85Zm0,2.61a1.18,1.18,0,1,1,0-2.35,1.18,1.18,0,0,1,0,2.35Z" style="fill:#ebebeb"></path><path d="M341.28,89.29a.91.91,0,1,1-.91-.91A.9.9,0,0,1,341.28,89.29Z" style="fill:#ebebeb"></path><rect x="336.48" y="77.37" width="55.63" height="0.24" style="fill:#ebebeb"></rect><rect x="336.48" y="85.26" width="55.63" height="0.24" style="fill:#ebebeb"></rect><path d="M360.11,74.92h0a.14.14,0,0,1-.14-.14V71a.14.14,0,1,1,.28,0v3.6h1.92a.14.14,0,1,1,0,.28Z" style="fill:#ebebeb"></path><path d="M365.49,72.24v2.54a.14.14,0,0,1-.14.14.14.14,0,0,1-.14-.14v-.42a1.31,1.31,0,0,1-1,.56,1.41,1.41,0,0,1,0-2.82,1.29,1.29,0,0,1,1,.56v-.42a.14.14,0,0,1,.14-.14A.14.14,0,0,1,365.49,72.24Zm-.28,1.27a1.06,1.06,0,1,0-1,1.13A1.1,1.1,0,0,0,365.21,73.51Z" style="fill:#ebebeb"></path><path d="M366.63,72.24a.13.13,0,0,1,.13-.14.14.14,0,0,1,.14.14v1.52a.87.87,0,1,0,1.73,0V72.24a.09.09,0,0,1,0-.07v0a0,0,0,0,0,0,0l.06,0h.06l.07,0a.09.09,0,0,1,0,.05.14.14,0,0,1,0,.06v2.45A1.32,1.32,0,0,1,367.57,76a1.44,1.44,0,0,1-.58-.13.14.14,0,0,1,.12-.25,1,1,0,0,0,.46.11,1.05,1.05,0,0,0,1.06-1v-.18a1.16,1.16,0,0,1-.87.4,1.14,1.14,0,0,1-1.13-1.15Z" style="fill:#ebebeb"></path><path d="M369.86,73.52a1.4,1.4,0,0,1,1.37-1.42,1.38,1.38,0,0,1,1.35,1.31h0v0a.12.12,0,0,1-.13.12h-2.31a1.1,1.1,0,0,0,1.09,1.08,1.06,1.06,0,0,0,.91-.51.12.12,0,0,1,.18,0,.14.14,0,0,1,.05.19,1.34,1.34,0,0,1-1.14.64A1.39,1.39,0,0,1,369.86,73.52Zm.3-.23h2.13a1.08,1.08,0,0,0-2.13,0Z" style="fill:#ebebeb"></path><path d="M373.44,72.25a.14.14,0,0,1,.14-.14.14.14,0,0,1,.14.14v.62a.25.25,0,0,1,0-.07,1.35,1.35,0,0,1,1.12-.69.14.14,0,0,1,.14.14.14.14,0,0,1-.14.14,1,1,0,0,0-.81.46,2.55,2.55,0,0,0-.34.65.09.09,0,0,0,0,0v1.23a.14.14,0,0,1-.14.14.14.14,0,0,1-.14-.14Z" style="fill:#ebebeb"></path><path d="M378.12,71.31l-.57.33-.07,0a.14.14,0,0,1-.12-.07.13.13,0,0,1,.05-.19l.78-.47a.15.15,0,0,1,.19.06.16.16,0,0,1,0,.1v3.69a.14.14,0,1,1-.28,0Z" style="fill:#ebebeb"></path><path d="M360.11,83.2h0a.14.14,0,0,1-.14-.14V79.32a.14.14,0,1,1,.28,0v3.6h1.92a.14.14,0,1,1,0,.28Z" style="fill:#ebebeb"></path><path d="M365.49,80.52v2.54a.14.14,0,0,1-.14.14.14.14,0,0,1-.14-.14v-.42a1.31,1.31,0,0,1-1,.56,1.41,1.41,0,0,1,0-2.81,1.28,1.28,0,0,1,1,.55v-.42a.13.13,0,0,1,.14-.13A.13.13,0,0,1,365.49,80.52Zm-.28,1.27a1.06,1.06,0,1,0-1,1.13A1.09,1.09,0,0,0,365.21,81.79Z" style="fill:#ebebeb"></path><path d="M366.63,80.52a.13.13,0,0,1,.13-.13.13.13,0,0,1,.14.13V82a.87.87,0,1,0,1.73,0V80.52a.09.09,0,0,1,0-.07v0h0l.06,0h.06l.07,0s0,0,0,0a.14.14,0,0,1,0,.06V83a1.33,1.33,0,0,1-1.34,1.33,1.45,1.45,0,0,1-.58-.14.14.14,0,0,1,.12-.25,1,1,0,0,0,.46.11,1.05,1.05,0,0,0,1.06-1v-.18a1.16,1.16,0,0,1-.87.4A1.14,1.14,0,0,1,366.63,82Z" style="fill:#ebebeb"></path><path d="M369.86,81.8a1.39,1.39,0,0,1,1.37-1.41,1.37,1.37,0,0,1,1.35,1.3h0v0a.12.12,0,0,1-.13.12h-2.31a1.1,1.1,0,0,0,1.09,1.08,1.06,1.06,0,0,0,.91-.51.12.12,0,0,1,.18,0,.14.14,0,0,1,.05.19,1.34,1.34,0,0,1-1.14.64A1.39,1.39,0,0,1,369.86,81.8Zm.3-.23h2.13a1.08,1.08,0,0,0-2.13,0Z" style="fill:#ebebeb"></path><path d="M373.44,80.53a.14.14,0,0,1,.14-.14.14.14,0,0,1,.14.14v.62a.25.25,0,0,1,0-.07,1.35,1.35,0,0,1,1.12-.69.14.14,0,0,1,.14.14.14.14,0,0,1-.14.14,1,1,0,0,0-.81.46,2.55,2.55,0,0,0-.34.65.09.09,0,0,0,0,0v1.23a.14.14,0,0,1-.14.14.14.14,0,0,1-.14-.14Z" style="fill:#ebebeb"></path><path d="M377.46,83l1.88-1.69a1.05,1.05,0,0,0,.34-.77,1,1,0,0,0-.27-.69,1,1,0,0,0-.76-.34,1,1,0,0,0-.7.27l-.2.17a.13.13,0,0,1-.19,0,.14.14,0,0,1,0-.2l.2-.18a1.31,1.31,0,0,1,.89-.34,1.28,1.28,0,0,1,1,.43,1.26,1.26,0,0,1,.35.88,1.34,1.34,0,0,1-.43,1l-1.61,1.46h1.9a.14.14,0,1,1,0,.28h-2.26a.15.15,0,0,1-.11,0A.15.15,0,0,1,377.46,83Z" style="fill:#ebebeb"></path><path d="M360.11,91.48h0a.14.14,0,0,1-.14-.14V87.6a.14.14,0,1,1,.28,0v3.6h1.92a.14.14,0,1,1,0,.28Z" style="fill:#ebebeb"></path><path d="M365.49,88.8v2.54a.14.14,0,0,1-.14.14.14.14,0,0,1-.14-.14v-.42a1.29,1.29,0,0,1-1,.56,1.41,1.41,0,0,1,0-2.81,1.28,1.28,0,0,1,1,.55V88.8a.13.13,0,0,1,.14-.13A.13.13,0,0,1,365.49,88.8Zm-.28,1.27a1.06,1.06,0,1,0-1,1.13A1.09,1.09,0,0,0,365.21,90.07Z" style="fill:#ebebeb"></path><path d="M366.63,88.8a.13.13,0,0,1,.13-.13.13.13,0,0,1,.14.13v1.53a.87.87,0,0,0,1.73,0V88.8a.09.09,0,0,1,0-.07v0h0l.06,0h.06l.07,0s0,0,0,0a.14.14,0,0,1,0,.06v2.46a1.33,1.33,0,0,1-1.34,1.32,1.45,1.45,0,0,1-.58-.14.14.14,0,0,1,.12-.25,1.05,1.05,0,0,0,1.52-.93v-.19a1.16,1.16,0,0,1-.87.4,1.14,1.14,0,0,1-1.13-1.14Z" style="fill:#ebebeb"></path><path d="M369.86,90.08a1.39,1.39,0,0,1,1.37-1.41A1.37,1.37,0,0,1,372.58,90h0v0a.12.12,0,0,1-.13.12h-2.31a1.1,1.1,0,0,0,1.09,1.08,1.06,1.06,0,0,0,.91-.51.12.12,0,0,1,.18,0,.14.14,0,0,1,.05.19,1.34,1.34,0,0,1-1.14.64A1.39,1.39,0,0,1,369.86,90.08Zm.3-.23h2.13a1.08,1.08,0,0,0-2.13,0Z" style="fill:#ebebeb"></path><path d="M373.44,88.81a.14.14,0,0,1,.14-.14.14.14,0,0,1,.14.14v.62a.25.25,0,0,1,0-.07,1.35,1.35,0,0,1,1.12-.69.14.14,0,0,1,.14.14.14.14,0,0,1-.14.14,1,1,0,0,0-.81.46,2.55,2.55,0,0,0-.34.65.11.11,0,0,0,0,0v1.23a.14.14,0,0,1-.14.14.14.14,0,0,1-.14-.14Z" style="fill:#ebebeb"></path><path d="M379.89,87.71l-1,1.07a1.27,1.27,0,0,1,.69.37,1.32,1.32,0,0,1,.4,1,1.36,1.36,0,0,1-.4,1,1.41,1.41,0,0,1-1,.4,1.36,1.36,0,0,1-1-.4.15.15,0,0,1,0-.2.15.15,0,0,1,.21,0,1.1,1.1,0,0,0,.75.31,1.14,1.14,0,0,0,.77-.31,1.1,1.1,0,0,0,.31-.77A1.06,1.06,0,0,0,378.58,89a.14.14,0,0,1-.12-.06h0a.15.15,0,0,1,0-.21l1-1h-1.54a.15.15,0,0,1-.14-.15.14.14,0,0,1,.14-.14h1.88a.14.14,0,0,1,.14.14.14.14,0,0,1,0,.07A.05.05,0,0,1,379.89,87.71Z" style="fill:#ebebeb"></path><rect x="354.25" y="78.02" width="1.8" height="6.83" style="fill:#455a64"></rect><rect x="354.25" y="85.88" width="1.8" height="6.83" style="fill:#263238"></rect><rect x="354.25" y="69.8" width="1.8" height="6.83" style="fill:#79C7D9"></rect><rect x="336.48" y="96.94" width="10.57" height="0.24" style="fill:#ebebeb"></rect><rect x="347.36" y="72.79" width="3.66" height="3.08" style="fill:#ebebeb"></rect><path d="M350.58,73.13h-.43v-.81c0-.89-.31-1.34-.93-1.34-1,0-1,1.19-1,1.24v.91h-.42v-.91a1.51,1.51,0,0,1,1.44-1.67c.88,0,1.36.63,1.36,1.77Z" style="fill:#ebebeb"></path><path d="M387.24,75.08a1.87,1.87,0,1,1,1.87-1.87A1.88,1.88,0,0,1,387.24,75.08Zm0-3.5a1.63,1.63,0,1,0,1.63,1.63A1.64,1.64,0,0,0,387.24,71.58Z" style="fill:#ebebeb"></path><path d="M387.24,83.3a1.87,1.87,0,1,1,1.87-1.87A1.88,1.88,0,0,1,387.24,83.3Zm0-3.5a1.63,1.63,0,1,0,1.63,1.63A1.64,1.64,0,0,0,387.24,79.8Z" style="fill:#ebebeb"></path><path d="M387.24,91.53a1.88,1.88,0,1,1,1.87-1.88A1.88,1.88,0,0,1,387.24,91.53Zm0-3.51a1.64,1.64,0,1,0,1.63,1.63A1.65,1.65,0,0,0,387.24,88Z" style="fill:#ebebeb"></path></g><g id="freepik--Character--inject-5"><polygon points="281.72 311.43 279.14 326.94 261.62 421.55 258.79 421.55 271.53 326.94 273.42 311.43 281.72 311.43" style="fill:#c7c7c7"></polygon><polygon points="273.42 311.43 281.72 311.43 279.14 326.94 271.53 326.94 273.42 311.43" style="fill:#a6a6a6"></polygon><polygon points="336.74 421.55 333.91 421.55 316.39 326.94 313.81 311.43 322.12 311.43 324 326.94 336.74 421.55" style="fill:#c7c7c7"></polygon><polygon points="322.12 311.43 324 326.94 316.39 326.94 313.81 311.43 322.12 311.43" style="fill:#a6a6a6"></polygon><polygon points="389.28 421.55 386.46 421.55 368.94 326.94 366.36 311.43 374.66 311.43 376.54 326.94 389.28 421.55" style="fill:#c7c7c7"></polygon><polygon points="376.54 326.94 368.94 326.94 366.36 311.43 374.66 311.43 376.54 326.94" style="fill:#a6a6a6"></polygon><polygon points="384.81 318.72 256.43 318.72 256.43 305.19 304.49 305.19 320.64 191.22 379.91 191.22 384.81 318.72" style="fill:#c7c7c7"></polygon><polygon points="377.33 305.19 256.43 305.19 256.43 318.72 377.81 318.72 377.33 305.19" style="fill:#dbdbdb"></polygon><polygon points="384.81 318.72 377.81 318.72 373.25 191.22 379.91 191.22 384.81 318.72" style="fill:#dbdbdb"></polygon><path d="M254.22,439.24c2.48.24,70.15-15.95,72.28-18.15.26-.25-1.08-6.4-3-14.78l0-.17c-1.22-5.31-21-48.31-21-48.31l-43.86,12.28,20,39.89s-8.25,6-15.32,11.63c0,0,0,0,0,0-4.37,3.48-8.13,6.6-8.93,7.61C252.21,431.92,251.74,439,254.22,439.24Z" style="fill:#d3766a"></path><path d="M254.22,439.24c2.48.24,70.15-16,72.28-18.15.26-.25-1.08-6.39-3-14.78l0-.16c-.45-2-3.49-9.21-7.12-17.49-7.21,1.95-33.09,9-42.48,11.88l4.73,9.46s-8.25,6-15.33,11.63v0c-4.36,3.48-8.13,6.61-8.93,7.62C252.21,431.92,251.73,439,254.22,439.24Z" style="fill:#fff"></path><path d="M254,439.56c2.55.22,70.27-16.15,72.45-18.41.84-.85-.67-11.54-4.39-22.86L278.42,408.9S256.14,426.57,254,429.31,251.44,439.34,254,439.56Z" style="fill:#79C7D9"></path><path d="M254.31,436.62c11.29-3,57.08-14.15,68.46-16.29.1,0,.11.05,0,.07-11.12,3.25-57,14-68.43,16.41C254.12,436.86,254.07,436.68,254.31,436.62Z" style="fill:#263238"></path><path d="M257.77,425.82a9.37,9.37,0,0,1,7.46,1.13,9.07,9.07,0,0,1,4,5.44c0,.07-.11.1-.14,0A10.84,10.84,0,0,0,257.81,426C257.71,426,257.68,425.84,257.77,425.82Z" style="fill:#263238"></path><path d="M275.13,410.9c4.53-1.16,10.18-.83,13.91,2.2.14.12,0,.32-.18.29a64.34,64.34,0,0,0-13.67-1.91A.3.3,0,0,1,275.13,410.9Z" style="fill:#263238"></path><path d="M272,413.12c4.53-1.16,10.19-.83,13.91,2.2.14.12,0,.32-.18.28A64.23,64.23,0,0,0,272,413.7.3.3,0,0,1,272,413.12Z" style="fill:#263238"></path><path d="M268.78,415.33c4.53-1.16,10.18-.83,13.9,2.2.15.12,0,.32-.17.29a64.34,64.34,0,0,0-13.68-1.91A.29.29,0,0,1,268.78,415.33Z" style="fill:#263238"></path><path d="M265.6,417.55c4.53-1.16,10.18-.83,13.91,2.2.14.12,0,.32-.18.28a64.88,64.88,0,0,0-13.67-1.9A.3.3,0,0,1,265.6,417.55Z" style="fill:#263238"></path><path d="M317.28,410.25c5.1-1.22,7,6.71,1.89,7.93S312.17,411.47,317.28,410.25Z" style="fill:#263238"></path><path d="M269.26,406.54c3.22,2.57,7.44,3.66,11.21,5.11a.57.57,0,0,0,.73-.56c.08,0,.14-.07.11-.17a24.56,24.56,0,0,0-6.94-10.62c-1.89-1.63-5.24-2.8-7.08-.33S267.38,405,269.26,406.54Zm-1.12-3.71c-.74-5.06,4.64-2.34,6-1.08a27.69,27.69,0,0,1,2.4,2.67c1.56,1.93,2.83,4,4.19,6.11-1.82-.83-3.68-1.5-5.52-2.26C273,407.37,268.55,405.61,268.14,402.83Z" style="fill:#263238"></path><path d="M296.74,404.12c-1.07-2.88-4.61-2.7-6.89-1.66a24.57,24.57,0,0,0-9.64,8.24.12.12,0,0,0,.06.19.57.57,0,0,0,.54.75c4-.34,8.39-.2,12.2-1.76C295.23,409,297.76,406.85,296.74,404.12Zm-9.92,5.76c-2,.21-4,.33-5.93.61a73.79,73.79,0,0,1,5.74-4.69,25.75,25.75,0,0,1,3.05-1.88c1.65-.83,7.57-1.93,5.44,2.71C294,409.19,289.18,409.62,286.82,409.88Z" style="fill:#263238"></path><path d="M273.59,406.35l47-14.09s-38.73-80.71-37.51-84.82c.82-2.74,58.89-2.93,75.91-18.21,17.61-15.82,3.89-46.89,3.89-46.89L314,242.09s.84,10.19-1,11.78c-1.23,1-68,6.93-80.76,31.47C220.66,307.61,273.59,406.35,273.59,406.35Z" style="fill:#263238"></path><path d="M283.06,307.44c-.21.69.73,3.59,2.45,7.93l-35.09,43.11c-12.51-28.53-24.27-61.42-18.16-73.14C245,260.8,311.78,254.92,313,253.87c1.86-1.58,1-11.78,1-11.78l31,.16-51.5,63.26C287.33,306.19,283.27,306.72,283.06,307.44Z" style="fill:#263238"></path><path d="M272.42,396.41a28.89,28.89,0,0,1,3.83-1.43c1.35-.46,2.71-.92,4.07-1.36,2.68-.86,5.38-1.69,8.09-2.45,5.45-1.55,10.92-3.06,16.41-4.46,2.87-.72,9-2.31,9.39-2.25.18,0,.22.33.06.39-5.31,1.9-10.71,3.53-16.1,5.17s-10.77,3.27-16.23,4.64c-1.51.39-3,.72-4.55,1.09a34.59,34.59,0,0,1-4.83,1C272.4,396.8,272.25,396.5,272.42,396.41Z" style="fill:#455a64"></path><path d="M360.24,251.64c-.15-1.63-.33-3.25-.52-4.88,0-.19-.31-.19-.29,0,.65,6.6,1.32,13.36.1,19.94a28.39,28.39,0,0,1-8.72,15.8c-9.68,9-23.23,11.69-35.85,13.84-7.22,1.23-14.49,2.17-21.79,2.89-3.58.35-7.16.63-10.74.86s-7.11.25-10.66.45c-1.12.06-2.12.58-1.95,1.86a9.23,9.23,0,0,0,.85,2.24l1.15,2.59q2.13,4.83,4.3,9.66,4.45,9.94,9,19.83,9.1,19.63,18.88,38.94l2.43,4.79c.06.1.21,0,.16-.1q-9.35-19.55-18.46-39.21c-3-6.51-6-13-9-19.53l-4.44-9.79c-.73-1.64-1.47-3.27-2.2-4.91-.36-.81-.73-1.63-1.09-2.45s-1.41-2.31-.65-3c.51-.42,1.57-.28,2.18-.29l2.83-.1c1.8-.06,3.59-.13,5.38-.22q5.44-.27,10.89-.74c7.09-.62,14.17-1.52,21.2-2.65,12.54-2,26.18-4.29,36.21-12.71a30.11,30.11,0,0,0,9.63-14C361,264.6,360.83,258,360.24,251.64Z" style="fill:#455a64"></path><path d="M151,377.38c1.77,1.76,64.21,32.45,67.25,32.11.36,0,3.25-5.61,7.09-13.32l.07-.15c2.45-4.88,24.67-45.91,24.67-45.91l-38.85-19.67-22.84,39.93s-10.16-.66-19.22-.81h0c-5.58-.11-10.47-.1-11.73.17C154.11,370.46,149.21,375.63,151,377.38Z" style="fill:#d3766a"></path><path d="M151,377.38c1.77,1.76,64.21,32.45,67.26,32.11.35,0,3.24-5.61,7.08-13.32l.07-.15.53-1c.12-.25.25-.49.39-.74l.58-1.1c1.7-3.21,4.48-8.4,7.53-14.08l-39.61-20-6.44,11.26s-10.16-.66-19.22-.81h0c-5.58-.1-10.48-.1-11.73.17C154.11,370.46,149.2,375.63,151,377.38Z" style="fill:#fff"></path><path d="M150.6,377.49c1.83,1.8,64.43,32.36,67.56,32,1.18-.12,6.84-9.32,11.19-20.41L189,369.44s-28.43-.59-31.82.15S148.77,375.69,150.6,377.49Z" style="fill:#79C7D9"></path><path d="M152.72,375.42c10.62,4.87,53,25.5,63.13,31.12.08,0,.05.1,0,.06C205.18,402,163,381,152.64,375.59,152.42,375.48,152.5,375.32,152.72,375.42Z" style="fill:#263238"></path><path d="M162.28,369.31a9.39,9.39,0,0,1,5,5.62,9.17,9.17,0,0,1-.39,6.75.07.07,0,0,1-.13-.06,10.84,10.84,0,0,0-4.57-12.18C162.14,369.39,162.19,369.27,162.28,369.31Z" style="fill:#263238"></path><path d="M185.16,368.89c4.23,2,8.38,5.85,9.31,10.56,0,.18-.22.23-.32.11a64.28,64.28,0,0,0-9.31-10.19A.29.29,0,0,1,185.16,368.89Z" style="fill:#263238"></path><path d="M181.3,368.57c4.23,2,8.38,5.85,9.31,10.56,0,.18-.22.23-.32.11A64.71,64.71,0,0,0,181,369.05.29.29,0,0,1,181.3,368.57Z" style="fill:#263238"></path><path d="M177.44,368.25c4.23,2,8.38,5.85,9.31,10.56,0,.18-.22.23-.32.11a64.23,64.23,0,0,0-9.31-10.19A.29.29,0,0,1,177.44,368.25Z" style="fill:#263238"></path><path d="M173.58,367.93c4.23,2,8.38,5.85,9.31,10.56,0,.18-.22.23-.32.11a64.67,64.67,0,0,0-9.31-10.19A.29.29,0,0,1,173.58,367.93Z" style="fill:#263238"></path><path d="M218,395.26c4.7,2.32,1.12,9.63-3.6,7.32S213.33,392.94,218,395.26Z" style="fill:#263238"></path><path d="M183.43,361.78c.83,4,3.39,7.56,5.37,11.09a.57.57,0,0,0,.92,0,.12.12,0,0,0,.19-.06,24.6,24.6,0,0,0,1.43-12.6c-.42-2.47-2.26-5.5-5.24-4.78C183.27,356.15,182.94,359.43,183.43,361.78Zm1.5-3.57c2.65-4.37,5.06,1.16,5.29,3a26.8,26.8,0,0,1,.15,3.58,72.77,72.77,0,0,1-.67,7.38c-.87-1.79-1.88-3.49-2.81-5.25C185.78,364.81,183.47,360.62,184.93,358.21Z" style="fill:#263238"></path><path d="M206.13,377.45c1-2.9-1.83-5-4.24-5.68a24.6,24.6,0,0,0-12.69.2.13.13,0,0,0-.07.19.57.57,0,0,0-.06.92c3.32,2.31,6.58,5.19,10.51,6.42C201.88,380.21,205.18,380.19,206.13,377.45Zm-11.31-1.9c-1.66-1.1-3.26-2.27-5-3.3a70.45,70.45,0,0,1,7.41,0,25.07,25.07,0,0,1,3.55.5c1.8.41,7.07,3.34,2.47,5.55C200.75,379.57,196.8,376.86,194.82,375.55Z" style="fill:#263238"></path><path d="M188.57,363.91l46.85,23.41S272,313,276,308.19c5.35-6.39,75,2.63,91.44-18,17-21.33,2.43-47.82,2.43-47.82l-53,0s-.16,5.88,2.9,14.48c0,0-60.63-3.61-77.79,13.06C228.78,282.7,188.57,363.91,188.57,363.91Z" style="fill:#263238"></path><path d="M329.4,262.18A89.69,89.69,0,0,0,321,257a34.42,34.42,0,0,0-6.38-2.59c-1.55-.37-2.23-.48-.78.2l3.9,1.85c-.28,0-.55,0-.82,0-1,0-2.08-.09-3.13-.11-2-.06-4.08,0-6.11-.06-4.14,0-8.24.37-12.37.58-.1,0-.1.17,0,.17,4.12-.14,8.25.08,12.38.07,2,0,4.07.05,6.11.08l3,.06a23.91,23.91,0,0,0,2.54,0l1.13.54c3,1.41,6,2.89,8.88,4.52C329.39,262.35,329.48,262.24,329.4,262.18Z" style="fill:#455a64"></path><path d="M315.58,240.36c.54,2.51,1,5,1.63,7.51.29,1.14.57,2.29,1,3.4.33.94.84,2,1.9,2.25,1.23.28,1.61-.76,1.55-1.78s-.33-2.29-.52-3.41c-.21-1.3-.43-2.6-.62-3.9-.09-.65-.2-1.3-.28-2,0-.16-.1-1.41-.18-1.76a.07.07,0,0,1-.07.05h0a.08.08,0,0,1-.08-.07c0-.09,0-.11.07-.18a.08.08,0,0,1,.11,0c.24.13.24.46.31.7.18.63.36,1.26.52,1.9.31,1.2.6,2.4.86,3.6s.52,2.41.77,3.62a5.62,5.62,0,0,1,.15,2.76,2.12,2.12,0,0,1-2,1.53l.12.24c.1.25.17.51.25.77a7.67,7.67,0,0,1,.23.78,2.63,2.63,0,0,1,.06.39c0,.14,0,.28,0,.43a.21.21,0,0,1-.39.12c-.06-.13-.15-.23-.22-.35a2,2,0,0,1-.16-.43c-.08-.25-.14-.5-.2-.75s-.12-.51-.16-.77,0-.3,0-.45a2.81,2.81,0,0,1-1.41-.6,4.78,4.78,0,0,1-1.41-2.31c-.34-1.05-.59-2.13-.84-3.2a45.56,45.56,0,0,1-1.32-8C315.12,240.16,315.52,240.07,315.58,240.36Z" style="fill:#455a64"></path><path d="M341.15,247.49c.18,1.24.28,2.48.52,3.71s.53,2.41.88,3.59A12.51,12.51,0,0,0,344,258a12.1,12.1,0,0,0,2.32,2.53A20.56,20.56,0,0,0,352,264a29.24,29.24,0,0,0,3.2,1.06c.57.14,1.15.26,1.72.36a3.68,3.68,0,0,1,1.39.37.28.28,0,0,1-.05.48,5,5,0,0,1-2.58,0,18.13,18.13,0,0,1-2.73-.57,20.1,20.1,0,0,1-5.13-2.37,16.65,16.65,0,0,1-4.23-3.7,12.56,12.56,0,0,1-2.16-5.18,25.37,25.37,0,0,1-.52-6.95A.12.12,0,0,1,341.15,247.49Z" style="fill:#455a64"></path><path d="M198.08,355.39a28.81,28.81,0,0,1,3.76,1.59c1.3.6,2.61,1.19,3.9,1.81q3.81,1.81,7.56,3.76c5,2.63,10,5.28,15,8,2.59,1.43,8.14,4.49,8.38,4.8.11.14-.07.39-.23.32-5.17-2.26-10.21-4.78-15.25-7.29s-10.08-5-15-7.77c-1.36-.76-2.69-1.56-4.05-2.33a34.93,34.93,0,0,1-4.22-2.57C197.8,355.66,197.89,355.33,198.08,355.39Z" style="fill:#455a64"></path><path d="M369.82,254.71a.18.18,0,0,0-.35,0c.1,11.51-1.68,24.38-10.54,32.64-9.72,9.06-23.73,10.14-36.35,10-7.24-.06-14.47-.25-21.71,0s-14.62.59-21.84,1.52a11.92,11.92,0,0,0-7.42,3.54,38,38,0,0,0-4.91,7.07q-5.47,9-10.59,18.3-10.17,18.39-18.83,37.55-1.08,2.38-2.13,4.77c-.05.1.11.19.15.08q8.8-19.21,18.94-37.78,5.06-9.29,10.44-18.39c1.69-2.84,3.33-5.76,5.21-8.49,1.67-2.41,3.75-4.67,6.64-5.55a27.16,27.16,0,0,1,5.39-.78q2.77-.25,5.56-.46c3.6-.26,7.22-.46,10.84-.59,7.3-.27,14.58-.18,21.89-.05,12.67.23,26.52-.2,37-8.27A29.88,29.88,0,0,0,367,276.2a53.7,53.7,0,0,0,2.83-17.14C369.86,257.61,369.85,256.16,369.82,254.71Z" style="fill:#455a64"></path><path d="M293.94,305.14c-2.59,0-5.17.15-7.75.24a30.62,30.62,0,0,0-6.42.57c-2,.49-3.51.72-5.11,2.91-2,2.73-12.89,23.76-17.46,33.07q-1.9,3.87-3.75,7.77c-1.26,2.69-2.39,5.44-3.65,8.13-.05.09.1.18.15.08,1.12-2.25,2.36-4.44,3.52-6.66s2.28-4.48,3.4-6.73q3.4-6.81,6.82-13.61c2.26-4.5,5-8.88,7.3-13.35,1.93-3.76,4.57-8.9,6.4-9.66a30.54,30.54,0,0,1,8-1.94c2.85-.2,5.7-.38,8.55-.62A.1.1,0,0,0,293.94,305.14Z" style="fill:#455a64"></path><path d="M350.93,170.41c2.43,9.62,7,20.75,4.74,30.78-1.75,7.86-7.53,14.1-13.91,18.65-14,10-35.48,15.34-49.45,2.24-5.57-5.24-8.93-17.84-2.73-24,3.19-3.15,7.45-4.6,11.38-6.58a18.07,18.07,0,0,0,10-12.12c2.92-11,.43-18.05-.83-29a7.81,7.81,0,0,1,1.46-6.19,20.81,20.81,0,0,1,12-7.28c4.87-.48,10.35,3,14.6,4.95s6.61,4.56,7.86,9.18C347.74,157.48,349.29,164,350.93,170.41Z" style="fill:#263238"></path><path d="M353.07,174.74c-2.8-8.67-5.76-17.26-8.67-25.89,0,0-.1,0-.09,0,2.19,7.17,4.28,14.35,6.56,21.5,2.24,7,5,14,6.63,21.21,3.63,16.09-11.64,26.08-25.54,28.12-.63.09-.41,1.09.22,1,12.15-2.17,25.73-9.26,26.68-23.14C359.38,189.94,355.35,181.83,353.07,174.74Z" style="fill:#263238"></path><path d="M310.72,149.39a.13.13,0,0,0-.26.06c1.42,9,3.92,19.29.45,28.07a23,23,0,0,1-8.55,10.62c-3.05,2.05-6.57,2.89-9.92,4.3-13.09,5.48-9.43,23.93,2,29.08.23.1.43-.3.19-.42-8.12-4.13-12.49-13.76-8.33-22.35,3.34-6.9,12.5-6.81,18.07-11.3C315.86,178.14,313.65,162.24,310.72,149.39Z" style="fill:#263238"></path><path d="M334.88,185.66c-6,13-26.54,43.12-36.44,44.49-8.75,1.21-30.41-3.82-37.71-7.83-3.36-1.84,5.08-26.71,10.72-25.53,7,1.48,16.56,5,23.09,5.36,2.31.14,13.43-7.8,33-20.7C334.84,176.65,338.26,178.35,334.88,185.66Z" style="fill:#d3766a"></path><path d="M260.11,199.89s-17.42-2.69-18.32-2.53-.71,1.45-.6,2.46a10.29,10.29,0,0,0,.76,1.68c1.31,2.58,3.53,7.21,0,8.26-4.62,1.37-9.6-9-10.13-10.75a5.77,5.77,0,0,1,.14-2.4c.63-2.85,2.6-7,6-8.06,4.6-1.47,9.85-.83,14.45-.6Z" style="fill:#d3766a"></path><path d="M260.11,199.89s-17.42-2.69-18.32-2.53-.71,1.45-.6,2.46a10.29,10.29,0,0,0,.76,1.68c-3.56-1.73-7.48-3.65-10-4.89.63-2.85,2.6-7,6-8.06,4.6-1.47,9.85-.83,14.45-.6Z" style="fill:#263238"></path><path d="M260.73,222.32c-.91-.49-5.6-1.87-11.93-4.06-1.7-4.9-6.23-14.24-7.42-16.72-.85-3-4.37-8.88-4.65-8.75-.51.25-2.32,1.13-4.61,2-3,1.17-6.87,2.38-9.62,2.2a3.52,3.52,0,0,1-3.21-1.72c-1-2,3.35-4.37,8.25-7.6,6.67-4.41,15.1-9.46,19.22-8.24,6.1,1.79,12.11,9.25,14.16,11.26s10.53,6.08,10.53,6.08C269.71,205.94,262,223,260.73,222.32Z" style="fill:#d3766a"></path><path d="M240.69,199.68c-.08-.12-.15-.06-.09.09.17.48.93,2.63.46,2.87-.82.4-5.69-2.23-7.93-3-.12,0-.19.13-.07.16a35.54,35.54,0,0,1,3.29,1.57c1,.51,4,2.29,5.06,1.78C242.1,202.83,241,200.16,240.69,199.68Z" style="fill:#263238"></path><path d="M216.81,211.4c-.61.59-1.27,1.06-1.56.79h0c-.26-.29.24-.94.84-1.53Z" style="fill:#263238"></path><path d="M223.78,210.57c-.63.62-5.4,1.11-7.17,1a.87.87,0,0,1-.73-.74c0-1.74.57-6.53,1.2-7.15.43-.42,2.41-1.45,4.35-2.66,2.53-1.56,29.69-26.74,30.14-26.86s1.26.55,1.66,1,1.07,1.26.94,1.7-26,27-27.62,29.45C225.29,208.2,224.21,210.16,223.78,210.57Z" style="fill:#37474f"></path><path d="M223.78,210.58a.66.66,0,0,1-.24.14,22.64,22.64,0,0,1-4.11-3.3,15.15,15.15,0,0,1-2.54-3.38.76.76,0,0,1,.19-.34,2,2,0,0,1,.31-.24c.57,1.17,2.32,4,6.66,6.78A2.49,2.49,0,0,1,223.78,210.58Z" style="fill:#a6a6a6"></path><rect x="226.7" y="194.01" width="1.98" height="12.1" rx="0.73" transform="translate(212.04 -102.63) rotate(45.74)" style="fill:#263238"></rect><rect x="225.92" y="197.39" width="1.15" height="7.68" rx="0.43" transform="translate(212.46 -101.42) rotate(45.73)" style="fill:#a6a6a6"></rect><rect x="225.51" y="201.45" width="0.34" height="1.15" transform="translate(-76.94 214.84) rotate(-44.26)" style="fill:#263238"></rect><path d="M248.8,218.26c-2.17-.75-4.1-1.39-5.43-1.78a16.38,16.38,0,0,1-9.72-7.19c-2.08-3.06-12.73-6.34-7.55-9.56s14.46,4.66,15.36,3.3a2.1,2.1,0,0,0-.08-1.49C242.57,204,247.1,213.36,248.8,218.26Z" style="fill:#d3766a"></path><path d="M305.07,193.5l21.53,8.63s6.8-9.47,9.82-15.25c4-7.64,2.1-10.91-7.75-7.09C322.07,182.35,305.07,193.5,305.07,193.5Z" style="fill:#79C7D9"></path><path d="M324,201.08a27.76,27.76,0,0,1,2.63,1c.78-1.13,1.53-2.28,2.32-3.4.39-.57.79-1.12,1.2-1.67s.93-1.32,1.33-1.86c.07-.08.18,0,.12.08-.45.75-.8,1.29-1.2,1.94s-.72,1.14-1.09,1.7c-.8,1.19-1.6,2.49-2.45,3.63a23.5,23.5,0,0,1-2.89-1.31A0,0,0,0,1,324,201.08Z" style="fill:#263238"></path><path d="M308.07,192.33c3.22,1,6.42,2.12,9.58,3.35q2.36.91,4.69,1.91c1.55.65,3,1.47,4.6,2.11.08,0,0,.17-.06.13-1.53-.71-3.16-1.23-4.72-1.86l-4.7-1.88c-3.14-1.23-6.28-2.47-9.45-3.63C307.92,192.43,308,192.3,308.07,192.33Z" style="fill:#263238"></path><path d="M312.26,244.81l61.16,4.94s-15.65-53.36-28.26-66.83c-5.74-6.13-11.34-5.2-16.1-1.25-1.18,1-15.88,19.64-17.13,26.14-1.1,5.75,3.57,12.13,3.57,12.13Z" style="fill:#79C7D9"></path><path d="M321.31,191.56c-1.84,2.94-3.84,5.77-5.7,8.7a41.29,41.29,0,0,0-2.58,4.46,11.49,11.49,0,0,0-1.26,4.95,8.81,8.81,0,0,1,.09-2.61,12.2,12.2,0,0,1,.79-2.51,34,34,0,0,1,2.51-4.59c.88-1.33,1.78-2.66,2.72-3.94.15-.46.34-.91.51-1.36a16.76,16.76,0,0,1,1-1.89,14.29,14.29,0,0,1-.71,2l-.24.55Q319.81,193.39,321.31,191.56Z" style="fill:#263238"></path><path d="M361.24,214a41.07,41.07,0,0,1-7.45,2.35,7.91,7.91,0,0,1-2.28.09,3.53,3.53,0,0,1-2.08-.92,7.29,7.29,0,0,1-1.77-4.15,52.76,52.76,0,0,1-.43-5.31,2.11,2.11,0,0,0,0-.26c0-1.16-.11-2.32-.23-3.47a23.55,23.55,0,0,0-.8-4.42,10.79,10.79,0,0,0-2-4,8.19,8.19,0,0,0-3.59-2.55,12.23,12.23,0,0,0-4.42-.56,39,39,0,0,0-6.16.83l-.22,0-2.54.54c-2.43.51-4.86,1-7.34,1.32.05-.07.1-.14.14-.21,2.41-.28,4.78-.8,7.16-1.31l2.65-.56.21,0a36.58,36.58,0,0,1,6.09-.84,12.77,12.77,0,0,1,4.51.56,8.56,8.56,0,0,1,3.71,2.62,11.09,11.09,0,0,1,2.05,4.05,23.55,23.55,0,0,1,.8,4.47c.11,1.09.17,2.18.22,3.27,0,.09,0,.18,0,.26a52.74,52.74,0,0,0,.42,5.49,7.07,7.07,0,0,0,1.7,4c1.08,1.06,2.75,1,4.19.79a41.39,41.39,0,0,0,7.42-2.31ZM325,240.12a7.2,7.2,0,0,0-4-2.16,3.52,3.52,0,0,0-2.21.57,8.21,8.21,0,0,0-1.73,1.49,32.54,32.54,0,0,0-3.45,4.9l.2,0a32.34,32.34,0,0,1,3.39-4.79c1-1.08,2.28-2.15,3.78-2a7,7,0,0,1,3.84,2.11c2,1.85,3.64,4,5.49,6l.35,0C328.77,244.27,327.05,242,325,240.12Zm42.62-8.52-.64.05a14.61,14.61,0,0,0-8,4.06,59.56,59.56,0,0,0-6.1,6.7c-1.51,1.81-3,3.65-4.67,5.3l.29,0c1.63-1.64,3.07-3.43,4.54-5.2a61.17,61.17,0,0,1,6.06-6.69,14.5,14.5,0,0,1,7.88-4l.69-.05Zm-11.95-30.91a15,15,0,0,0-7.5,4.18c-.25.23-.49.47-.73.71l-.22.22c-1.8,1.85-3.4,3.89-5,5.9-1.46,1.84-2.9,3.7-4.53,5.39l-.19.19c-.39.41-.81.81-1.24,1.2a12.39,12.39,0,0,1-3.76,2.39,8.3,8.3,0,0,1-4.39.34,11.08,11.08,0,0,1-4.08-1.77,23.11,23.11,0,0,1-3.44-2.89c-2.16-2.1-4-4.49-6.3-6.51a10.21,10.21,0,0,0-2.44-1.66l0,.22a9.4,9.4,0,0,1,2.34,1.59c2.24,2,4.11,4.4,6.26,6.53a23.72,23.72,0,0,0,3.48,2.92,11,11,0,0,0,4.17,1.81,8.49,8.49,0,0,0,4.52-.35,12.48,12.48,0,0,0,3.82-2.45c.47-.43.93-.87,1.36-1.32l.19-.19c1.59-1.68,3-3.51,4.43-5.31a72.54,72.54,0,0,1,4.85-5.77,2.28,2.28,0,0,1,.22-.22c.27-.28.55-.56.84-.83a14.73,14.73,0,0,1,7.43-4.16Zm-6.48,20.05a7.27,7.27,0,0,0-3.92-2.22c-2.41-.65-4.88-.94-7.31-1.38l-.27,0-1.32-.27a23.8,23.8,0,0,1-4.31-1.3,11,11,0,0,1-3.71-2.45,8.27,8.27,0,0,1-2.12-3.86,12.37,12.37,0,0,1-.05-4.46,53.12,53.12,0,0,1,2.41-8.69c.48-1.45,1-2.91,1.41-4.39l.06-.22a38.42,38.42,0,0,0,1-4.11,16.39,16.39,0,0,0-.09-7l-.15.09a16.26,16.26,0,0,1,.05,6.91,39.93,39.93,0,0,1-1,4.19,1.42,1.42,0,0,0-.07.22c-.43,1.43-.91,2.86-1.39,4.28a54.58,54.58,0,0,0-2.44,8.73,12.6,12.6,0,0,0,.05,4.54,8.47,8.47,0,0,0,2.17,4,11.17,11.17,0,0,0,3.8,2.5,23.65,23.65,0,0,0,4.35,1.3c.39.09.79.17,1.18.24l.27.05c2.49.46,5,.74,7.44,1.39a7,7,0,0,1,3.82,2.14c.93,1.2.71,2.86.31,4.26a49.75,49.75,0,0,1-3.71,8.23,55.15,55.15,0,0,0-3.69,8.27,13.81,13.81,0,0,0-.73,4.46,7.91,7.91,0,0,0,.11,1.08h.14a6.61,6.61,0,0,1-.12-1.09,13.62,13.62,0,0,1,.74-4.42,55.78,55.78,0,0,1,3.7-8.24,50.63,50.63,0,0,0,3.74-8.25,8.14,8.14,0,0,0,.36-2.25A3.56,3.56,0,0,0,349.18,220.74Z" style="fill:#fff"></path><path d="M331.91,218.65a46.84,46.84,0,0,0-7.08.74c-1.16.22-2.3.5-3.44.8-.57.15-1.14.28-1.71.41a8.06,8.06,0,0,1-1.83.24c-.05,0-.06.08,0,.08a12.6,12.6,0,0,0,1.74.07,12.05,12.05,0,0,0,1.68-.21c1.17-.22,2.34-.49,3.52-.72,2.37-.46,4.74-.93,7.14-1.22A.1.1,0,0,0,331.91,218.65Z" style="fill:#263238"></path><path d="M337.63,221.08a52.09,52.09,0,0,0-5.84-.62c-1-.05-2,0-2.94,0l-1.4.07c-.52,0-1,.14-1.54.17a0,0,0,1,0,0,.08c.48,0,1,.06,1.46.08l1.46,0,2.93.1c2,.05,3.91.12,5.86.23C337.73,221.25,337.73,221.1,337.63,221.08Z" style="fill:#263238"></path><path d="M337.15,180.12c.06,1.1-2.89,9.27-7.68,10.44-1.56.38-4-8.05-4-8.05l-.32-.58-4.52-8.13,8.29-9.58,1.22-1.31s1.09,2.31,2.42,5.2c.06.13.13.26.19.41s.16.31.22.46c.21.43.41.87.61,1.31s.3.66.44,1,.3.7.46,1.06A61.92,61.92,0,0,1,337.15,180.12Z" style="fill:#d3766a"></path><path d="M332.54,168.11a18.66,18.66,0,0,1-7.41,13.82l-4.52-8.13,8.29-9.58,1.22-1.31S331.21,165.22,332.54,168.11Z" style="fill:#263238"></path><path d="M305.33,161.52c.53,16.31,10.36,17.84,13.88,17.72,3.19-.1,14.06-.87,15.22-17.16s-6.6-21.2-13.91-21.34S304.8,145.2,305.33,161.52Z" style="fill:#d3766a"></path><path d="M307.54,158.62a8.34,8.34,0,0,0,1.09-.29,1.72,1.72,0,0,0,1.05-.51.57.57,0,0,0,0-.71,1.44,1.44,0,0,0-1.43-.25,2.13,2.13,0,0,0-1.29.82A.62.62,0,0,0,307.54,158.62Z" style="fill:#263238"></path><path d="M318.72,158a10.43,10.43,0,0,1-1.12-.17,1.82,1.82,0,0,1-1.1-.39.59.59,0,0,1,0-.71,1.45,1.45,0,0,1,1.4-.42,2.12,2.12,0,0,1,1.37.68A.62.62,0,0,1,318.72,158Z" style="fill:#263238"></path><path d="M316.35,162.12s.09,0,.09.1c0,1.11.19,2.38,1.2,2.72,0,0,0,.07,0,.06C316.4,164.87,316.17,163.18,316.35,162.12Z" style="fill:#263238"></path><path d="M317.31,160.93c1.78-.19,2,3.39.38,3.57S315.81,161.09,317.31,160.93Z" style="fill:#263238"></path><path d="M318,161.07c.33.18.66.52,1,.53s.74-.39,1-.77c0,0,.06,0,.07,0,.06.69-.16,1.41-.89,1.56s-1.18-.43-1.4-1.11C317.8,161.2,317.89,161,318,161.07Z" style="fill:#263238"></path><path d="M310.17,162.32s-.08.06-.08.11c.13,1.1.08,2.39-.89,2.83,0,0,0,.07,0,.07C310.42,165.06,310.46,163.35,310.17,162.32Z" style="fill:#263238"></path><path d="M309.09,161.24c-1.79,0-1.65,3.59,0,3.59S310.6,161.24,309.09,161.24Z" style="fill:#263238"></path><path d="M308.35,161.51c-.27.2-.54.55-.88.59s-.69-.34-1-.7c0,0-.05,0-.05,0,0,.69.26,1.39.92,1.5s1-.51,1.16-1.2C308.57,161.61,308.46,161.43,308.35,161.51Z" style="fill:#263238"></path><path d="M317.12,171.22c-.24.29-.46.67-.86.75a2.76,2.76,0,0,1-1.21-.14,0,0,0,0,0-.05.06,1.49,1.49,0,0,0,1.48.44,1.17,1.17,0,0,0,.75-1.08C317.24,171.19,317.15,171.17,317.12,171.22Z" style="fill:#263238"></path><path d="M312.72,169.66a4.55,4.55,0,0,0,1.81,1.41,2,2,0,0,0,1.24.08c.89-.23.92-1.05.76-1.76a4.8,4.8,0,0,0-.4-1.07A5.85,5.85,0,0,1,312.72,169.66Z" style="fill:#263238"></path><path d="M314.53,171.07a2,2,0,0,0,1.24.08c.89-.23.92-1.05.76-1.76A2.12,2.12,0,0,0,314.53,171.07Z" style="fill:#ff9cbd"></path><path d="M312.24,167.48s-.13,1.67-.08,2.45c0,.07.19.1.46.1h0a3.72,3.72,0,0,0,3.53-1.59c.05-.08-.06-.16-.12-.11a5.6,5.6,0,0,1-3.34,1.17c-.07-.21.32-2.85.2-2.85a7.07,7.07,0,0,0-1.75.5c.17-3.48.9-6.92,1-10.39a.1.1,0,0,0-.2,0,56.45,56.45,0,0,0-1.59,11.15C310.36,168.31,311.94,167.63,312.24,167.48Z" style="fill:#263238"></path><path d="M333.26,163.38c-1.78-.11-6.38-5-6.49-13.58,0,0,.63,7.69,1.2,8.82s-2.57-2.76-2.75-9.67a27.91,27.91,0,0,1-7.11,3.65c-3.27.9-5.27.86-5.5.63s4.58-1.74,5.88-3.23c0,0-8.7,4-12.7,4.3-.46,0-1-9.5,5.22-13.51s16,.38,18.62,2.94c0,0,3.09.45,6.44,5S335.17,163.5,333.26,163.38Z" style="fill:#263238"></path><path d="M318.5,167.43a5.13,5.13,0,0,1-4.68-5.54h0a5.12,5.12,0,1,1,5.95,5.49A6,6,0,0,1,318.5,167.43Zm-4-5.48a4.44,4.44,0,1,0,4.8-4,4.55,4.55,0,0,0-1.11,0A4.45,4.45,0,0,0,314.5,162Z" style="fill:#79C7D9"></path><path d="M307.69,167.92c-2.1.11-3.92-2.11-4.06-4.93a6.11,6.11,0,0,1,.9-3.63,3.19,3.19,0,0,1,5.46-.26,6.07,6.07,0,0,1,1.26,3.52c.13,2.67-1.29,4.94-3.23,5.27A1.84,1.84,0,0,1,307.69,167.92Zm-2.58-8.18a5.43,5.43,0,0,0-.8,3.22c.12,2.44,1.62,4.36,3.35,4.28s3-2.14,2.91-4.59a5.5,5.5,0,0,0-1.11-3.13,2.73,2.73,0,0,0-2.24-1.15l-.26,0A2.83,2.83,0,0,0,305.11,159.74Z" style="fill:#79C7D9"></path><path d="M314,162.48l.41-.55c-.8-.61-2.64-1.4-3.83,0l.53.44C312.19,161.12,314,162.42,314,162.48Z" style="fill:#79C7D9"></path><path d="M336.89,162.68l.59-.35c-.16-.27-1.61-2.7-3.15-2.87s-10.57,1.15-11,1.2l.1.68c2.62-.38,9.67-1.33,10.78-1.2S336.5,162,336.89,162.68Z" style="fill:#79C7D9"></path><path d="M334.65,168.1a3.31,3.31,0,0,1-.73.28,2.64,2.64,0,0,1-.76.11,2.27,2.27,0,0,1-1-.19,2.77,2.77,0,0,1-.67-.4,3.09,3.09,0,0,1-.72-.84l.38-4.43s2.94-5.49,5.38-4.5S337.23,166.77,334.65,168.1Z" style="fill:#d3766a"></path><path d="M336,160.31s.06.05,0,.07c-1.8,1-2.58,2.86-3.06,4.76a1.52,1.52,0,0,1,2.21-.68c.05,0,0,.11,0,.11a1.67,1.67,0,0,0-1.78.81,7.88,7.88,0,0,0-.71,1.6c-.07.18-.39.13-.35-.07v0C332,164.46,333.44,160.86,336,160.31Z" style="fill:#263238"></path><path d="M334.35,167.44a.75.75,0,0,1-.82.69.75.75,0,1,1,.12-1.5A.75.75,0,0,1,334.35,167.44Z" style="fill:#fff"></path><path d="M335.75,166.12a.53.53,0,1,1-.49-.57A.52.52,0,0,1,335.75,166.12Z" style="fill:#fff"></path><path d="M348,185.84c11.12,17.23,25.75,46.06,17.79,51.59-13.1,9.09-49.46,12-57.78,12.32-3.59.14-8.83-23.66-6.21-26.47s40.73-1.87,41.18-4.18c.26-1.31-1.91-12.88-4.48-27.28C335.51,175.22,344.78,180.91,348,185.84Z" style="fill:#d3766a"></path><path d="M308.14,221.87s-10.88-1-18-1.26c-4-.16-10.85.16-13.83,1.38-4.46,1.83-22,12.3-19.52,16.6,2.22,3.89,16.11-7,16.11-7s-15,9.77-11.46,14S279,235.32,279,235.32s-15.18,10.38-10.86,14.13c3.27,2.83,16.74-9.5,16.74-9.5s-13,9-9.75,12.07c3.58,3.38,16.72-7.23,16.72-7.23,9.54,6.39,16.69,5.54,21.71,4.32C314.77,248.82,308.14,221.87,308.14,221.87Z" style="fill:#d3766a"></path><path d="M277.84,227.86c-1.8,1.09-3.63,2.17-5.33,3.41s-3.36,2.54-4.94,3.93a35.69,35.69,0,0,0-5.62,6c3.19-3.71,9.21-8.24,10.91-9.48s3.34-2.57,5-3.81C277.93,227.89,277.89,227.84,277.84,227.86Z" style="fill:#263238"></path><path d="M282.43,233.92c-2.24,1.48-4.52,2.87-6.7,4.46s-4.08,3.26-6.13,5c-.16.13,0,.17.13,0,2.11-1.63,4.2-3,6.34-4.59s4.21-3.31,6.4-4.84C282.51,234,282.47,233.9,282.43,233.92Z" style="fill:#263238"></path><path d="M287.31,238.41a60.07,60.07,0,0,0-9.73,7.6c-.15.14,0,.17.18,0,3.19-2.58,5.67-4.64,9.62-7.52C287.44,238.49,287.38,238.37,287.31,238.41Z" style="fill:#263238"></path><path d="M310.21,221.51c-2.53-.22-5.28-.09-7.88-.19-2.27-.09-4.4-.39-6.61-.54-4.53-.3-11.22-.72-15.72,0-3.27.52-7.31,3.18-9.61,4.26-.1.05,0,.19.08.16,4.31-1.55,6.91-3.4,10.81-4,4.49-.65,16.21.23,20.72.49,2.64.15,5.56-.12,8.2,0A.1.1,0,1,0,310.21,221.51Z" style="fill:#263238"></path><path d="M362.18,207.71l-23.11-2s-1.81-11.52-1.91-18c-.13-8.62,3-10.69,10.12-2.85C352,190.1,362.18,207.71,362.18,207.71Z" style="fill:#79C7D9"></path><path d="M341.89,206c-.24-.07-2.61-.35-2.79-.32-.17-1.36-.33-2.72-.53-4.08-.1-.68-.2-1.36-.32-2s-.24-1.6-.36-2.26c0-.1-.15-.09-.14,0,.06.87.14,1.51.2,2.27s.13,1.34.21,2c.18,1.42.31,2.94.56,4.34a22.44,22.44,0,0,0,3.17.13S341.93,206,341.89,206Z" style="fill:#263238"></path><path d="M360,205.32c-3.35-.52-6.69-1-10.06-1.32-1.68-.16-3.36-.29-5-.41s-3.39,0-5.06-.18c-.1,0-.1.14,0,.15,1.68,0,3.37.32,5.05.46s3.37.28,5,.44c3.35.31,6.71.62,10.06,1C360.12,205.48,360.12,205.33,360,205.32Z" style="fill:#263238"></path></g><g id="freepik--Table--inject-5"><rect x="81.6" y="246.84" width="336.8" height="11.98" style="fill:#37474f"></rect><rect x="93.66" y="258.82" width="312.69" height="11.97" style="fill:#455a64"></rect><polygon points="93.68 438.85 88.84 438.85 102.93 270.8 115.29 270.8 93.68 438.85" style="fill:#455a64"></polygon><polygon points="115.29 270.8 113.84 282.04 101.99 282.04 102.93 270.8 115.29 270.8" style="fill:#263238"></polygon><polygon points="406.32 438.85 411.16 438.85 397.07 270.8 384.71 270.8 406.32 438.85" style="fill:#455a64"></polygon><polygon points="384.71 270.8 386.16 282.04 398.01 282.04 397.07 270.8 384.71 270.8" style="fill:#263238"></polygon></g><g id="freepik--Devices--inject-5"><polygon points="166.3 246.84 235.77 246.84 218.9 200.48 149.43 200.48 166.3 246.84" style="fill:#263238"></polygon><polygon points="163.84 246.84 233.31 246.84 216.44 200.48 146.97 200.48 163.84 246.84" style="fill:#37474f"></polygon><polygon points="146.96 200.48 163.84 246.84 191.94 246.84 153.47 200.48 146.96 200.48" style="fill:#263238"></polygon><polygon points="151.46 246.84 159.92 246.84 167.5 233.69 159.05 233.69 151.46 246.84" style="fill:#455a64"></polygon><polygon points="167.5 233.69 167.5 246.84 159.92 246.84 167.5 233.69" style="fill:#37474f"></polygon><polygon points="198.89 246.84 207.34 246.84 214.93 233.69 206.48 233.69 198.89 246.84" style="fill:#455a64"></polygon><polygon points="214.93 233.69 214.93 246.84 207.34 246.84 214.93 233.69" style="fill:#263238"></polygon><rect x="264.41" y="244.32" width="56.15" height="2.52" style="fill:#c7c7c7"></rect><rect x="264.41" y="244.32" width="28.26" height="2.52" style="fill:#a6a6a6"></rect><polygon points="289.63 246.84 234.91 246.84 227.75 209.67 282.48 209.67 289.63 246.84" style="fill:#c7c7c7"></polygon><path d="M262,228.26a3,3,0,0,1-3,3.33,3.7,3.7,0,0,1-3.62-3.33,3,3,0,0,1,3-3.34A3.71,3.71,0,0,1,262,228.26Z" style="fill:#a6a6a6"></path></g><g id="freepik--Lamp--inject-5"><polygon points="122.97 240.69 121.17 240.46 130.44 169.98 164.07 151.52 164.94 153.11 132.12 171.13 122.97 240.69" style="fill:#263238"></polygon><path d="M128.72,170.55a2.56,2.56,0,1,0,2.56-2.56A2.56,2.56,0,0,0,128.72,170.55Z" style="fill:#79C7D9"></path><path d="M161.59,152.32a2.56,2.56,0,1,0,2.56-2.56A2.56,2.56,0,0,0,161.59,152.32Z" style="fill:#79C7D9"></path><polygon points="181.36 154.66 169.33 168.09 163.77 161.23 160.39 157.05 169.41 146.99 173.94 149.9 181.36 154.66" style="fill:#79C7D9"></polygon><polygon points="181.36 154.66 169.33 168.09 163.77 161.23 173.94 149.9 181.36 154.66" style="opacity:0.1"></polygon><polygon points="198.8 161.29 177.82 184.7 163.89 166.93 179.61 149.38 198.8 161.29" style="fill:#79C7D9"></polygon><polygon points="138.55 246.84 107.51 246.84 109.41 237.09 136.64 237.09 138.55 246.84" style="fill:#79C7D9"></polygon></g><g id="freepik--Picture--inject-5"><polygon points="443.75 223.03 401.91 223.03 401.91 169.32 432.97 169.32 443.75 179.56 443.75 223.03" style="fill:#dbdbdb"></polygon><rect x="401.91" y="207.31" width="41.84" height="15.72" style="fill:#ebebeb"></rect><polygon points="401.91 207.31 415.14 194.63 427.14 207.31 401.91 207.31" style="fill:#79C7D9"></polygon><polygon points="418.9 207.31 434.62 187.45 443.75 198.98 443.75 207.31 418.9 207.31" style="fill:#79C7D9"></polygon><path d="M415.61,186.27a4.69,4.69,0,1,1-4.69-4.69A4.69,4.69,0,0,1,415.61,186.27Z" style="fill:#fff"></path><polygon points="432.97 169.32 443.75 179.56 432.97 179.56 432.97 169.32" style="fill:#ebebeb"></polygon><path d="M411.63,216.92a.28.28,0,0,1,.36.18,2.26,2.26,0,0,0,4.42-.69v-5.26a.29.29,0,0,1,.29-.29.3.3,0,0,1,.29.29v5.26a2.85,2.85,0,0,1-5.56.88A.3.3,0,0,1,411.63,216.92Z" style="fill:#a6a6a6"></path><path d="M419.26,211.15a.29.29,0,0,1,.29-.29h2.37a2.39,2.39,0,1,1,0,4.78l-2.08,0V219a.29.29,0,0,1-.58,0Zm2.66,3.93a1.83,1.83,0,0,0,1.81-1.82,1.81,1.81,0,0,0-1.81-1.81h-2.08v3.63Z" style="fill:#a6a6a6"></path><path d="M430.17,215.48a.28.28,0,0,1-.29-.29.29.29,0,0,1,.29-.3h2.63a.3.3,0,0,1,.27.3v2.92a.38.38,0,0,1-.11.22,4.3,4.3,0,1,1-2.71-7.59,4.38,4.38,0,0,1,2.72.95.29.29,0,0,1,0,.4.31.31,0,0,1-.42,0,3.71,3.71,0,1,0-2.34,6.53,3.84,3.84,0,0,0,2.22-.72v-2.47Z" style="fill:#a6a6a6"></path></g><g id="freepik--eyedropper-tool--inject-5"><path d="M309.63,71l-32.09,31.86A5.56,5.56,0,1,1,269.7,95l32.08-31.87Z" style="fill:#ebebeb"></path><polygon points="309.63 71.02 300.51 80.08 294.44 70.4 301.78 63.11 309.63 71.02" style="fill:#c7c7c7"></polygon><path d="M267.57,104.93h0a1.43,1.43,0,0,1,0-2l7.26-7.2,2,2-7.26,7.21A1.42,1.42,0,0,1,267.57,104.93Z" style="fill:#ebebeb"></path><path d="M276.83,97.72l-7.26,7.22a1.41,1.41,0,0,1-2-2l1.23-1.21,6-6Z" style="fill:#ebebeb"></path><rect x="295.01" y="65.54" width="16.66" height="7.86" transform="translate(138.88 -194.72) rotate(45.2)" style="fill:#79C7D9"></rect><path d="M306.86,73.76,299,65.86l6.63-6.58a5.56,5.56,0,0,1,7.87,0h0a5.57,5.57,0,0,1,0,7.88Z" style="fill:#79C7D9"></path><path d="M289.47,91l-11.93,11.84a5.53,5.53,0,0,1-6.74.83l-1.23,1.23a1.41,1.41,0,0,1-2-2l1.23-1.21a5.56,5.56,0,0,1,.88-6.74l4-4Z" style="fill:#79C7D9"></path></g><g id="freepik--Palette--inject-5"><rect x="83.51" y="177.47" width="17.67" height="62.16" transform="translate(300.89 116.2) rotate(90)" style="fill:#ebebeb"></rect><rect x="110.52" y="204.25" width="13.27" height="8.6" transform="translate(325.71 91.39) rotate(90)" style="fill:#79C7D9"></rect><rect x="100.1" y="204.25" width="13.27" height="8.6" transform="translate(315.28 101.81) rotate(90)" style="fill:#79C7D9;opacity:0.8"></rect><rect x="89.68" y="204.25" width="13.27" height="8.6" transform="translate(304.86 112.24) rotate(90)" style="fill:#79C7D9;opacity:0.6000000000000001"></rect><rect x="79.25" y="204.25" width="13.27" height="8.6" transform="translate(294.44 122.66) rotate(90)" style="fill:#79C7D9;opacity:0.4"></rect><rect x="68.83" y="204.25" width="13.27" height="8.6" transform="translate(284.02 133.08) rotate(90)" style="fill:#79C7D9;opacity:0.2"></rect><g style="opacity:0.2"><rect x="110.52" y="204.25" width="13.27" height="8.6" transform="translate(325.71 91.39) rotate(90)"></rect><rect x="100.1" y="204.25" width="13.27" height="8.6" transform="translate(315.28 101.81) rotate(90)" style="opacity:0.8"></rect><rect x="89.68" y="204.25" width="13.27" height="8.6" transform="translate(304.86 112.24) rotate(90)" style="opacity:0.6000000000000001"></rect><rect x="79.25" y="204.25" width="13.27" height="8.6" transform="translate(294.44 122.66) rotate(90)" style="opacity:0.4"></rect><rect x="68.83" y="204.25" width="13.27" height="8.6" transform="translate(284.02 133.08) rotate(90)" style="opacity:0.2"></rect></g><path d="M65.48,209.67a1.12,1.12,0,1,1,1.12-1.12A1.12,1.12,0,0,1,65.48,209.67Z" style="fill:#263238"></path><rect x="75.64" y="158.47" width="17.67" height="62.16" transform="translate(158.78 -4.22) rotate(45)" style="fill:#ebebeb"></rect><rect x="95.38" y="167.71" width="13.27" height="8.6" transform="translate(151.51 -21.76) rotate(45)" style="fill:#79C7D9"></rect><rect x="88.02" y="175.08" width="13.27" height="8.6" transform="translate(154.56 -14.39) rotate(45)" style="fill:#79C7D9;opacity:0.8"></rect><rect x="80.65" y="182.45" width="13.27" height="8.6" transform="translate(157.61 -7.02) rotate(45)" style="fill:#79C7D9;opacity:0.6000000000000001"></rect><rect x="73.28" y="189.82" width="13.27" height="8.6" transform="translate(160.67 0.35) rotate(45)" style="fill:#79C7D9;opacity:0.4"></rect><rect x="65.91" y="197.19" width="13.27" height="8.6" transform="translate(163.72 7.72) rotate(45)" style="fill:#79C7D9;opacity:0.2"></rect><g style="opacity:0.1"><rect x="95.38" y="167.71" width="13.27" height="8.6" transform="translate(151.51 -21.76) rotate(45)"></rect><rect x="88.02" y="175.08" width="13.27" height="8.6" transform="translate(154.56 -14.39) rotate(45)" style="opacity:0.8"></rect><rect x="80.65" y="182.45" width="13.27" height="8.6" transform="translate(157.61 -7.02) rotate(45)" style="opacity:0.6000000000000001"></rect><rect x="73.28" y="189.82" width="13.27" height="8.6" transform="translate(160.67 0.35) rotate(45)" style="opacity:0.4"></rect><rect x="65.91" y="197.19" width="13.27" height="8.6" transform="translate(163.72 7.72) rotate(45)" style="opacity:0.2"></rect></g><path d="M66.27,209.34a1.12,1.12,0,1,1,0-1.58A1.11,1.11,0,0,1,66.27,209.34Z" style="fill:#263238"></path><rect x="56.65" y="150.6" width="17.67" height="62.16" style="fill:#ebebeb"></rect><rect x="58.84" y="152.57" width="13.27" height="8.6" style="fill:#79C7D9"></rect><rect x="58.84" y="163" width="13.27" height="8.6" style="fill:#79C7D9;opacity:0.8"></rect><rect x="58.84" y="173.42" width="13.27" height="8.6" style="fill:#79C7D9;opacity:0.6000000000000001"></rect><rect x="58.84" y="183.84" width="13.27" height="8.6" style="fill:#79C7D9;opacity:0.4"></rect><rect x="58.84" y="194.26" width="13.27" height="8.6" style="fill:#79C7D9;opacity:0.2"></rect><path d="M67.3,208.55a1.82,1.82,0,1,1-1.82-1.82A1.83,1.83,0,0,1,67.3,208.55Z" style="fill:#263238"></path></g></svg>