<?xml version="1.0" encoding="utf-8"?>
<!-- Generator: Adobe Illustrator 26.0.0, SVG Export Plug-In . SVG Version: 6.00 Build 0)  -->
<svg version="1.1" id="Layer_1" xmlns="http://www.w3.org/2000/svg" xmlns:xlink="http://www.w3.org/1999/xlink" x="0px" y="0px"
	 viewBox="0 0 700 700" style="enable-background:new 0 0 700 700;" xml:space="preserve">
<style type="text/css">
	.st0{fill:#FFFFFF;}
</style>
<path class="st0" d="M350,113.5c-60.3,0.1-118.1,24-160.8,66.7c-42.7,42.7-66.6,100.5-66.7,160.8c12.4,301.9,442.6,301.7,455,0
	c-0.1-60.3-24-118.1-66.7-160.8C468.1,137.5,410.3,113.6,350,113.5L350,113.5z M197.7,329.5l54.4-53c4.5-4.3,10.9-6,16.9-4.3
	c6,1.7,10.6,6.5,12.2,12.5c1.5,6-0.3,12.4-4.8,16.8l-41.8,40.9l37.8,39.2c4.2,4.5,5.7,10.9,3.9,16.8c-1.7,5.9-6.5,10.5-12.4,12
	c-6,1.5-12.3-0.2-16.7-4.5l-49.9-51.8c-3.2-3.3-4.9-7.8-4.9-12.4C192.6,337.1,194.5,332.7,197.7,329.5L197.7,329.5z M301.7,421.7
	c-4-2.4-6.9-6.2-8-10.7c-1.1-4.5-0.5-9.3,1.9-13.3l78.8-131.2c3.2-5.4,9-8.6,15.3-8.6c6.2,0.1,12,3.5,15.1,8.9
	c3.1,5.4,3,12.1-0.2,17.5l-78.8,131.2c-2.4,4-6.2,6.9-10.7,8C310.4,424.7,305.7,424,301.7,421.7L301.7,421.7z M423.5,380.6
	l41.8-40.9l-37.8-39.2v0c-4.2-4.5-5.7-10.9-3.9-16.8c1.7-5.9,6.5-10.5,12.4-12c6-1.5,12.3,0.2,16.7,4.5l49.9,51.8
	c3.2,3.3,4.9,7.8,4.9,12.4c-0.1,4.6-1.9,9-5.2,12.3l-54.4,53c-4.5,4.2-10.9,5.7-16.8,4c-5.9-1.7-10.5-6.4-12-12.4
	C417.5,391.3,419.2,384.9,423.5,380.6L423.5,380.6z"/>
</svg>
