<?xml version="1.0" encoding="utf-8"?>
<!-- Generator: Adobe Illustrator 26.0.0, SVG Export Plug-In . SVG Version: 6.00 Build 0)  -->
<svg version="1.1" id="Layer_1" xmlns="http://www.w3.org/2000/svg" xmlns:xlink="http://www.w3.org/1999/xlink" x="0px" y="0px"
	 viewBox="0 0 512 512" style="enable-background:new 0 0 512 512;" xml:space="preserve">
<style type="text/css">
	.st0{fill:#FFFFFF;}
</style>
<path class="st0" d="M500.3,443.7L380.6,324c27.2-40.4,40.6-90.9,33.5-144.7c-12.3-91.5-87.3-166-178.9-177.6
	C99-15.5-15.5,99,1.7,235.2c11.6,91.6,86.1,166.7,177.6,178.9c53.8,7.2,104.3-6.2,144.7-33.5l119.7,119.7c15.6,15.6,41,15.6,56.6,0
	S515.9,459.3,500.3,443.7z M79.1,208c0-70.6,57.4-128,128-128s128,57.4,128,128s-57.4,128-128,128S79.1,278.6,79.1,208z"/>
</svg>
