<svg xmlns="http://www.w3.org/2000/svg" viewBox="0 0 500 500"><g id="freepik--background-complete--inject-57"><path d="M412.41,330.16l13.35-.28,6.58-.11c2.19,0,4.37,0,6.55,0l-.45.44L438.39,319l.5.5-13.24-.06c-4.42,0-8.83-.11-13.24-.17l.27-.27c0,1.83-.09,3.67-.13,5.54Zm0,0-.15-5.54c0-1.86-.11-3.75-.13-5.65v-.27h.28c4.41-.05,8.82-.16,13.24-.17l13.24-.06h.5v.5l-.06,11.19v.45h-.44c-2.23,0-4.47,0-6.7-.06l-6.66-.11Z" style="fill:#ebebeb"></path><path d="M427.18,344.27l13.35-.28,6.58-.11c2.19-.05,4.37,0,6.55-.05l-.45.44,0-11.19.5.5-13.24-.06c-4.41,0-8.83-.12-13.24-.17l.27-.27c0,1.83-.08,3.67-.13,5.54Zm0,0-.14-5.54c-.05-1.86-.12-3.75-.13-5.65v-.27h.28c4.41-.05,8.83-.16,13.24-.17l13.24-.06h.5v.5l-.06,11.19v.45h-.44c-2.23,0-4.47,0-6.7-.06l-6.66-.11Z" style="fill:#ebebeb"></path><path d="M236.2,90l13.36-.28,6.58-.11c2.19,0,4.36,0,6.54,0l-.44.44-.05-11.19.49.5-13.24-.06c-4.41,0-8.82-.11-13.24-.17l.28-.27c0,1.83-.09,3.67-.13,5.54Zm0,0-.14-5.53c0-1.87-.11-3.76-.13-5.66v-.27h.27c4.42,0,8.83-.16,13.24-.17l13.24-.06h.51v.5L263.13,90v.45h-.45c-2.23,0-4.46,0-6.69-.06l-6.66-.11Z" style="fill:#ebebeb"></path><path d="M251,104.13l13.35-.28,6.58-.11c2.19,0,4.36,0,6.55,0l-.45.44L277,92.94l.5.5-13.24-.06c-4.42,0-8.83-.11-13.24-.17l.27-.27c0,1.83-.09,3.67-.13,5.54Zm0,0-.15-5.54c0-1.86-.11-3.75-.13-5.65v-.27H251c4.41,0,8.82-.16,13.24-.17l13.24-.06h.5v.5l-.06,11.19v.45h-.44c-2.24,0-4.47,0-6.7-.06l-6.66-.11Z" style="fill:#ebebeb"></path><path d="M265.69,90,279,89.74l6.58-.11c2.19,0,4.37,0,6.55,0l-.45.44-.05-11.19.5.5-13.24-.06c-4.41,0-8.83-.11-13.24-.17l.27-.27c0,1.83-.08,3.67-.13,5.54Zm0,0-.14-5.53c-.05-1.87-.12-3.76-.13-5.66v-.27h.28c4.41,0,8.83-.16,13.24-.17l13.24-.06h.5v.5L292.62,90v.45h-.44c-2.23,0-4.47,0-6.69-.06l-6.67-.11Z" style="fill:#ebebeb"></path><path d="M46.34,344.27,59.7,344l6.58-.11c2.18-.05,4.36,0,6.54-.05l-.44.44-.06-11.19.5.5-13.24-.06c-4.41,0-8.83-.12-13.24-.17l.27-.27c0,1.83-.08,3.67-.13,5.54Zm0,0-.14-5.54c-.05-1.86-.11-3.75-.13-5.65v-.27h.27c4.41-.05,8.83-.16,13.24-.17l13.24-.06h.5v.5l0,11.19v.45h-.45c-2.23,0-4.47,0-6.69-.06l-6.66-.11Z" style="fill:#ebebeb"></path><path d="M157.5,235.45l13.35-.28,6.58-.11c2.19,0,4.37,0,6.55-.05l-.45.44-.05-11.19.5.5-13.24-.06c-4.42,0-8.83-.11-13.24-.16l.27-.28c0,1.83-.09,3.68-.13,5.54Zm0,0-.15-5.53c0-1.87-.11-3.76-.13-5.66V224h.28c4.41-.05,8.82-.16,13.24-.16l13.24-.07h.5v.5l-.06,11.19v.45H184c-2.23,0-4.47,0-6.7-.06l-6.66-.11Z" style="fill:#ebebeb"></path><path d="M61.11,60.59l13.36-.28,6.58-.11c2.19-.05,4.36,0,6.54-.05l-.44.44L87.09,49.4l.5.5-13.24-.06c-4.41,0-8.82-.11-13.24-.17l.28-.27c0,1.83-.09,3.68-.14,5.54Zm0,0L61,55.06c0-1.87-.11-3.76-.13-5.66v-.27h.27c4.42-.05,8.83-.16,13.24-.16l13.24-.07h.51v.5l0,11.19V61h-.45c-2.23,0-4.47,0-6.69-.06l-6.66-.11Z" style="fill:#ebebeb"></path><path d="M46.34,74.7l13.36-.28,6.58-.11c2.18,0,4.36,0,6.54,0l-.44.44-.06-11.19.5.5L59.58,64c-4.41,0-8.83-.11-13.24-.17l.27-.27c0,1.83-.08,3.67-.13,5.54Zm0,0-.14-5.53c-.05-1.87-.11-3.76-.13-5.66v-.27h.27c4.41-.05,8.83-.16,13.24-.16L72.82,63h.5v.5l0,11.19v.45h-.45c-2.23,0-4.47,0-6.69-.06L59.47,75Z" style="fill:#ebebeb"></path><path d="M422.41,60.59l13.35-.28,6.58-.11c2.19-.05,4.37,0,6.55-.05l-.45.44-.05-11.19.5.5-13.24-.06c-4.42,0-8.83-.11-13.24-.17l.27-.27c0,1.83-.09,3.68-.13,5.54Zm0,0-.15-5.53c0-1.87-.11-3.76-.13-5.66v-.27h.28c4.41-.05,8.82-.16,13.24-.16l13.24-.07h.5v.5l-.06,11.19V61h-.44c-2.23,0-4.47,0-6.7-.06l-6.66-.11Z" style="fill:#ebebeb"></path><path d="M286.93,47H436.15V276.54H286.93Zm143.72,5.5H292.43V271H430.65Z" style="fill:#ebebeb"></path><rect x="292.43" y="158.99" width="138.22" height="5.5" transform="translate(723.08 323.49) rotate(180)" style="fill:#ebebeb"></rect><rect x="276.79" y="276.54" width="169.51" height="15.8" transform="translate(723.08 568.88) rotate(180)" style="fill:#dbdbdb"></rect><polygon points="281.28 298.67 441.8 302.03 441.8 292.34 281.28 292.34 281.28 298.67" style="fill:#ebebeb"></polygon><path d="M292.43,52.45H430.65V193.87H292.43Zm133.12,5.1h-128V188.77h128Z" style="fill:#dbdbdb"></path><rect x="383.78" y="52.45" width="2.75" height="136.32" style="fill:#dbdbdb"></rect><rect x="336.55" y="52.45" width="2.75" height="136.32" style="fill:#dbdbdb"></rect><rect x="168.48" y="50.33" width="64.99" height="64.99" style="fill:#fff"></rect><path d="M165.1,47V118.7h71.75V47Zm3.38,3.38h65v65h-65Z" style="fill:#dbdbdb"></path><rect x="187.25" y="66.17" width="22.47" height="50.65" transform="translate(289.99 -106.99) rotate(90)" style="fill:#ebebeb"></rect><rect x="188" y="69.85" width="25.95" height="25.95" transform="translate(283.8 -118.15) rotate(90)" style="fill:#c7c7c7"></rect><rect x="162.33" y="46.95" width="2.77" height="71.75" transform="translate(327.43 165.65) rotate(180)" style="fill:#c7c7c7"></rect><rect x="168.48" y="142.61" width="64.99" height="64.99" style="fill:#fff"></rect><rect x="205.33" y="153.01" width="16.97" height="49.02" style="fill:#c7c7c7"></rect><path d="M165.1,139.23V211h71.75V139.23Zm3.38,3.38h65v65h-65Z" style="fill:#dbdbdb"></path><rect x="188" y="162.13" width="25.95" height="25.95" style="fill:#ebebeb"></rect><rect x="162.33" y="139.23" width="2.77" height="71.75" transform="translate(327.43 350.21) rotate(180)" style="fill:#c7c7c7"></rect><rect x="168.48" y="234.89" width="64.99" height="64.99" style="fill:#fff"></rect><rect x="190.6" y="243.75" width="35.66" height="21.32" style="fill:#ebebeb"></rect><path d="M165.1,231.51v71.75h71.75V231.51Zm3.38,3.38h65v65h-65Z" style="fill:#dbdbdb"></path><rect x="188" y="254.41" width="25.95" height="25.95" style="fill:#c7c7c7"></rect><rect x="162.33" y="231.51" width="2.77" height="71.75" transform="translate(327.43 534.77) rotate(180)" style="fill:#c7c7c7"></rect></g><g id="freepik--Table--inject-57"><polygon points="43.87 426.61 95.41 426.37 146.94 426.28 250 426.11 353.06 426.28 404.6 426.37 456.13 426.61 404.6 426.86 353.06 426.94 250 427.11 146.94 426.94 95.41 426.86 43.87 426.61" style="fill:#263238"></polygon></g><g id="freepik--Wind--inject-57"><path d="M394.84,212.43c-2.91.07-5.65-1.13-8.22-2.37s-5.16-2.64-8-2.7a10.17,10.17,0,0,0-4.06.79,28.73,28.73,0,0,0-3.77,2,27.71,27.71,0,0,1-3.89,1.95,10.61,10.61,0,0,1-4.36.71,10.24,10.24,0,0,1-4.23-1.26c-1.3-.7-2.47-1.53-3.68-2.26a13.1,13.1,0,0,0-3.84-1.64,10.73,10.73,0,0,0-4.15-.08c-2.78.47-5.2,2.16-7.85,3.28a19.93,19.93,0,0,1-4.13,1.27,21.3,21.3,0,0,1-4.29.35,20.86,20.86,0,0,0,4.25-.53,20.21,20.21,0,0,0,4-1.42c2.58-1.17,5-2.93,7.89-3.52a10.69,10.69,0,0,1,4.4,0,13.71,13.71,0,0,1,4,1.68c1.25.74,2.43,1.56,3.67,2.21a9.59,9.59,0,0,0,3.95,1.16,9.94,9.94,0,0,0,4.06-.64,25.78,25.78,0,0,0,3.8-1.88,29.85,29.85,0,0,1,3.87-2,10.16,10.16,0,0,1,4.32-.77C384.71,207.21,388.9,212.32,394.84,212.43Z" style="fill:#263238"></path><path d="M424.32,222.9c-2.9.06-5.65-1.14-8.21-2.38s-5.16-2.63-8-2.7a10.13,10.13,0,0,0-4.06.79,29.49,29.49,0,0,0-3.78,2,27.59,27.59,0,0,1-3.88,2,10.62,10.62,0,0,1-4.36.72,10.4,10.4,0,0,1-4.24-1.27c-1.29-.69-2.46-1.53-3.68-2.26a13.14,13.14,0,0,0-3.84-1.64,10.88,10.88,0,0,0-4.14-.08c-2.78.47-5.2,2.16-7.85,3.28a20.58,20.58,0,0,1-4.13,1.28,22.86,22.86,0,0,1-4.29.35,22.36,22.36,0,0,0,4.25-.53,20.47,20.47,0,0,0,4-1.43c2.58-1.17,5-2.93,7.89-3.52a10.82,10.82,0,0,1,4.39,0,13.64,13.64,0,0,1,4.05,1.69c1.25.73,2.43,1.55,3.67,2.21a9.42,9.42,0,0,0,8,.51A26.75,26.75,0,0,0,400,220a28.69,28.69,0,0,1,3.87-2,10.13,10.13,0,0,1,4.32-.77C414.2,217.67,418.39,222.79,424.32,222.9Z" style="fill:#263238"></path></g><g id="freepik--Plant--inject-57"><rect x="88.82" y="50.38" width="1" height="122.71" style="fill:#dbdbdb"></rect><path d="M85.89,50.38A3.44,3.44,0,1,0,89.32,47,3.43,3.43,0,0,0,85.89,50.38Z" style="fill:#a6a6a6"></path><polygon points="56.58 167.23 55.68 166.8 89.31 97.44 123.86 165.53 122.97 165.99 89.33 99.69 56.58 167.23" style="fill:#dbdbdb"></polygon><path d="M85.89,98.56a3.44,3.44,0,1,0,3.43-3.44A3.43,3.43,0,0,0,85.89,98.56Z" style="fill:#a6a6a6"></path><polygon points="56.24 165.76 57.42 184.23 60.21 228.19 119.35 228.19 122.14 184.23 123.31 165.76 56.24 165.76" style="fill:#F7552F"></polygon><polygon points="56.24 165.76 57.42 184.23 122.14 184.23 123.31 165.76 56.24 165.76" style="opacity:0.1"></polygon><rect x="52.19" y="159.85" width="75.18" height="14.34" transform="translate(179.55 334.03) rotate(180)" style="fill:#F7552F"></rect><path d="M45.61,170c-2.18-3.06,6.22-6,10.79-3.47C56.4,166.48,48.69,174.28,45.61,170Z" style="fill:#455a64"></path><path d="M56.19,166.68a20.65,20.65,0,0,1-4,1.82,14.63,14.63,0,0,1-4.35.82L52,168C53.36,167.5,54.75,167,56.19,166.68Z" style="fill:#263238"></path><path d="M45.07,190.22C41.5,189,46.55,181.7,51.72,181,51.72,181,50.11,191.89,45.07,190.22Z" style="fill:#455a64"></path><path d="M51.68,181.32a20.34,20.34,0,0,1-2.19,3.85,14.51,14.51,0,0,1-3,3.24L49,184.84C49.88,183.65,50.72,182.46,51.68,181.32Z" style="fill:#263238"></path><path d="M62.57,193.09c-.75,3.69-8.63-.45-9.9-5.51C52.67,187.58,63.63,187.89,62.57,193.09Z" style="fill:#455a64"></path><path d="M53,187.59A19.87,19.87,0,0,1,57,189.3a14.86,14.86,0,0,1,3.58,2.62l-3.86-2.11C55.48,189.1,54.2,188.4,53,187.59Z" style="fill:#263238"></path><path d="M68.66,206.54c-.75,3.69-8.64-.45-9.91-5.51C58.75,201,69.72,201.34,68.66,206.54Z" style="fill:#455a64"></path><path d="M59,201.05a19.83,19.83,0,0,1,4.09,1.7,14.86,14.86,0,0,1,3.58,2.62l-3.86-2.11C61.57,202.55,60.28,201.86,59,201.05Z" style="fill:#263238"></path><path d="M75.12,223c-.75,3.69-8.63-.45-9.9-5.51C65.22,217.52,76.18,217.83,75.12,223Z" style="fill:#455a64"></path><path d="M65.5,217.53a19.87,19.87,0,0,1,4.09,1.71,14.86,14.86,0,0,1,3.58,2.62l-3.86-2.11C68,219,66.75,218.35,65.5,217.53Z" style="fill:#263238"></path><path d="M68.75,242c-3.35,1.71-5-7-1.83-11.18C66.92,230.81,73.49,239.59,68.75,242Z" style="fill:#455a64"></path><path d="M67.08,231a19.86,19.86,0,0,1,1.2,4.26,14.7,14.7,0,0,1,.18,4.44l-.75-4.34C67.47,234,67.22,232.52,67.08,231Z" style="fill:#263238"></path><path d="M45.19,241.56c-1.7-3.36,7-5,11.18-1.84C56.37,239.72,47.59,246.29,45.19,241.56Z" style="fill:#455a64"></path><path d="M56.14,239.89a19.86,19.86,0,0,1-4.26,1.2,14.63,14.63,0,0,1-4.43.17l4.33-.74C53.22,240.28,54.66,240,56.14,239.89Z" style="fill:#263238"></path><path d="M56.73,184.67c-3.19,2-5.63-6.56-2.85-11C53.88,173.7,61.22,181.85,56.73,184.67Z" style="fill:#455a64"></path><path d="M54.07,173.91a20.18,20.18,0,0,1,1.58,4.14,14.54,14.54,0,0,1,.57,4.4l-1.13-4.25C54.72,176.79,54.34,175.37,54.07,173.91Z" style="fill:#263238"></path><path d="M61.38,174.66c-3.19,2-5.63-6.56-2.84-11C58.54,163.69,65.88,171.84,61.38,174.66Z" style="fill:#455a64"></path><path d="M58.73,163.9A20.18,20.18,0,0,1,60.31,168a14.54,14.54,0,0,1,.57,4.4l-1.13-4.25C59.38,166.78,59,165.37,58.73,163.9Z" style="fill:#263238"></path><path d="M65.29,168.26c-3.31,1-3.31-7.21.26-10.39C65.55,157.87,70,166.91,65.29,168.26Z" style="fill:#455a64"></path><path d="M65.66,158.1a17.79,17.79,0,0,1,.35,4.05,13.37,13.37,0,0,1-.6,4l.07-4C65.51,160.8,65.53,159.46,65.66,158.1Z" style="fill:#263238"></path><path d="M50.73,155.73c.35-3.75,8.63-.46,10.43,4.43C61.16,160.16,50.22,161,50.73,155.73Z" style="fill:#455a64"></path><path d="M60.87,160.18a19.54,19.54,0,0,1-4.24-1.27,14.76,14.76,0,0,1-3.84-2.23l4.06,1.7C58.2,159,59.55,159.5,60.87,160.18Z" style="fill:#263238"></path><path d="M53.82,204.38c-3.63,1-3.53-7.89.39-11.32C54.21,193.06,58.93,203,53.82,204.38Z" style="fill:#455a64"></path><path d="M54.33,193.31a19.88,19.88,0,0,1,.34,4.42,15.14,15.14,0,0,1-.7,4.38l.12-4.39C54.14,196.25,54.17,194.79,54.33,193.31Z" style="fill:#263238"></path><path d="M60.75,219.09c-3.63,1-3.53-7.89.39-11.32C61.14,207.77,65.86,217.67,60.75,219.09Z" style="fill:#455a64"></path><path d="M61.26,208a19.88,19.88,0,0,1,.34,4.42,14.8,14.8,0,0,1-.7,4.38l.12-4.39C61.07,211,61.1,209.5,61.26,208Z" style="fill:#263238"></path><path d="M60.13,232c-3.65-.93.87-8.6,6-9.62C66.12,222.37,65.27,233.31,60.13,232Z" style="fill:#455a64"></path><path d="M66.09,222.65a19.87,19.87,0,0,1-1.91,4,14.93,14.93,0,0,1-2.79,3.45l2.3-3.75C64.46,225.11,65.22,223.86,66.09,222.65Z" style="fill:#263238"></path><path d="M50.69,234.41c.29-3.75,8.62-.61,10.5,4.25C61.19,238.66,50.27,239.7,50.69,234.41Z" style="fill:#455a64"></path><path d="M60.91,238.69a19.79,19.79,0,0,1-4.27-1.2,14.58,14.58,0,0,1-3.87-2.16L56.86,237C58.21,237.5,59.57,238,60.91,238.69Z" style="fill:#263238"></path><path d="M63.36,150.09c2.08-3.13,7.83,3.66,7.1,8.83C70.46,158.92,60.42,154.51,63.36,150.09Z" style="fill:#455a64"></path><path d="M70.21,158.8a19.78,19.78,0,0,1-3.15-3.12,14.65,14.65,0,0,1-2.33-3.77l2.78,3.4C68.43,156.45,69.36,157.58,70.21,158.8Z" style="fill:#263238"></path><path d="M71.94,159.79A13,13,0,0,0,65.66,158a7.43,7.43,0,0,0-.81.09,4.78,4.78,0,0,0-2.17,1c-.45.3-.84.7-1.26,1l-1.13,1.18a31.55,31.55,0,0,0-3.75,5.4,37,37,0,0,0-2.7,6c-1.42,4.11-2.24,8.59-1.25,12.79a83.78,83.78,0,0,0,4.72,12.32c1.78,4,3.66,8.06,5.39,12.15s3.41,8.27,4,12.74a29.43,29.43,0,0,1,.25,6.7,13.66,13.66,0,0,1-2,6.41,8.65,8.65,0,0,1-5.53,3.63,17,17,0,0,1-6.63-.11,18.12,18.12,0,0,0,6.57-.14,8.29,8.29,0,0,0,5.18-3.65,13.18,13.18,0,0,0,1.77-6.19,28.75,28.75,0,0,0-.38-6.54,53,53,0,0,0-4.06-12.5c-1.75-4-3.65-8-5.47-12.1a85.59,85.59,0,0,1-4.69-12.5,19.23,19.23,0,0,1-.24-6.76,28,28,0,0,1,1.66-6.51,37.16,37.16,0,0,1,2.88-6A31.07,31.07,0,0,1,59.93,161l1.2-1.17c.45-.34.86-.73,1.34-1A7.4,7.4,0,0,1,64,158a5.71,5.71,0,0,1,1.68-.26A12.66,12.66,0,0,1,71.94,159.79Z" style="fill:#455a64"></path><path d="M84.77,152.23c1.5-3.46,8.35,2.22,8.55,7.43C93.32,159.66,82.66,157.09,84.77,152.23Z" style="fill:#455a64"></path><path d="M93.05,159.59a19.44,19.44,0,0,1-3.65-2.52,14.35,14.35,0,0,1-3-3.3l3.34,2.87C90.88,157.59,92,158.54,93.05,159.59Z" style="fill:#263238"></path><path d="M72.68,163.06c-1.23-3.56,7.66-4,11.33-.29C84,162.77,74.4,168.07,72.68,163.06Z" style="fill:#455a64"></path><path d="M83.76,162.91a20.44,20.44,0,0,1-4.39.6,15,15,0,0,1-4.42-.44l4.4-.14C80.81,162.89,82.27,162.84,83.76,162.91Z" style="fill:#263238"></path><path d="M69.34,182.54c-3.28-1.86,3.1-8.07,8.3-7.71C77.64,174.83,74,185.16,69.34,182.54Z" style="fill:#455a64"></path><path d="M77.54,175.09a19.72,19.72,0,0,1-2.89,3.36,14.66,14.66,0,0,1-3.6,2.59l3.2-3C75.32,177,76.38,176,77.54,175.09Z" style="fill:#263238"></path><path d="M75.17,201.21c-3.77-.11-1-8.58,3.73-10.71C78.9,190.5,80.47,201.36,75.17,201.21Z" style="fill:#455a64"></path><path d="M78.93,190.78a19.41,19.41,0,0,1-1,4.33,14.58,14.58,0,0,1-2,4l1.42-4.16C77.88,193.54,78.35,192.15,78.93,190.78Z" style="fill:#263238"></path><path d="M84.4,215.78c-3.58,1.16-3.85-7.73-.08-11.33C84.32,204.45,89.45,214.15,84.4,215.78Z" style="fill:#455a64"></path><path d="M84.45,204.7a19.89,19.89,0,0,1,.52,4.4,14.59,14.59,0,0,1-.51,4.41l-.06-4.4C84.38,207.65,84.36,206.19,84.45,204.7Z" style="fill:#263238"></path><path d="M94.49,223.07c-2.83,2.48-6.6-5.58-4.55-10.38C89.94,212.69,98.48,219.57,94.49,223.07Z" style="fill:#455a64"></path><path d="M90.16,212.87a19.87,19.87,0,0,1,2.22,3.84A14.57,14.57,0,0,1,93.64,221l-1.79-4C91.26,215.6,90.66,214.27,90.16,212.87Z" style="fill:#263238"></path><path d="M112.66,224.61c-.5,3.73-8.64.14-10.26-4.82C102.4,219.79,113.36,219.35,112.66,224.61Z" style="fill:#455a64"></path><path d="M102.68,219.79a19.43,19.43,0,0,1,4.2,1.42,14.82,14.82,0,0,1,3.75,2.36l-4-1.83C105.31,221.12,104,220.51,102.68,219.79Z" style="fill:#263238"></path><path d="M87.61,171.53c-3.66.9-3.29-8,.74-11.31C88.35,160.22,92.76,170.27,87.61,171.53Z" style="fill:#455a64"></path><path d="M88.46,160.48a19.92,19.92,0,0,1,.2,4.43,14.83,14.83,0,0,1-.83,4.36l.25-4.39C88.18,163.42,88.26,162,88.46,160.48Z" style="fill:#263238"></path><path d="M85.66,178.92c-2.56,2.76-7.14-4.87-5.6-9.85C80.06,169.07,89.26,175,85.66,178.92Z" style="fill:#455a64"></path><path d="M80.29,169.22a20,20,0,0,1,2.61,3.59,15.06,15.06,0,0,1,1.7,4.1l-2.2-3.81C81.67,171.83,80.93,170.57,80.29,169.22Z" style="fill:#263238"></path><path d="M85.21,191c-1.83,3.29-8.09-3-7.78-8.24C77.43,182.78,87.79,186.38,85.21,191Z" style="fill:#455a64"></path><path d="M77.69,182.88a20.14,20.14,0,0,1,3.39,2.86,14.61,14.61,0,0,1,2.62,3.57l-3-3.17C79.65,185.08,78.64,184,77.69,182.88Z" style="fill:#263238"></path><path d="M91.26,201.31c-.32,3.75-8.62.55-10.47-4.32C80.79,197,91.71,196,91.26,201.31Z" style="fill:#455a64"></path><path d="M81.07,197a19.75,19.75,0,0,1,4.26,1.22,14.62,14.62,0,0,1,3.86,2.19l-4.08-1.65C83.76,198.17,82.4,197.63,81.07,197Z" style="fill:#263238"></path><path d="M98.1,209.54c.64,3.71-8.2,2.72-11.23-1.52C86.87,208,97.19,204.31,98.1,209.54Z" style="fill:#455a64"></path><path d="M87.14,207.93a19.31,19.31,0,0,1,4.43.1,14.8,14.8,0,0,1,4.28,1.13l-4.36-.56C90,208.41,88.59,208.23,87.14,207.93Z" style="fill:#263238"></path><path d="M105.9,213.91C108,217.06,99.45,219.68,95,217,95,217,103,209.48,105.9,213.91Z" style="fill:#455a64"></path><path d="M95.2,216.79a19.47,19.47,0,0,1,4.1-1.66,14.79,14.79,0,0,1,4.39-.67l-4.23,1.22C98.05,216.08,96.65,216.49,95.2,216.79Z" style="fill:#263238"></path><path d="M114.84,207c3.75.34.51,8.63-4.38,10.46C110.46,217.43,109.56,206.49,114.84,207Z" style="fill:#455a64"></path><path d="M110.44,217.14a20.15,20.15,0,0,1,1.25-4.25A14.63,14.63,0,0,1,113.9,209l-1.68,4.07C111.66,214.46,111.11,215.82,110.44,217.14Z" style="fill:#263238"></path><path d="M94.67,160a12.1,12.1,0,0,0-5.89.27,10.76,10.76,0,0,0-4.91,3.13,21.65,21.65,0,0,0-5.51,10.28,30.46,30.46,0,0,0-.14,11.73,53.35,53.35,0,0,0,3.41,11.35A61.85,61.85,0,0,0,87,207.36a36.39,36.39,0,0,0,7.81,8.82A17.47,17.47,0,0,0,100,219a9.74,9.74,0,0,0,5.73.19,14.08,14.08,0,0,0,5.28-2.55,10.94,10.94,0,0,0,2.07-2.12,9.47,9.47,0,0,0,1.41-2.62,10.47,10.47,0,0,1-3.3,4.95,14.38,14.38,0,0,1-5.32,2.82,10.26,10.26,0,0,1-6.06-.06,18.12,18.12,0,0,1-5.39-2.81,35.24,35.24,0,0,1-8.11-8.94,62,62,0,0,1-5.57-10.68,54,54,0,0,1-3.39-11.58,29.89,29.89,0,0,1,.3-12.06,22.2,22.2,0,0,1,5.9-10.44,11.35,11.35,0,0,1,5.19-3A11.8,11.8,0,0,1,94.67,160Z" style="fill:#455a64"></path><path d="M113.9,166.73c-1.91,3.82-9.33-3-9.24-8.95C104.66,157.78,116.59,161.34,113.9,166.73Z" style="fill:#455a64"></path><path d="M105,157.88a22.88,22.88,0,0,1,4,3.08,16.6,16.6,0,0,1,3.15,3.92l-3.61-3.45C107.3,160.28,106.1,159.14,105,157.88Z" style="fill:#263238"></path><path d="M119.77,166.79c-3.38,2.62-7.1-6.77-4.45-12.06C115.32,154.73,124.52,163.11,119.77,166.79Z" style="fill:#455a64"></path><path d="M115.56,155a23,23,0,0,1,2.25,4.49,16.82,16.82,0,0,1,1.14,4.9l-1.76-4.67C116.62,158.12,116,156.57,115.56,155Z" style="fill:#263238"></path><path d="M121.69,177.9c-4.27-.05-1.34-9.71,4-12.21C125.71,165.69,127.71,178,121.69,177.9Z" style="fill:#455a64"></path><path d="M125.76,166a22.91,22.91,0,0,1-1,4.92,16.82,16.82,0,0,1-2.16,4.55l1.53-4.75C124.62,169.15,125.12,167.57,125.76,166Z" style="fill:#263238"></path><path d="M120.1,193c-3.85-1.84,2.88-9.37,8.8-9.38C128.9,183.6,125.53,195.58,120.1,193Z" style="fill:#455a64"></path><path d="M128.8,183.91a22.81,22.81,0,0,1-3,4,17.1,17.1,0,0,1-3.87,3.22l3.38-3.67C126.45,186.28,127.57,185.06,128.8,183.91Z" style="fill:#263238"></path><path d="M117.8,209.13c-3.85-1.85,2.88-9.38,8.8-9.39C126.6,199.74,123.23,211.73,117.8,209.13Z" style="fill:#455a64"></path><path d="M126.5,200.05a22.33,22.33,0,0,1-3,4,16.63,16.63,0,0,1-3.87,3.22l3.38-3.67C124.15,202.42,125.27,201.2,126.5,200.05Z" style="fill:#263238"></path><path d="M115.07,226.15c-3.85-1.84,2.88-9.37,8.8-9.38C123.87,216.77,120.5,228.75,115.07,226.15Z" style="fill:#455a64"></path><path d="M123.77,217.08a22.33,22.33,0,0,1-3,4,16.59,16.59,0,0,1-3.87,3.21l3.38-3.66C121.42,219.45,122.54,218.23,123.77,217.08Z" style="fill:#263238"></path><path d="M116.94,246c-4.23-.62,0-9.81,5.61-11.57C122.55,234.44,122.9,246.88,116.94,246Z" style="fill:#455a64"></path><path d="M122.55,234.76a22.62,22.62,0,0,1-1.67,4.74,17.18,17.18,0,0,1-2.74,4.22l2.14-4.51C121,237.72,121.71,236.22,122.55,234.76Z" style="fill:#263238"></path><path d="M134.15,257.18c-2.72,3.3-8.4-5.05-7-10.8C127.17,246.38,138,252.54,134.15,257.18Z" style="fill:#455a64"></path><path d="M127.45,246.55a22.43,22.43,0,0,1,3.18,3.89,16.91,16.91,0,0,1,2.18,4.53l-2.73-4.17C129.17,249.41,128.26,248,127.45,246.55Z" style="fill:#263238"></path><path d="M116,145.91c4,1.58-2.23,9.54-8.13,10C107.86,155.86,110.4,143.68,116,145.91Z" style="fill:#455a64"></path><path d="M107.93,155.55a21.76,21.76,0,0,1,2.73-4.22,16.47,16.47,0,0,1,3.64-3.48l-3.13,3.89C110.12,153,109.08,154.32,107.93,155.55Z" style="fill:#263238"></path><path d="M133.11,162c-.13,4.27-9.74,1.15-12.13-4.27C121,157.76,133.3,156,133.11,162Z" style="fill:#455a64"></path><path d="M121.3,157.72a22.79,22.79,0,0,1,4.9,1.13,16.5,16.5,0,0,1,4.5,2.25L126,159.47C124.42,158.93,122.85,158.39,121.3,157.72Z" style="fill:#263238"></path><path d="M136.73,183.73c-2.08,3.74-9.18-3.44-8.83-9.35C127.9,174.38,139.66,178.48,136.73,183.73Z" style="fill:#455a64"></path><path d="M128.21,174.49a22.88,22.88,0,0,1,3.83,3.25,16.44,16.44,0,0,1,3,4.06l-3.44-3.6C130.43,177,129.28,175.8,128.21,174.49Z" style="fill:#263238"></path><path d="M134.09,203.54c-3.14,2.9-7.65-6.14-5.46-11.64C128.63,191.9,138.51,199.46,134.09,203.54Z" style="fill:#455a64"></path><path d="M128.88,192.1a22.25,22.25,0,0,1,2.63,4.29,16.65,16.65,0,0,1,1.56,4.78l-2.15-4.5C130.21,195.17,129.49,193.68,128.88,192.1Z" style="fill:#263238"></path><path d="M131.14,220.17c-3.14,2.89-7.64-6.14-5.46-11.64C125.68,208.53,135.56,216.09,131.14,220.17Z" style="fill:#455a64"></path><path d="M125.93,208.73a21.87,21.87,0,0,1,2.63,4.28,16.81,16.81,0,0,1,1.56,4.79L128,213.29C127.26,211.79,126.54,210.3,125.93,208.73Z" style="fill:#263238"></path><path d="M130.26,234.92c-2.69,3.32-8.46-5-7.09-10.73C123.17,224.19,134.05,230.24,130.26,234.92Z" style="fill:#455a64"></path><path d="M123.45,224.35a22.37,22.37,0,0,1,3.22,3.86,16.5,16.5,0,0,1,2.23,4.51l-2.78-4.14C125.21,227.19,124.28,225.82,123.45,224.35Z" style="fill:#263238"></path><path d="M136.77,244.89c.18,4.27-9.63,1.86-12.41-3.36C124.36,241.53,136.52,238.88,136.77,244.89Z" style="fill:#455a64"></path><path d="M124.68,241.47a22.46,22.46,0,0,1,5,.76,16.48,16.48,0,0,1,4.66,1.91l-4.82-1.27C127.87,242.44,126.27,242,124.68,241.47Z" style="fill:#263238"></path><path d="M148.06,238.12c3.86,1.83-2.84,9.38-8.76,9.41C139.3,247.53,142.62,235.54,148.06,238.12Z" style="fill:#455a64"></path><path d="M139.39,247.22a22.76,22.76,0,0,1,3-4,16.82,16.82,0,0,1,3.85-3.23l-3.37,3.68C141.74,244.84,140.62,246.07,139.39,247.22Z" style="fill:#263238"></path><path d="M103.07,160.18a15.62,15.62,0,0,1,6.52-5.38,9.87,9.87,0,0,1,8.38.33,15.42,15.42,0,0,1,5.88,6.21,35.73,35.73,0,0,1,3.24,7.93,55.5,55.5,0,0,1,2.07,17,75.11,75.11,0,0,1-1,8.51c-.45,2.81-1,5.6-1.47,8.39-1,5.58-2.09,11.15-2.82,16.76a67.52,67.52,0,0,0-.5,16.85,17.41,17.41,0,0,0,2.73,7.8,11.15,11.15,0,0,0,3,2.83,9.12,9.12,0,0,0,3.87,1.36,11.84,11.84,0,0,0,7.9-2.2,15.32,15.32,0,0,0,5.35-6.43,15.09,15.09,0,0,1-5.2,6.65,12.24,12.24,0,0,1-8.1,2.47,9.59,9.59,0,0,1-4.11-1.37,11.65,11.65,0,0,1-3.2-2.94,18,18,0,0,1-3-8.06,44.61,44.61,0,0,1-.38-8.56c.11-2.85.38-5.69.74-8.52.7-5.64,1.72-11.24,2.74-16.82.52-2.79,1-5.57,1.51-8.37a74.84,74.84,0,0,0,1-8.38,57.18,57.18,0,0,0-1.9-16.72,35.22,35.22,0,0,0-3-7.84,14.91,14.91,0,0,0-5.56-6.08,9.67,9.67,0,0,0-4-1.17,9.81,9.81,0,0,0-4.11.65A15.91,15.91,0,0,0,103.07,160.18Z" style="fill:#455a64"></path></g><g id="freepik--Character--inject-57"><polygon points="223.43 426.43 236.32 426.43 233.94 288.92 225.81 288.92 223.43 426.43" style="fill:#a6a6a6"></polygon><polygon points="98.92 426.43 111.81 426.43 109.43 288.92 101.29 288.92 98.92 426.43" style="fill:#a6a6a6"></polygon><rect x="93.94" y="293.29" width="150.43" height="79.19" transform="translate(338.3 665.77) rotate(180)" style="fill:#dbdbdb"></rect><rect x="84.5" y="293.29" width="9.44" height="79.19" transform="translate(178.43 665.77) rotate(180)" style="fill:#a6a6a6"></rect><path d="M226.32,336.34a3.56,3.56,0,1,0,3.56-3.55A3.56,3.56,0,0,0,226.32,336.34Z" style="fill:#a6a6a6"></path><path d="M101.81,336.34a3.56,3.56,0,1,0,3.55-3.55A3.55,3.55,0,0,0,101.81,336.34Z" style="fill:#a6a6a6"></path><path d="M233.11,259.75C277.65,304.9,336.44,399.86,326,419.12c-11.63,21.44-73.65-41.85-73.41-45.54.18-2.8-28.89-54.74-41-102.44C200.59,227.45,222.1,248.58,233.11,259.75Z" style="fill:#ad6359"></path><path d="M225.92,347.62,275,302.28s-31.9-39.44-52.44-55.52c-15.1-11.83-21.19,1.13-19.82,14.26C207.38,305.26,225.92,347.62,225.92,347.62Z" style="fill:#455a64"></path><path d="M206.29,283.84c.17.85.34,1.7.52,2.54a11,11,0,0,0,8.37,1.72,8.05,8.05,0,0,0,4.88-3,9.67,9.67,0,0,0,1.55-6.2c-.16-4-2.15-9.49,1.38-12.57a8.44,8.44,0,0,1,6.12-1.65,22.47,22.47,0,0,1,7.37,2.36c3.13,1.42,6.79,3,10.32,2.86-.55-.58-1.09-1.16-1.65-1.74a15.71,15.71,0,0,1-2.58-.51c-4.92-1.41-9.25-4.86-14.57-4.75a9.9,9.9,0,0,0-6.12,2,7.94,7.94,0,0,0-2.72,5.61,34.87,34.87,0,0,0,.49,6.6c.22,2,.36,4.23-.56,6.1-1.7,3.47-6.2,3.92-9.48,2.73A9.13,9.13,0,0,1,206.29,283.84Zm37.2,47.55,2.25-2.07A6,6,0,0,0,243.49,331.39Zm-30.87-21.76c.17.6.35,1.19.52,1.78a7.48,7.48,0,0,0,5.39.2c2.42-.89,3.95-3,5.26-5.11s2.61-4.53,4.86-5.84a10.14,10.14,0,0,1,8.28-.54c4.67,1.58,7.57,5.65,9.39,10.06a7.92,7.92,0,0,0,.59,1.53,13,13,0,0,0,2.21,3.06c1.95,2,4.54,3.43,6.27,5.64l1.09-1a33.4,33.4,0,0,0-4.66-4.15c-2.31-1.89-6.52-8.66-7-9.49a14.82,14.82,0,0,0-6.44-6.15,12.26,12.26,0,0,0-8.19-.84,11.1,11.1,0,0,0-6.15,5c-1.37,2-2.54,4.47-4.61,5.89A6.39,6.39,0,0,1,212.62,309.63Z" style="fill:#37474f"></path><path d="M202.76,261c4.63,44.25,23.16,86.6,23.16,86.6l32.66-30.17-48.07-75.19C204.27,243.51,201.85,252.23,202.76,261Z" style="fill:#37474f"></path><path d="M266.16,296.14c-8.13,6.35-29.68,24.21-42.18,37.64-.07.08.2.41.29.34,12.08-9.61,34.75-30.48,42.3-37.51C266.71,296.48,266.32,296,266.16,296.14Z" style="fill:#263238"></path><path d="M250.4,426.57H81.06s44.39-162.3,91.86-190.3c9.76-5.76,36.24-4,45.43,10.39C238.93,278.88,250.87,426,250.4,426.57Z" style="fill:#455a64"></path><path d="M173.53,265.34a6.13,6.13,0,0,0,6.27,2c2.27-.71,3.72-2.66,5.43-4.19a8,8,0,0,1,5.64-2.07,8.85,8.85,0,0,1,5.43,2c1.95,1.65,2.63,4.06,3,6.49.82,5,1.51,10,4.67,14.13a11.29,11.29,0,0,0,11.17,4.36,8.05,8.05,0,0,0,4.88-3,9.67,9.67,0,0,0,1.55-6.2c-.16-4-2.15-9.49,1.38-12.57a6.75,6.75,0,0,1,3.06-1.46l-.54-1.67a8.91,8.91,0,0,0-3.63,1.73,7.94,7.94,0,0,0-2.72,5.61,34.87,34.87,0,0,0,.49,6.6c.22,2,.36,4.23-.56,6.1-1.7,3.47-6.2,3.92-9.48,2.73-4.3-1.56-6.51-6.13-7.64-10.27-.66-2.44-.91-4.94-1.42-7.4a10.61,10.61,0,0,0-3.13-6,10.39,10.39,0,0,0-11-1.68c-2.05.94-3.41,2.78-5.14,4.17a5.05,5.05,0,0,1-2.88,1.26,4.5,4.5,0,0,1-2.9-1,6.39,6.39,0,0,1-2.34-6.18,13.29,13.29,0,0,1,3.64-6.7c1.57-1.72,3.37-3.38,4.16-5.63a7.39,7.39,0,0,0-1.12-6.6,17.84,17.84,0,0,0-5-4.6,13.6,13.6,0,0,0-1.58.76,23.28,23.28,0,0,1,4.08,3.11c1.69,1.72,3.06,4.07,2.34,6.55s-2.72,4-4.28,5.77a14.54,14.54,0,0,0-3.75,7.1A7.9,7.9,0,0,0,173.53,265.34Zm-53.19,49.41a10.15,10.15,0,0,0,3.6,4.87,9.85,9.85,0,0,0,9.4,1.28,6.76,6.76,0,0,0,3.46-3.67,11.64,11.64,0,0,0,.28-6.54,46.89,46.89,0,0,1-1.17-6.17,9.81,9.81,0,0,1,.88-4.84,3.78,3.78,0,0,1,3.28-2.38c2.11,0,3.72,1.79,4.73,3.46,1.13,1.88,1.9,4,3.3,5.67a8,8,0,0,0,5.18,2.84,7.88,7.88,0,0,0,8.8-6,8.3,8.3,0,0,0-.67-5.69,11.21,11.21,0,0,0-3.95-3.94c-3-2-6.92-3.54-7.67-7.49a7.59,7.59,0,0,1,.9-5.19,8.42,8.42,0,0,1,4.19-3.28c3.35-1.44,7.43-2.27,8.92-6,1.61-4.06-.82-8.54-3.35-11.62a48,48,0,0,0-6.26-6.08l-.64.83,1.19,1.09c2.86,2.63,5.77,5.56,7.28,9.21a8.06,8.06,0,0,1,.36,6.13,7,7,0,0,1-3.83,3.4c-3.3,1.48-7.13,2.15-9.17,5.45a9,9,0,0,0,.61,10.32c2.35,2.84,6.13,3.83,8.68,6.42a6.38,6.38,0,0,1,1.91,4.76,6.13,6.13,0,0,1-7.4,6,6.7,6.7,0,0,1-4.53-3.22c-2.09-3.25-3.62-8.36-8.26-8.6-3.58-.19-5.53,3.23-6,6.33a14.28,14.28,0,0,0,.25,5.25,31.07,31.07,0,0,1,1,6.62,5.42,5.42,0,0,1-6,5.92,8.57,8.57,0,0,1-7.53-5.16,11.53,11.53,0,0,1-.73-2.34C121.05,313.14,120.69,313.94,120.34,314.75Zm48.71,13.35a10.79,10.79,0,0,0,5.35,6.57c6.23,3.15,13-1.22,19.43.47a7,7,0,0,1,3.54,2.05,7,7,0,0,1,1.61,3.65c.48,3.09-.52,6.15-1.46,9.05-1.06,3.29-2.16,6.86-1.28,10.32a8.36,8.36,0,0,0,4.38,5.4c4.17,2.11,9.76,1.34,12.33-2.84,1.71-2.77,1.91-6.1,2.69-9.19.63-2.52,2.16-5.6,4.87-6.4s4.61,1.19,5.44,3.48c1,2.69.64,5.43.49,8.22-.17,3.09,0,6.44,2.18,8.86,2,2.19,5.11,3.09,8,3.26a15.86,15.86,0,0,0,8.28-1.77c-.07-.54-.13-1.09-.2-1.64a14.1,14.1,0,0,1-7.51,1.89c-2.8-.07-6-.88-7.81-3.23s-1.52-5.87-1.33-8.76a16.45,16.45,0,0,0-1-8,6.18,6.18,0,0,0-5.43-4c-2.84,0-5.08,2.24-6.33,4.6-1.44,2.7-1.62,5.79-2.43,8.7-.69,2.46-1.94,4.74-4.42,5.74-3.74,1.51-9.08,0-10.46-4.1-1.17-3.41.06-7,1.12-10.32a23.49,23.49,0,0,0,1.57-8.76,8.42,8.42,0,0,0-4.2-7,14,14,0,0,0-8.27-1.2c-3.46.38-7,1.49-10.47.92a9,9,0,0,1-6.59-4.89,8.53,8.53,0,0,1,.1-7.95,9.05,9.05,0,0,1,6.28-4.64c2.67-.52,5.45-.19,8.09-.87a6.42,6.42,0,0,0,5-5.34c.42-3-1-6-2.24-8.61s-2.93-6.27-1.1-9.14a6.91,6.91,0,0,1,6.13-2.78c2.87.11,5.32,1.86,7.12,4,4.11,4.83,4.78,12,9.93,16,2.23,1.73,5.29,2.73,8,1.71,2.42-.89,3.95-3,5.26-5.11s2.61-4.53,4.86-5.84a9.44,9.44,0,0,1,5.78-1.1c-.08-.37-.15-.73-.22-1.09a11,11,0,0,0-4,.3,11.1,11.1,0,0,0-6.15,5c-1.37,2-2.54,4.47-4.61,5.89-2.57,1.76-5.71,1-8-.8-2.64-2-4-5.2-5.31-8.14-2.32-5.22-5.71-11.6-12.12-12.18a8.82,8.82,0,0,0-7,2.33c-2.25,2.28-2.21,5.56-1.21,8.42,1.06,3.06,3,5.82,3.44,9.09a5.62,5.62,0,0,1-.9,4.13,5.48,5.48,0,0,1-3.18,1.89c-2.65.64-5.43.31-8.1.86a10.66,10.66,0,0,0-6.77,4.77A10,10,0,0,0,169.05,328.1ZM99.81,390a7,7,0,0,0,8.55,0c2.08-1.68,3.15-4.26,4.43-6.54,1.13-2,2.8-4.33,5.43-4,3.26.45,5,4,5.09,6.9a25.34,25.34,0,0,1-.63,5.88c-.38,2-.75,3.93-1,5.92-.37,3.81-.17,8.05,2,11.36a10.63,10.63,0,0,0,7.17,4.59,7.32,7.32,0,0,0,7.49-3c1.78-2.73,1.4-6.22.82-9.25s-1.35-5.87-.57-8.8a5.25,5.25,0,0,1,2.24-3.21,6.18,6.18,0,0,1,4.93-.34c3.47,1,6,3.76,8.94,5.64a11.53,11.53,0,0,0,16.41-3.85,11.34,11.34,0,0,0,.53-9.21,11.47,11.47,0,0,0-6.62-6.71c-3.15-1.29-6.91-1.58-9.59-3.84a6.59,6.59,0,0,1-2.46-3.8,3.86,3.86,0,0,1,1.45-3.62c2.51-2,6.12-1.49,9-1.14,3.41.4,7.58.63,10-2.31a7.82,7.82,0,0,0,1-7.45,9.13,9.13,0,0,0-5.78-5.73,14.85,14.85,0,0,0-9.69.42,41.49,41.49,0,0,0-4.53,2.12,13.78,13.78,0,0,1-4.59,1.67,4.44,4.44,0,0,1-4-1.48,6.11,6.11,0,0,1-1.16-4.06,10.46,10.46,0,0,1,1.45-4.39c.8-1.61,1.1-3.26.05-4.85a12.2,12.2,0,0,0-7.45-4.67,12,12,0,0,0-8.06.86,8.59,8.59,0,0,0-3.05,2.66,17.7,17.7,0,0,0-2,4.81,10.36,10.36,0,0,1-2.4,4.21,9.61,9.61,0,0,1-3.81,2.35,7.79,7.79,0,0,1-4.46.14,10.91,10.91,0,0,1-4.19-2.55c-.67-.6-1.31-1.25-1.94-1.88-.14.36-.27.72-.41,1.07a21.75,21.75,0,0,0,2.88,2.8,9.19,9.19,0,0,0,8.48,1.7,10.52,10.52,0,0,0,6.51-5.78c.71-1.65,1-3.45,1.84-5.07a7.23,7.23,0,0,1,2.65-3,10.31,10.31,0,0,1,7.71-1,12.49,12.49,0,0,1,3.77,1.52c1.26.78,2.86,2,3.24,3.49s-1,3.12-1.53,4.52a9,9,0,0,0-.65,4.37c.33,3,2.35,5.57,5.54,5.8s6.21-1.9,9-3.23a14.78,14.78,0,0,1,9.21-1.38,7.71,7.71,0,0,1,5.92,5c.78,2.24.63,5-1.29,6.64-2.88,2.44-7.25,1.17-10.61.9-2.79-.22-6.16.15-8.22,2.25a5.44,5.44,0,0,0-1.54,3.95,7.08,7.08,0,0,0,1.72,4.1c2.18,2.71,5.5,3.62,8.69,4.59a17.91,17.91,0,0,1,4.71,2,9.09,9.09,0,0,1,3,3.28,9.85,9.85,0,0,1,.47,8.6,9.75,9.75,0,0,1-6.54,5.24,9.47,9.47,0,0,1-4.3.09,12.85,12.85,0,0,1-4.46-2.17c-2.85-2-5.4-4.5-8.9-5.34-3.16-.76-6.56.19-8.13,3.22-1.35,2.62-1.15,5.79-.64,8.6s1.46,6,.69,8.9a5.41,5.41,0,0,1-5.86,4.08,8.92,8.92,0,0,1-6.8-4.06c-2-3.33-2.06-7.46-1.57-11.22s1.84-7.66,1.46-11.54c-.29-3.08-1.9-6.17-4.86-7.44a6,6,0,0,0-7.11,1.88c-2.89,3.42-4.6,11.43-10.67,9.21A6.72,6.72,0,0,1,98,382.1c.38-3.52,2.7-6.16,5.4-8.24s5.76-4.23,6.75-7.73c.89-3.17-.7-6.09-3.42-7.73a13.71,13.71,0,0,0-3.22-1.36c-.19.51-.37,1-.55,1.51l.38.11c2.78.89,5.75,2.87,5.38,6.18-.41,3.66-4,5.89-6.6,8s-5,4.9-5.65,8.45A8.59,8.59,0,0,0,99.81,390ZM173,426.57h1.57a5.18,5.18,0,0,1,.6-1.14c1.46-2.09,4.16-2.13,6.47-2.12s4.52-.06,6.45-1.37a4.3,4.3,0,0,0,1.78-5.51c-1-2.21-3.29-3.55-5.42-4.5s-4.36-1.61-6.25-3c-1.63-1.2-3.08-3.13-2.52-5.25a5.42,5.42,0,0,1,3.61-3.44,10.66,10.66,0,0,1,5.84-.4c2.73.57,5.32,1.69,8.08,2.17,2.43.41,5.58.56,7.51-1.26,1.66-1.56,1.8-4.06,1.42-6.16-.45-2.52-2-5.1-1.31-7.71a6.25,6.25,0,0,1,3.76-4c4.26-1.83,8.55.63,11.1,4.07s3.21,8.16,6,11.57a7.2,7.2,0,0,0,5.57,2.75c2.56,0,4.87-1.32,7.1-2.42a14.27,14.27,0,0,1,6.52-1.8,14.08,14.08,0,0,1,6.28,1.61c.34.18.68.37,1,.57,0-.57-.11-1.14-.17-1.72a16.21,16.21,0,0,0-5.6-1.89,13.34,13.34,0,0,0-6.76.83c-2.44.95-4.71,2.53-7.33,3-4.89.82-6.82-4.47-8.32-8.07-1.83-4.39-4.72-8.79-9.5-10.3-3.9-1.24-8.94.37-10.77,4.21-1.21,2.53-.45,5.16.3,7.71.59,2,1.31,4.83-.38,6.49a5.19,5.19,0,0,1-3.66,1.11,16.31,16.31,0,0,1-4.11-.58c-2.66-.66-5.3-1.74-8.06-1.95-3.61-.28-8.67,1.24-9.62,5.24a6.3,6.3,0,0,0,2.06,6,18.9,18.9,0,0,0,6.34,3.52c2.18.88,4.72,1.95,5.85,4.16s-.91,3.87-2.85,4.45c-2.47.75-5.12.08-7.64.61a6.4,6.4,0,0,0-4.79,4.07A4,4,0,0,0,173,426.57Zm76.6,0h.82a16,16,0,0,0-.09-2.13A10.12,10.12,0,0,0,249.58,426.57ZM84.7,414c.26-.29.53-.55.81-.81,3.31-3,8.66-3.76,12.39-1.07,3.36,2.43,4,7,6.69,10a7.59,7.59,0,0,0,5.76,2.61c2.41,0,5.25-.87,7.49.36a4.85,4.85,0,0,1,1.66,1.52h1.92a6.83,6.83,0,0,0-5-3.75c-2.69-.46-5.59.71-8.2-.27-1.92-.72-3.07-2.51-4-4.23a39.78,39.78,0,0,0-3.27-5.71,10.2,10.2,0,0,0-6-3.67,11.93,11.93,0,0,0-9.38,2C85.3,412,85,413,84.7,414Zm-3.64,12.62h.09a2.28,2.28,0,0,1,0-.26C81.08,426.48,81.06,426.57,81.06,426.57Z" style="fill:#37474f"></path><path d="M220.54,256.32a.07.07,0,0,0-.13,0c0,7.84-.42,26-13.5,24.2-5.27-.72-9.91-4-13.76-7.28a71.37,71.37,0,0,1-10.52-11.13A101.14,101.14,0,0,1,173.07,248c-.11-.21-.43,0-.34.19A75.45,75.45,0,0,0,181.2,263a61.33,61.33,0,0,0,11.32,12.3c4.13,3.32,9.09,6.67,14.68,7.18a10.68,10.68,0,0,0,11.25-6.89C220.87,269.63,221.2,262.56,220.54,256.32Z" style="fill:#263238"></path><path d="M326,419.12c-10,14.34-37.31,17.07-105.38,30.4-9.42,1.85-40.32-61.12-30.36-63.61,12.54-3.13,61.89-12.57,65.58-12.8C287,371.13,332.79,409.39,326,419.12Z" style="fill:#ad6359"></path><path d="M218.06,381s-27.44-7-43-6.18c-20.83,1.07-38.37,10.56-45.48,15-14.84,9.23-44.34,41.82-36.44,51.95,7.16,9.17,35.63-25.66,35.63-25.66s-34.89,30.73-24.25,40.19,41.4-32.85,41.4-32.85-35.14,32.37-22.62,40.39c9.46,6.06,39.47-30.7,39.47-30.7s-30,28-20.55,34.69c10.46,7.35,40.29-24.84,40.29-24.84,26.9,12.86,45,8,57.41,3C242.94,444.74,218.06,381,218.06,381Z" style="fill:#ad6359"></path><path d="M140.17,404.69c-4.23,3.46-8.54,6.94-12.44,10.76s-7.69,7.79-11.22,12c-8.67,10.23-12.49,18-12.2,17.54,6.82-10.73,20.59-24.64,24.5-28.46s7.61-7.83,11.51-11.65C140.42,404.74,140.27,404.61,140.17,404.69Z" style="fill:#263238"></path><path d="M154.23,418.55c-5.21,4.65-10.55,9.08-15.55,14s-9.28,9.9-13.92,15.09c-.35.4,0,.46.35.08,4.84-5,9.7-9.26,14.59-14.2s9.6-10.08,14.65-14.82C154.43,418.59,154.31,418.48,154.23,418.55Z" style="fill:#263238"></path><path d="M168.44,428.27c-8.32,6.7-15.4,14.94-22.15,23.17-.33.42.1.45.47.05,7.22-7.85,12.83-14.05,21.92-22.93C168.82,428.42,168.62,428.13,168.44,428.27Z" style="fill:#263238"></path><path d="M215.52,380.69c3-.89,6.12-1.51,9.2-2.17s6.08-1.33,9.12-2l9.12-2c3-.65,6-1.34,9-1.72,11.65-1.45,23.33,1.88,33.68,7.05A192.52,192.52,0,0,1,302.83,390c.1.06,0,.21-.1.16C292.55,384.67,282.22,379,271,376.07a51.61,51.61,0,0,0-17-1.66,81.64,81.64,0,0,0-8.8,1.35l-9,1.7L226,379.36c-3.43.66-6.86,1.38-10.33,1.78A.23.23,0,0,1,215.52,380.69Z" style="fill:#263238"></path><path d="M206.3,272.81c-10.41.91-25.43-17-30.42-30.42-.34-.92,2.28-9.73,5-20.58,1.6-6.6,3.23-14,4.22-20.81.2-1.41,41.38,16.68,41.38,16.68s-6.31,13.72-8,25.66a15.43,15.43,0,0,0-.12,2.85c0,.13,0,.29,0,.47C218.44,252.12,216.35,271.93,206.3,272.81Z" style="fill:#ad6359"></path><path d="M213.91,246.25a26.64,26.64,0,0,0,4.43.41,4,4,0,0,0,0-.48,15.43,15.43,0,0,1,.12-2.85c1.67-11.92,8-25.65,8-25.65S193,203,186.25,201.11C186.42,209.21,188.69,242,213.91,246.25Z" style="fill:#263238"></path><path d="M172.55,162.71c-2.67,15.84,11.11,58.84,23.23,67.25,17.57,12.19,43.48,10.2,53.11-10.27,9.35-19.84-9.6-75.54-22.87-82.89C206.47,126,176.5,139.29,172.55,162.71Z" style="fill:#ad6359"></path><path d="M210.47,177.9a39.21,39.21,0,0,0,3.64-1.74c1.38-.69,2.56-1.09,3.37-2.49a2.08,2.08,0,0,0-.61-2.46c-1.6-1.13-3.51-.72-5.21,0a7.54,7.54,0,0,0-4,3.72C206.79,176.72,208.77,178.53,210.47,177.9Z" style="fill:#263238"></path><path d="M240.2,169.65a38.7,38.7,0,0,1-4,0c-1.54,0-2.77.16-4.12-.73a2.08,2.08,0,0,1-.55-2.48c.94-1.73,2.83-2.2,4.69-2.28a7.64,7.64,0,0,1,5.22,1.57C243,167,242,169.46,240.2,169.65Z" style="fill:#263238"></path><path d="M221.79,211c.71.72,1.42,1.72,2.52,1.84a8,8,0,0,0,3.28-.7.11.11,0,0,1,.13.16,4.08,4.08,0,0,1-3.89,1.57,3.24,3.24,0,0,1-2.34-2.74C221.45,211,221.68,210.9,221.79,211Z" style="fill:#263238"></path><path d="M223.85,202.19a10.36,10.36,0,0,0,7.88,2.62,13.07,13.07,0,0,0,3.63-.81,3.35,3.35,0,0,0,.67-.27c.21-.08.39-.16.62-.27a.76.76,0,0,0,.4-.82v0a1.45,1.45,0,0,0-.11-.29v0l-.07-.25c-.56-2.28-1.71-5.65-1.71-5.65.94.19,5.66.93,5.27-.23-3.25-9.61-6.86-20.3-12.12-29.18a.28.28,0,0,0-.51.23c2.75,9.36,7.14,18.17,10.05,27.52-1.48-.14-3.93-.49-5.1-.14-.3.18,2.35,6.48,2.52,7.52a.39.39,0,0,1,0,.12c-3.66,1.52-6.83,1.15-11.21-.39C223.79,201.74,223.61,202,223.85,202.19Z" style="fill:#263238"></path><path d="M233.1,203.9a11.49,11.49,0,0,1-3.88,4.36,5.3,5.3,0,0,1-3.06.77c-2.35-.18-2.79-2.22-2.7-4.05a12.24,12.24,0,0,1,.5-2.88A14.93,14.93,0,0,0,233.1,203.9Z" style="fill:#263238"></path><path d="M229.22,208.26a5.3,5.3,0,0,1-3.06.77c-2.35-.18-2.79-2.22-2.7-4.05C225.9,204.78,228.58,206,229.22,208.26Z" style="fill:#ff9abb"></path><path d="M236,179.12c0-.11.27.08.3.21.65,3,1.9,6.25,4.81,6.55.09,0,.12.16,0,.17C237.77,186.42,236.15,182,236,179.12Z" style="fill:#263238"></path><path d="M236.73,182.34a4.64,4.64,0,0,0,1.55,1.9,3.4,3.4,0,0,0,2.64.43,3,3,0,0,0,2-1.83,5.21,5.21,0,0,0,.28-2.41,9.77,9.77,0,0,0-.28-1.43,6.59,6.59,0,0,0-1.4-2.67,9.64,9.64,0,0,1,.46,2.14,13.46,13.46,0,0,1,.08,2c-.07,1.35-.52,2.59-1.53,2.79s-2-.34-2.79-1.48a21.89,21.89,0,0,1-1.86-3.79A9.53,9.53,0,0,0,236.73,182.34Z" style="fill:#263238"></path><path d="M219.74,184.64c-.06-.11-.19.2-.16.32.92,2.89,1.47,6.37-.9,8.08-.07.05,0,.2.07.16C221.85,191.84,221.06,187.23,219.74,184.64Z" style="fill:#263238"></path><path d="M220.71,187.78a4.61,4.61,0,0,1-.4,2.43,3.29,3.29,0,0,1-2.07,1.68,3,3,0,0,1-2.64-.58,5.43,5.43,0,0,1-1.44-1.95,9.88,9.88,0,0,1-.47-1.39,6.4,6.4,0,0,1-.12-3,9,9,0,0,0,.67,2.09,13.28,13.28,0,0,0,.92,1.76c.73,1.14,1.74,2,2.72,1.66s1.6-1.32,1.68-2.68a21,21,0,0,0-.28-4.21A9.51,9.51,0,0,1,220.71,187.78Z" style="fill:#263238"></path><path d="M172.85,199.31c12.13-1.16,16-16.51,11.26-27.54,0,0,32.59-1.1,29.84-27a25.46,25.46,0,0,0,22.64,8l5.14,8.84c3.11-1.49,5-11.37-4.18-17.32,0,0-2.69-12.66-13.37-18.75a17.68,17.68,0,0,0-19.19.52,26.75,26.75,0,0,0-20-1.53c-11.49,3.47-14.54,15-14.54,15s-15.28,5.66-16.1,17.33a23.57,23.57,0,0,0,6.25,18.21s-3.23,5.07.39,14.31C163.3,195.38,169.21,199.66,172.85,199.31Z" style="fill:#263238"></path><path d="M212.86,142.67a31,31,0,0,1,1.12,6.24,25.93,25.93,0,0,1-.15,6.23A16.32,16.32,0,0,1,208,165.56c-3.08,2.79-7.27,3.84-11.26,4.92-2.08.28-4.15.72-6.26.88s-4.22.23-6.36.41c2.12.16,4.26.22,6.4.33s4.27-.33,6.42-.49c4.18-.87,8.57-2,12-4.89a17.12,17.12,0,0,0,6-11.43A25.84,25.84,0,0,0,212.86,142.67Z" style="fill:#263238"></path><path d="M170.44,139.59a29.93,29.93,0,0,0-11.32,4.51,18,18,0,0,0-7.52,9.78,19.78,19.78,0,0,0-.51,6.25,18.23,18.23,0,0,0,1.33,6.09,16.67,16.67,0,0,0,8.17,8.91,18.3,18.3,0,0,1-7.09-9.32,20.42,20.42,0,0,1-.46-11.53,15.44,15.44,0,0,1,2.54-5.16,23.6,23.6,0,0,1,4.21-4.08A37.64,37.64,0,0,1,170.44,139.59Z" style="fill:#263238"></path><path d="M205,126.13a30.47,30.47,0,0,1,9.07-3.38,18.53,18.53,0,0,1,9.33.49,18.79,18.79,0,0,1,7.71,5.28,33.34,33.34,0,0,1,5.27,8.12,24.5,24.5,0,0,0-4.39-8.87,17.76,17.76,0,0,0-8.12-6,17.47,17.47,0,0,0-10.05-.19A23.17,23.17,0,0,0,205,126.13Z" style="fill:#263238"></path><path d="M231.77,154.71a33.62,33.62,0,0,1-10.54-3.59,20.31,20.31,0,0,1-4.39-3.27,24.86,24.86,0,0,1-3.49-4.39,13.77,13.77,0,0,0,2.64,5.16,14.83,14.83,0,0,0,4.5,3.8,18.9,18.9,0,0,0,5.5,2A17.56,17.56,0,0,0,231.77,154.71Z" style="fill:#263238"></path><path d="M185.71,197.6s-12.07-12.71-18-8.2,4.65,24,12.64,25.65a7.78,7.78,0,0,0,9.69-5.68Z" style="fill:#ad6359"></path><path d="M170.9,194.91c-.13,0-.13.18,0,.21,5.62,1.35,9.16,5.84,11.88,10.65-1.87-1.73-4.18-2.48-6.53-.21-.12.12,0,.32.19.27a4.78,4.78,0,0,1,5.45.86,23.14,23.14,0,0,1,3.13,3.84c.32.44,1.14.06.88-.46a.75.75,0,0,0-.07-.12C184.94,203.17,178.26,194.49,170.9,194.91Z" style="fill:#263238"></path><path d="M225.84,210.86l5,3.67c1.5,1.1,73.93,44.41,81.29,49.49l29.45-40.41c-7.12-5.48-70.52-61.12-72-62.22l-5-3.67Z" style="fill:#F7552F;opacity:0.4"></path><ellipse cx="268.78" cy="214.75" rx="12.64" ry="14.83" transform="translate(-63.06 305.54) rotate(-53.92)" style="fill:#F7552F"></ellipse><ellipse cx="268.78" cy="214.75" rx="11.64" ry="13.67" transform="translate(-63.06 305.53) rotate(-53.92)" style="fill:#fff"></ellipse><path d="M258.19,210.6c.79.48,10.59,4.16,10.59,4.16s-6.5-8.21-7.2-8.82-2.16.25-3,1.39S257.4,210.12,258.19,210.6Z" style="fill:#F7552F"></path><path d="M263.27,205.05c.28.83,5.51,9.71,5.51,9.71s.87-9.34.75-10.18-1.94-1.33-3.48-1.21S263,204.22,263.27,205.05Z" style="fill:#F7552F"></path><path d="M271.58,205.19c-.39.69-2.8,9.57-2.8,9.57s7.73-5,8.27-5.58-.59-2.12-1.94-3.1S272,204.5,271.58,205.19Z" style="fill:#F7552F"></path><path d="M278.25,210.94c-.83.15-9.47,3.82-9.47,3.82s10.06,2.27,10.94,2.29,1.11-1.67.75-3.18S279.09,210.79,278.25,210.94Z" style="fill:#F7552F"></path><path d="M279.38,218.92c-.8-.48-10.6-4.16-10.6-4.16s6.5,8.21,7.2,8.82,2.17-.24,3-1.39S280.17,219.41,279.38,218.92Z" style="fill:#F7552F"></path><path d="M274.3,224.47c-.29-.82-5.52-9.71-5.52-9.71s-.86,9.35-.75,10.19,2,1.33,3.49,1.21S274.58,225.3,274.3,224.47Z" style="fill:#F7552F"></path><path d="M266,224.33c.39-.69,2.8-9.57,2.8-9.57s-7.72,5-8.26,5.59.59,2.12,1.93,3.1S265.59,225,266,224.33Z" style="fill:#F7552F"></path><path d="M259.31,218.59c.84-.15,9.47-3.83,9.47-3.83s-10.06-2.27-10.93-2.28-1.11,1.67-.75,3.17S258.48,218.73,259.31,218.59Z" style="fill:#F7552F"></path><path d="M302.7,233.09c7.49,1.32,14.09-3.16,14.75-10s-4.89-13.45-12.37-14.76-14.09,3.16-14.75,10S295.22,231.78,302.7,233.09Z" style="fill:#F7552F"></path><path d="M302.8,232.12c6.89,1.21,13-2.92,13.58-9.22s-4.5-12.39-11.4-13.6-13,2.92-13.58,9.22S295.9,230.91,302.8,232.12Z" style="fill:#fff"></path><path d="M293.56,221.77c.85.07,10.33-1.05,10.33-1.05s-8.95-4.37-9.79-4.6-1.6,1.18-1.74,2.57S292.71,221.69,293.56,221.77Z" style="fill:#F7552F"></path><path d="M295,214.58c.61.6,8.86,6.14,8.86,6.14s-3.63-8.68-4.11-9.37-2.16-.31-3.33.49S294.42,214,295,214.58Z" style="fill:#F7552F"></path><path d="M301.69,211c0,.79,2.2,9.74,2.2,9.74s3.83-7.9,4-8.65-1.45-1.62-3-1.89S301.68,210.2,301.69,211Z" style="fill:#F7552F"></path><path d="M309.64,213.09c-.59.51-5.75,7.63-5.75,7.63s9-2.49,9.74-2.87.11-2-.87-3.15S310.24,212.59,309.64,213.09Z" style="fill:#F7552F"></path><path d="M314.23,219.67c-.85-.07-10.34,1.05-10.34,1.05s9,4.37,9.8,4.59,1.6-1.18,1.73-2.57S315.08,219.74,314.23,219.67Z" style="fill:#F7552F"></path><path d="M312.76,226.86c-.61-.61-8.87-6.14-8.87-6.14s3.64,8.67,4.12,9.36,2.15.31,3.32-.48S313.37,227.47,312.76,226.86Z" style="fill:#F7552F"></path><path d="M306.1,230.45c0-.78-2.21-9.73-2.21-9.73s-3.82,7.89-4,8.65,1.44,1.61,3,1.88S306.1,231.24,306.1,230.45Z" style="fill:#F7552F"></path><path d="M298.14,228.34c.6-.5,5.75-7.62,5.75-7.62s-9,2.49-9.73,2.86-.11,2,.87,3.15S297.55,228.85,298.14,228.34Z" style="fill:#F7552F"></path><g style="opacity:0.6000000000000001"><path d="M288.85,191.52c-.16,0-5.91,1.71-6.31,1.76s-4.44,1.19-4.52,1.22-1.71,3-1.86,3.17-2.18,3.73-2.23,4,2.4,4.67,2.75,5.66a43,43,0,0,0,3.55,6.28c.33.13,5.24-1.46,5.94-1.64s5.44-1,5.71-1.24,1.59-3.9,1.94-4.72,1.87-3.37,1.62-3.86-2.1-3.74-2.69-4.51S289.27,191.61,288.85,191.52Z" style="fill:#fff;opacity:0.6000000000000001"></path><path d="M293.82,203c-.05-.12-5.32,1.44-5.81,1.52a32,32,0,0,0-4.75.92A29.19,29.19,0,0,0,282,208.5c-.27.52-2,3.7-1.86,3.92s5.26-1.31,6.08-1.39,4.57-.72,5-1.31,1-3,1.54-4.17S293.82,203,293.82,203Z" style="fill:#F7552F;opacity:0.5"></path><path d="M289.77,194.74c.1.1,3.1,5.49,3.1,5.49s-1.76-.79-1.83-1.26-.18-1.05-.18-1.05-1.59-.1-1.59-.59A24,24,0,0,1,289.77,194.74Z" style="fill:#fff"></path><path d="M286.22,193.64c-.11-.28-2,.58-2.61.61s-4.37.52-4.74.62a2.56,2.56,0,0,0-1,1.16,8,8,0,0,1,1.81-.12c.7.12,1.54,1.39,1.86,1.19s.85-1.19,1.35-1.26,1,.52,1.34.27,1-.44,1.21-.73S286.22,193.64,286.22,193.64Z" style="fill:#fff"></path><path d="M289,192.68a40.1,40.1,0,0,1-2.49,5c-.18-.07-.13-.57,0-.74s1.43-4.13,1.63-4.42C288.53,192,289.11,192,289,192.68Z" style="fill:#fff"></path><path d="M284.07,211.21c-.2-.25-2.22.65-2.93.49s-2.64-4.37-2.8-4.7-.65-.78-.7-.38a52,52,0,0,0,2.22,5.25,3.67,3.67,0,0,0,1.09,1.06,4.3,4.3,0,0,0,1.48-.36C282.77,212.42,284.38,211.61,284.07,211.21Z" style="fill:#fff"></path><path d="M291.07,209.46c-.2.08-2.07-2.77-2.47-3.37a16.81,16.81,0,0,1-1.86-3.16,27.51,27.51,0,0,0-1.35-3.85,43.64,43.64,0,0,0-5.07,1.55,22.55,22.55,0,0,1-3.89,1.14c-.54,0-1.35,0-1.34-.2s3.38-1,4.21-1.34a53.49,53.49,0,0,1,6.3-1.95,45.25,45.25,0,0,1,1.82,4.3c.13.41,1.46,2.28,1.6,2.58S291.38,209.33,291.07,209.46Z" style="fill:#F7552F;opacity:0.6000000000000001"></path><path d="M311.09,213.54c.14,0,5.3,1.53,5.66,1.58s4,1.07,4.06,1.09,1.53,2.67,1.67,2.85,2,3.35,2,3.61-2.16,4.19-2.47,5.08a37.5,37.5,0,0,1-3.19,5.64c-.29.11-4.7-1.31-5.32-1.47s-4.89-.91-5.13-1.11-1.43-3.51-1.74-4.24-1.68-3-1.45-3.46,1.87-3.36,2.41-4.05S310.71,213.62,311.09,213.54Z" style="fill:#fff;opacity:0.6000000000000001"></path><path d="M306.63,223.85c.05-.11,4.77,1.3,5.22,1.36a29.62,29.62,0,0,1,4.25.83,25.12,25.12,0,0,1,1.16,2.74,24,24,0,0,1,1.67,3.52c-.11.2-4.72-1.18-5.46-1.25s-4.1-.64-4.52-1.18-.89-2.72-1.38-3.74S306.63,223.85,306.63,223.85Z" style="fill:#F7552F;opacity:0.5"></path><path d="M310.26,216.43c-.09.09-2.78,4.93-2.78,4.93s1.58-.71,1.65-1.14.15-.93.15-.93,1.43-.09,1.43-.54A21.82,21.82,0,0,0,310.26,216.43Z" style="fill:#fff"></path><path d="M313.45,215.44c.1-.25,1.78.52,2.34.55s3.92.47,4.26.55a2.35,2.35,0,0,1,.91,1.05,6.66,6.66,0,0,0-1.63-.11c-.62.11-1.38,1.25-1.67,1.07s-.75-1.07-1.2-1.14-.89.47-1.2.25-.92-.4-1.1-.66S313.45,215.44,313.45,215.44Z" style="fill:#fff"></path><path d="M310.94,214.58a37.47,37.47,0,0,0,2.24,4.53c.16-.07.11-.52,0-.67s-1.29-3.71-1.47-4C311.38,214,310.85,214,310.94,214.58Z" style="fill:#fff"></path><path d="M315.38,231.21c.18-.22,2,.58,2.63.44s2.36-3.92,2.51-4.21.58-.7.63-.35a46.9,46.9,0,0,1-2,4.71,3.17,3.17,0,0,1-1,.95,3.82,3.82,0,0,1-1.33-.32C316.54,232.29,315.1,231.57,315.38,231.21Z" style="fill:#fff"></path><path d="M309.09,229.64a22,22,0,0,0,2.22-3,15.34,15.34,0,0,0,1.67-2.84,24.6,24.6,0,0,1,1.22-3.46,40.86,40.86,0,0,1,4.54,1.39,20.39,20.39,0,0,0,3.49,1c.49,0,1.22,0,1.21-.18s-3-.88-3.78-1.2a49,49,0,0,0-5.65-1.75,37.34,37.34,0,0,0-1.64,3.86c-.11.36-1.31,2-1.44,2.31S308.81,229.53,309.09,229.64Z" style="fill:#F7552F;opacity:0.6000000000000001"></path><path d="M287.58,222c.12-.11,5.95-1.57,6.32-1.74s4.54-1,4.61-1,2.89,1.37,3.12,1.46,3.79,2.07,4,2.3.34,5.24.55,6.27a42.32,42.32,0,0,1,.2,7.22c-.21.27-5.25,1.44-5.93,1.65s-5.19,1.93-5.54,1.88-3.36-2.75-4.08-3.27-3.21-1.58-3.25-2.12-.27-4.41-.16-5.38S287.27,222.28,287.58,222Z" style="fill:#fff;opacity:0.6000000000000001"></path><path d="M288.45,234.39c0-.13,6.1-1.51,6.56-1.7a33.46,33.46,0,0,1,4.54-1.66,29,29,0,0,1,2.68,2,26.38,26.38,0,0,1,3.62,2.4c0,.25-5.19,1.58-5.93,1.94s-4.29,1.74-5,1.47-2.41-2.08-3.47-2.78A32.91,32.91,0,0,0,288.45,234.39Z" style="fill:#F7552F;opacity:0.5"></path><path d="M288.46,225.21c0,.14.17,6.31.17,6.31s1.1-1.59.92-2-.39-1-.39-1,1.31-.9,1-1.33A24.24,24.24,0,0,0,288.46,225.21Z" style="fill:#fff"></path><path d="M290.23,222.15c0-.3,2.14-.35,2.74-.6s4.4-1.45,4.79-1.53,5.26,2.1,4.93,2.2a4,4,0,0,1-1.18.08c-.56-.06-2-.32-2.51-.42a6.9,6.9,0,0,0-1.58-.26c-.62.42-.86,1.64-1.26,1.61s-1.3-.71-1.81-.56-.73.91-1.16.84-1.16,0-1.47-.13A18.45,18.45,0,0,1,290.23,222.15Z" style="fill:#fff"></path><path d="M301.83,236.38c0-.31,2.23-.58,2.77-1.08s0-5.1,0-5.47.15-1,.4-.69a50.16,50.16,0,0,1,.8,5.65,3.66,3.66,0,0,1-.39,1.47,4.14,4.14,0,0,1-1.45.44C303.56,236.76,301.76,236.89,301.83,236.38Z" style="fill:#fff"></path><path d="M294.77,227.41c.24.12.63,11.42.15,11.39s-.61-6.23-.61-6.82S294.31,227.16,294.77,227.41Z" style="fill:#fff"></path><path d="M305,224.15c-.47.15-9.41,3.06-9.64,3s-7.09-4.24-7.19-4.48.37-.3.58-.16,6.28,3.55,6.61,3.57,8.85-2.13,9.06-2.22S305.23,224.06,305,224.15Z" style="fill:#F7552F;opacity:0.6000000000000001"></path></g><path d="M233.56,209.09S303,250.82,311,256.28l22.93-31.47c-7.63-5.88-47.89-40.12-51.6-42.82,0,0-11.64,13.41-15.89,16.5C254.13,207.37,240,200.34,233.56,209.09Z" style="fill:#F7552F;opacity:0.6000000000000001"></path><path d="M154.28,294.14c9.38,37.81,22.87,91.39,50.77,105.36,26.86,13.46,90.82-74.81,103.44-94.21,5.18-8-49.1-59.47-55.64-51.71-14.36,17.06-38.13,62.26-39.36,62.32s-14.2-22.52-32.34-48C155.54,231.84,148.74,271.81,154.28,294.14Z" style="fill:#ad6359"></path><path d="M305.6,183.3c8.33,3.35,4.74,11.9,4.74,11.9s5.84-2.31,11.41,0c6.38,2.66,5,13.83,5,13.83a20.72,20.72,0,0,1,12,1.94c5.85,3.16,6.06,14.63,6.06,14.63s6.53,2.24,9.52,8.37c5.1,10.48-4.25,25.63-10.26,35.21-8.92,14.25-31.69,31.5-36.19,36.16L245.65,268s14.82-50.32,22.73-61.18C276.47,195.72,297.4,180,305.6,183.3Z" style="fill:#ad6359"></path><path d="M309.08,195c-9.89,7.45-17,17.41-24.74,26.94a.21.21,0,0,0,.33.27c7.55-9.58,16.9-17.53,24.82-26.78A.3.3,0,0,0,309.08,195Z" style="fill:#263238"></path><path d="M325.82,208.76c-2.19,1.75-3.79,4.22-5.43,6.47q-2.64,3.61-5.15,7.33-5.06,7.44-9.72,15.11c-.14.23.18.49.33.26,3.37-4.93,6.8-9.81,10.36-14.59q2.69-3.6,5.41-7.14c1.7-2.2,3.67-4.39,4.84-6.93A.43.43,0,0,0,325.82,208.76Z" style="fill:#263238"></path><path d="M344.71,225.82c-2,1.45-3.27,4.07-4.58,6.08q-2.22,3.43-4.49,6.84c-3,4.55-6,9.09-9.22,13.52-.16.22.17.49.33.27,3.25-4.49,6.56-8.94,9.78-13.46,1.57-2.22,3.14-4.44,4.69-6.68,1.32-1.9,3.19-4.12,3.72-6.42A.15.15,0,0,0,344.71,225.82Z" style="fill:#263238"></path><path d="M213.24,315.53a72.22,72.22,0,0,0-2.22,13.7,125,125,0,0,0-.31,13.37c0,.1.23,0,.23-.07.24-4.47.94-9.06,1.42-13.58s1.37-9.13,1.61-13.58C214,315.08,213.33,315.23,213.24,315.53Z" style="fill:#263238"></path><path d="M182.32,374.59c1.34,2.14,2.81,4.21,4.27,6.28s3,4.12,4.7,6.06a49.39,49.39,0,0,0,10,9.43A18.19,18.19,0,0,0,214,399.63c4.93-.71,9.41-3.16,13.6-5.74A140.9,140.9,0,0,0,249.69,377a231.84,231.84,0,0,0,19.21-20.43c6.07-7.19,11.76-14.69,17.73-22,.76-.93,1.52-1.86,2.27-2.81.16-.19.49,0,.34.21-2.7,4-5.42,8-8.21,11.91s-5.8,7.67-8.81,11.4a223.89,223.89,0,0,1-19.39,21.33,143.19,143.19,0,0,1-22.43,17.74c-4.21,2.65-8.62,5.26-13.47,6.52a19.21,19.21,0,0,1-13.88-1.5c-4.06-2.09-7.39-5.38-10.34-8.81a79.26,79.26,0,0,1-8.89-12.41c-.64-1.11-1.21-2.26-1.79-3.41A.16.16,0,0,1,182.32,374.59Z" style="fill:#263238"></path><path d="M161.71,356.26l51.19-43s-25.31-42.44-43.11-61.5c-10-10.68-18.46,3.72-19.39,16.89C147.11,314.79,161.71,356.26,161.71,356.26Z" style="fill:#455a64"></path><path d="M173.53,265.34a6.13,6.13,0,0,0,6.27,2,7.25,7.25,0,0,0,1.94-1c-.31-.42-.63-.83-.94-1.24a4.18,4.18,0,0,1-5.29-.08,6.39,6.39,0,0,1-2.34-6.18,9.57,9.57,0,0,1,.72-2.41c-.35-.42-.71-.84-1.07-1.25a11.82,11.82,0,0,0-1.16,3.42A7.9,7.9,0,0,0,173.53,265.34Zm-23.54,25,.08.09c2.35,2.77,6.08,3.77,8.6,6.33a6.38,6.38,0,0,1,1.91,4.76,6.13,6.13,0,0,1-7.4,6,6.2,6.2,0,0,1-1.9-.66c.07.65.14,1.3.22,1.94a7.62,7.62,0,0,0,1.78.45,7.88,7.88,0,0,0,8.8-6,8.3,8.3,0,0,0-.67-5.69,11.21,11.21,0,0,0-3.95-3.94c-2.83-1.84-6.42-3.34-7.49-6.75-.07-.24-.13-.48-.18-.74a7.59,7.59,0,0,1,.13-3.35,7.1,7.1,0,0,1,.77-1.84,8.42,8.42,0,0,1,4.19-3.28c3.35-1.44,7.43-2.27,8.92-6,1.61-4.06-.82-8.54-3.35-11.62a46.08,46.08,0,0,0-5.86-5.74c-.19.31-.36.62-.54.95l.69.63c2.86,2.63,5.77,5.56,7.28,9.21a8.06,8.06,0,0,1,.36,6.13,7,7,0,0,1-3.83,3.4c-3,1.35-6.48,2-8.6,4.66a6.34,6.34,0,0,0-.57.79A9,9,0,0,0,150,290.36Zm19.06,37.74a10.79,10.79,0,0,0,5.35,6.57c4.06,2.05,8.36.91,12.63.34l2.32-1.94c-.38,0-.75.05-1.12.09-3.46.38-7,1.49-10.47.92a9,9,0,0,1-6.59-4.89,8.53,8.53,0,0,1,.1-7.95,9.05,9.05,0,0,1,6.28-4.64c2.67-.52,5.45-.19,8.09-.87a6.42,6.42,0,0,0,5-5.34c.42-3-1-6-2.24-8.61s-2.93-6.27-1.1-9.14a6.91,6.91,0,0,1,6.13-2.78c2.87.11,5.32,1.86,7.12,4a15.78,15.78,0,0,1,1.06,1.38c-1.11-1.73-2.28-3.53-3.5-5.38A9.92,9.92,0,0,0,194,288.5a8.82,8.82,0,0,0-7,2.33c-2.25,2.28-2.21,5.56-1.21,8.42,1.06,3.06,3,5.82,3.44,9.09a5.62,5.62,0,0,1-.9,4.13,5.48,5.48,0,0,1-3.18,1.89c-2.65.64-5.43.31-8.1.86a10.66,10.66,0,0,0-6.77,4.77A10,10,0,0,0,169.05,328.1ZM202,295.76c2.95,4.67,4,10.63,8.53,14.14.2.16.41.31.62.45C209.23,307.27,206,302,202,295.76Zm-42.82,52.07c.13.5.27,1,.41,1.45a13.92,13.92,0,0,1,7.57-.7,8.84,8.84,0,0,1,2.57,1l1.24-1a10.22,10.22,0,0,0-2.2-1.08A14.75,14.75,0,0,0,159.14,347.83Z" style="fill:#37474f"></path><path d="M204.35,306.74c-8.43,6-30.8,22.78-43.92,35.61-.08.08.18.41.27.35,12.52-9,36.16-28.8,44-35.46C204.88,307.11,204.5,306.63,204.35,306.74Z" style="fill:#263238"></path><path d="M148.63,302.53a0,0,0,0,1,.09,0c.72,2.42,1.49,4.82,2.25,7.22.06.17.1.34.16.52L150.8,306c-.16-2.16-.35-4.33-.34-6.5a.14.14,0,0,1,.28,0c.37,1.89.61,3.81.9,5.71s.61,3.65.92,5.47c.64,3.74,1.31,7.47,1.93,11.21q1.84,11.24,4.46,22.34c.87,3.67,1.88,7.3,2.78,11a60.32,60.32,0,0,1,8.09-5.73c.33-.21.73.3.41.56a105.68,105.68,0,0,0-8.4,7.57,1,1,0,0,1-1.57-.45c-1.16-3.65-2-7.42-2.92-11.14s-1.73-7.48-2.5-11.24-1.45-7.45-2.08-11.2c-.55-3.26-1-6.52-1.31-9.81a33.27,33.27,0,0,1-1.3-3.67A52.31,52.31,0,0,1,148.63,302.53Z" style="fill:#263238"></path><path d="M194,284.08c2.22,2.8,4.36,5.67,6.47,8.56-.72-1.94-1.42-3.89-2.23-5.79a.07.07,0,0,1,.12-.07,24.11,24.11,0,0,1,3.17,7.31l.68.93c2.68,3.72,5.1,7.66,7.53,11.56,1.37,2.21,2.75,4.42,4,6.71a.43.43,0,0,1-.27.62,4.3,4.3,0,0,0-1.59.78c-.07.06-.2,0-.14-.11a6.79,6.79,0,0,1,1.06-1.15c-2.63-3.55-5-7.27-7.5-10.94-1.27-1.89-2.56-3.77-3.8-5.69s-2.44-3.94-3.66-5.9q-2.07-3.3-4.07-6.64C193.67,284.11,193.89,283.94,194,284.08Z" style="fill:#263238"></path></g><g id="freepik--Jar--inject-57"><path d="M443.14,371.11C456.7,354,456.26,350.53,456.07,349c-.05-.41-7.06-22.27-19.71-22.27h-24.9c.08-4.8.23-8.48.35-9.3.5-3.66,2.25-7.1,5-7.1s2.8-3.43,0-3.43h-52c-2.78,0-2.78,3.43,0,3.43s13.17,4,14.73,6,2,14.08,1.61,20.9-31.81,24.32-36.28,44.89c-3.24,15,1.65,34.55,21.95,44.1H426c20.3-9.55,25.2-29.15,22-44.1A34.34,34.34,0,0,0,443.14,371.11Zm-31.82-35.42h24.52c4,3.1,8.59,8.63,9.64,15.33-.85,2.2-3.47,6.91-7.94,12.72C426.91,351.51,411.25,344,411.32,335.69Z" style="fill:#F7552F;opacity:0.4"></path><path d="M412.46,381.89c5.28-3.64,7.06-10.35,4-15s-9.83-5.45-15.1-1.81-7.06,10.35-4,15S407.19,385.53,412.46,381.89Z" style="fill:#F7552F"></path><path d="M412,381.23c4.85-3.35,6.5-9.53,3.68-13.81s-9-5-13.91-1.67-6.51,9.53-3.68,13.81S407.17,384.58,412,381.23Z" style="fill:#fff"></path><path d="M401.09,380.29c.56-.46,5.83-6.8,5.83-6.8s-7.73,2.61-8.36,3-.39,1.69.24,2.63S400.53,380.75,401.09,380.29Z" style="fill:#F7552F"></path><path d="M398.35,375c.68,0,8.57-1.46,8.57-1.46s-6.64-3.23-7.28-3.37-1.49,1.09-1.8,2.28S397.67,374.93,398.35,375Z" style="fill:#F7552F"></path><path d="M400.62,368.75c.41.48,6.3,4.74,6.3,4.74s-1.66-7.18-1.94-7.74-1.71-.14-2.78.6S400.22,368.27,400.62,368.75Z" style="fill:#F7552F"></path><path d="M406.59,365.33c-.11.67.33,8.16.33,8.16s4.29-6.92,4.54-7.57-.94-1.3-2.14-1.44S406.7,364.66,406.59,365.33Z" style="fill:#F7552F"></path><path d="M412.74,366.69c-.56.46-5.82,6.8-5.82,6.8s7.73-2.61,8.35-3,.39-1.69-.23-2.63S413.3,366.23,412.74,366.69Z" style="fill:#F7552F"></path><path d="M415.49,372c-.68,0-8.57,1.46-8.57,1.46s6.63,3.23,7.28,3.37,1.48-1.09,1.8-2.28S416.17,372.05,415.49,372Z" style="fill:#F7552F"></path><path d="M413.21,378.23c-.4-.48-6.29-4.74-6.29-4.74s1.65,7.18,1.94,7.74,1.71.15,2.78-.59S413.61,378.71,413.21,378.23Z" style="fill:#F7552F"></path><path d="M407.25,381.65c.11-.67-.33-8.16-.33-8.16s-4.3,6.93-4.54,7.58.94,1.29,2.13,1.44S407.14,382.32,407.25,381.65Z" style="fill:#F7552F"></path><path d="M421.48,402.57c3.84,3.63,9.13,3.27,11.82-.82s1.76-10.35-2.08-14-9.13-3.28-11.82.81S417.64,398.93,421.48,402.57Z" style="fill:#F7552F"></path><path d="M421.86,402c3.54,3.36,8.41,3,10.89-.74s1.62-9.54-1.91-12.89-8.41-3-10.89.75S418.33,398.63,421.86,402Z" style="fill:#fff"></path><path d="M420.08,392c.46.37,6.27,3.21,6.27,3.21s-3.64-6.12-4.05-6.58-1.31.15-1.86,1S419.62,391.6,420.08,392Z" style="fill:#F7552F"></path><path d="M423.36,388c.14.61,3,7.21,3,7.21s.86-6.85.82-7.47-1.13-1-2.07-.94S423.21,387.35,423.36,388Z" style="fill:#F7552F"></path><path d="M428.38,388.18c-.26.5-2,7-2,7s4.86-3.57,5.2-4-.28-1.56-1.06-2.3S428.64,387.68,428.38,388.18Z" style="fill:#F7552F"></path><path d="M432.22,392.5c-.51.09-5.87,2.67-5.87,2.67s6,1.81,6.54,1.84.73-1.22.57-2.33S432.73,392.4,432.22,392.5Z" style="fill:#F7552F"></path><path d="M432.62,398.38c-.47-.36-6.27-3.21-6.27-3.21s3.64,6.13,4,6.58,1.31-.14,1.86-1S433.08,398.75,432.62,398.38Z" style="fill:#F7552F"></path><path d="M429.34,402.39c-.14-.62-3-7.22-3-7.22s-.86,6.86-.82,7.48,1.13,1,2.07.93S429.48,403,429.34,402.39Z" style="fill:#F7552F"></path><path d="M424.31,402.16c.26-.5,2-7,2-7s-4.86,3.57-5.2,4,.28,1.57,1.06,2.31S424.05,402.67,424.31,402.16Z" style="fill:#F7552F"></path><path d="M420.48,397.85c.51-.1,5.87-2.68,5.87-2.68s-6-1.81-6.54-1.83-.73,1.21-.57,2.32S420,397.94,420.48,397.85Z" style="fill:#F7552F"></path><path d="M361.69,394.41c-3.36,4.56-1.74,9.71,3.62,11.52a15,15,0,0,0,15.8-5c3.36-4.56,1.73-9.72-3.63-11.52A15,15,0,0,0,361.69,394.41Z" style="fill:#F7552F"></path><ellipse cx="371.4" cy="397.68" rx="10.79" ry="7.86" transform="translate(-102.66 130.56) rotate(-17.56)" style="fill:#fff"></ellipse><path d="M373.7,390.81c-.32.54-2.31,6.87-2.31,6.87s6.3-4.88,6.74-5.38-.47-1.27-1.56-1.64S374,390.28,373.7,390.81Z" style="fill:#F7552F"></path><path d="M379.1,393.21c-.68.27-7.71,4.47-7.71,4.47s8.17-.59,8.88-.76.91-1.32.62-2.24S379.78,392.94,379.1,393.21Z" style="fill:#F7552F"></path><path d="M380,398.23c-.64-.15-8.59-.55-8.59-.55s5.25,4.06,5.82,4.31,1.76-.61,2.44-1.53S380.62,398.38,380,398.23Z" style="fill:#F7552F"></path><path d="M375.83,402.92c-.23-.48-4.44-5.24-4.44-5.24s-.74,6.32-.65,6.85,1.58.47,2.83.08S376.06,403.41,375.83,402.92Z" style="fill:#F7552F"></path><path d="M369.08,404.55c.32-.54,2.31-6.87,2.31-6.87s-6.3,4.89-6.74,5.38.47,1.27,1.56,1.64S368.76,405.08,369.08,404.55Z" style="fill:#F7552F"></path><path d="M363.68,402.15c.68-.27,7.71-4.47,7.71-4.47s-8.17.59-8.88.76-.91,1.32-.62,2.24S363,402.42,363.68,402.15Z" style="fill:#F7552F"></path><path d="M362.8,397.13c.64.15,8.59.55,8.59.55s-5.25-4.06-5.82-4.31-1.76.61-2.44,1.53S362.15,397,362.8,397.13Z" style="fill:#F7552F"></path><path d="M367,392.44c.22.48,4.44,5.24,4.44,5.24s.74-6.32.65-6.85-1.58-.47-2.83-.08S366.72,392,367,392.44Z" style="fill:#F7552F"></path><path d="M370.28,420.16H420.4c16.9-8.06,21-24.45,18.26-37-2.11-9.68-11.88-20-20.2-28.17H374.12c-9.08,8.18-20,18.49-22.1,28.17C349.31,395.71,353.39,412.09,370.28,420.16Z" style="fill:#F7552F;opacity:0.6000000000000001"></path><g style="opacity:0.6000000000000001"><path d="M391.27,361.39c-.16,0-5.91,1.71-6.31,1.76s-4.44,1.2-4.52,1.22-1.71,3-1.86,3.18-2.18,3.72-2.23,4,2.4,4.67,2.75,5.66a43.11,43.11,0,0,0,3.55,6.29c.33.12,5.24-1.47,5.94-1.64s5.44-1,5.71-1.24,1.59-3.91,1.94-4.73,1.87-3.37,1.62-3.85-2.1-3.74-2.69-4.51S391.69,361.49,391.27,361.39Z" style="fill:#fff;opacity:0.6000000000000001"></path><path d="M396.24,372.89c-.05-.13-5.32,1.44-5.81,1.51a34.77,34.77,0,0,0-4.75.92,30.37,30.37,0,0,0-1.29,3.06c-.27.52-2,3.7-1.86,3.92s5.26-1.32,6.08-1.39,4.57-.72,5-1.32,1-3,1.54-4.17S396.24,372.89,396.24,372.89Z" style="fill:#F7552F;opacity:0.5"></path><path d="M392.19,364.62c.1.1,3.1,5.49,3.1,5.49s-1.76-.8-1.83-1.27l-.18-1s-1.59-.1-1.59-.6A24.25,24.25,0,0,1,392.19,364.62Z" style="fill:#fff"></path><path d="M388.64,363.51c-.11-.28-2,.59-2.61.61s-4.37.52-4.74.62a2.57,2.57,0,0,0-1,1.17,7.47,7.47,0,0,1,1.81-.12c.7.12,1.54,1.39,1.86,1.19s.85-1.19,1.35-1.27,1,.52,1.34.28,1-.45,1.21-.73S388.64,363.51,388.64,363.51Z" style="fill:#fff"></path><path d="M391.43,362.56a40.78,40.78,0,0,1-2.49,5c-.18-.07-.13-.57,0-.75s1.43-4.12,1.63-4.42C391,361.9,391.53,361.89,391.43,362.56Z" style="fill:#fff"></path><path d="M386.49,381.08c-.2-.24-2.22.65-2.93.5s-2.64-4.37-2.8-4.7-.65-.78-.7-.38a52,52,0,0,0,2.22,5.25,3.8,3.8,0,0,0,1.09,1.06,4.33,4.33,0,0,0,1.48-.37C385.19,382.29,386.8,381.48,386.49,381.08Z" style="fill:#fff"></path><path d="M393.49,379.33c-.2.08-2.07-2.77-2.47-3.36a16.87,16.87,0,0,1-1.86-3.17,28.47,28.47,0,0,0-1.35-3.85,43.94,43.94,0,0,0-5.07,1.56,22.55,22.55,0,0,1-3.89,1.14c-.54,0-1.35,0-1.34-.2s3.38-1,4.21-1.34a51.66,51.66,0,0,1,6.3-1.95,43.15,43.15,0,0,1,1.82,4.3c.13.4,1.46,2.28,1.6,2.58S393.8,379.21,393.49,379.33Z" style="fill:#F7552F;opacity:0.6000000000000001"></path><path d="M413.51,383.41c.14,0,5.3,1.54,5.66,1.58s4,1.07,4.06,1.1,1.53,2.67,1.67,2.85,2,3.34,2,3.61-2.16,4.19-2.47,5.08a38,38,0,0,1-3.19,5.64c-.29.11-4.7-1.32-5.32-1.47s-4.89-.92-5.13-1.12-1.43-3.5-1.74-4.24-1.68-3-1.45-3.46,1.87-3.35,2.41-4S413.13,383.5,413.51,383.41Z" style="fill:#fff;opacity:0.6000000000000001"></path><path d="M409.05,393.73c.05-.11,4.77,1.29,5.22,1.36a31.08,31.08,0,0,1,4.25.82,26.2,26.2,0,0,1,1.16,2.75,23.57,23.57,0,0,1,1.67,3.52c-.11.2-4.72-1.18-5.46-1.25s-4.1-.65-4.52-1.18S410.48,397,410,396,409.05,393.73,409.05,393.73Z" style="fill:#F7552F;opacity:0.5"></path><path d="M412.68,386.31c-.09.09-2.78,4.92-2.78,4.92s1.58-.71,1.65-1.13.15-.94.15-.94,1.43-.09,1.43-.53A21.32,21.32,0,0,0,412.68,386.31Z" style="fill:#fff"></path><path d="M415.87,385.31c.1-.25,1.78.53,2.34.55s3.92.47,4.26.56a2.35,2.35,0,0,1,.91,1.05,6.66,6.66,0,0,0-1.63-.11c-.62.11-1.38,1.24-1.67,1.07s-.75-1.07-1.2-1.14-.89.47-1.2.24-.92-.39-1.1-.65S415.87,385.31,415.87,385.31Z" style="fill:#fff"></path><path d="M413.36,384.46A37.31,37.31,0,0,0,415.6,389c.16-.06.11-.51,0-.67s-1.29-3.7-1.47-4C413.8,383.87,413.27,383.86,413.36,384.46Z" style="fill:#fff"></path><path d="M417.8,401.09c.18-.23,2,.58,2.63.44s2.36-3.92,2.51-4.22.58-.7.63-.34a46.9,46.9,0,0,1-2,4.71,3.41,3.41,0,0,1-1,.95,3.64,3.64,0,0,1-1.33-.33C419,402.17,417.52,401.44,417.8,401.09Z" style="fill:#fff"></path><path d="M411.51,399.51a20.81,20.81,0,0,0,2.22-3,14.71,14.71,0,0,0,1.67-2.84,24.89,24.89,0,0,1,1.22-3.45,38.82,38.82,0,0,1,4.54,1.39,21.33,21.33,0,0,0,3.49,1c.49,0,1.22,0,1.21-.18s-3-.88-3.78-1.21a49,49,0,0,0-5.65-1.75,39.31,39.31,0,0,0-1.64,3.86c-.11.37-1.31,2.05-1.44,2.32S411.23,399.4,411.51,399.51Z" style="fill:#F7552F;opacity:0.6000000000000001"></path><path d="M394,395.61c.11-.12,5.94-1.58,6.31-1.74s4.54-1,4.61-1,2.89,1.37,3.12,1.46,3.8,2.07,4,2.29.34,5.25.56,6.28a43.17,43.17,0,0,1,.19,7.21c-.21.27-5.24,1.45-5.93,1.66s-5.19,1.93-5.53,1.87-3.37-2.74-4.09-3.26-3.21-1.58-3.24-2.13-.28-4.41-.16-5.37S393.68,395.91,394,395.61Z" style="fill:#fff;opacity:0.6000000000000001"></path><path d="M394.87,408c0-.14,6.09-1.51,6.55-1.7a33.1,33.1,0,0,1,4.54-1.66,30.71,30.71,0,0,1,2.68,1.95,27.66,27.66,0,0,1,3.62,2.4c0,.26-5.19,1.59-5.93,2s-4.29,1.74-5,1.47-2.41-2.09-3.47-2.78A31.89,31.89,0,0,0,394.87,408Z" style="fill:#F7552F;opacity:0.5"></path><path d="M394.87,398.85c0,.14.17,6.3.17,6.3s1.1-1.59.92-2-.39-1-.39-1,1.31-.91,1.06-1.33A24.18,24.18,0,0,0,394.87,398.85Z" style="fill:#fff"></path><path d="M396.64,395.78c0-.3,2.14-.34,2.75-.59s4.39-1.46,4.79-1.53,5.26,2.09,4.92,2.19a3.88,3.88,0,0,1-1.18.09c-.56-.07-2-.33-2.51-.43a7.19,7.19,0,0,0-1.58-.25c-.61.42-.86,1.64-1.25,1.6s-1.31-.71-1.81-.56-.73.91-1.17.84-1.16.05-1.47-.12S396.64,395.78,396.64,395.78Z" style="fill:#fff"></path><path d="M408.24,410c0-.31,2.23-.58,2.77-1.08s0-5.11,0-5.47.16-1,.4-.69a52.82,52.82,0,0,1,.81,5.64,3.73,3.73,0,0,1-.39,1.47,4.06,4.06,0,0,1-1.45.45C410,410.39,408.17,410.53,408.24,410Z" style="fill:#fff"></path><path d="M401.19,401c.23.13.63,11.42.14,11.4s-.61-6.24-.61-6.82S400.72,400.8,401.19,401Z" style="fill:#fff"></path><path d="M411.36,397.79c-.46.15-9.41,3.06-9.64,3s-7.09-4.24-7.18-4.47.37-.3.57-.16,6.28,3.54,6.61,3.57,8.85-2.13,9.06-2.23S411.64,397.7,411.36,397.79Z" style="fill:#F7552F;opacity:0.6000000000000001"></path><path d="M360.47,383.27c.13,0,5,1,5.34,1s3.73.94,3.8,1,1.65,2.08,1.78,2.23,2.07,2.93,2.13,3.18-1.67,4-1.89,4.87a34.85,34.85,0,0,1-2.5,5.44c-.26.13-4.44-.85-5-.94s-4.57-.47-4.81-.63-1.49-3.28-1.84-3.94-1.81-2.35-1.64-2.77,1.42-3.38,1.86-4.06S360.13,383.39,360.47,383.27Z" style="fill:#fff;opacity:0.6000000000000001"></path><path d="M356.56,392.84c0-.11,5.09,1.11,5.51,1.14a28.87,28.87,0,0,1,4,.43,24.83,24.83,0,0,1,1.28,2.44,22.62,22.62,0,0,1,1.82,3.12c-.09.19-4.45-.73-5.13-.73s-3.83-.28-4.27-.74-1-2.44-1.56-3.35S356.56,392.84,356.56,392.84Z" style="fill:#F7552F;opacity:0.5"></path><path d="M359.93,386c-.07.09-2.19,4.75-2.19,4.75s1.41-.78,1.44-1.17.07-.88.07-.88,1.31-.19,1.27-.6A19,19,0,0,0,359.93,386Z" style="fill:#fff"></path><path d="M362.38,384.38c.1-.23,1.72.53,2.26.56s3.8.53,4.13.62a17.89,17.89,0,0,1,2.86,3.44,3.32,3.32,0,0,1-.91-.37c-.4-.25-1.35-1-1.71-1.24a6.56,6.56,0,0,0-1.09-.77c-.61.09-1.24.91-1.52.74s-.71-1-1.14-1.08-.88.41-1.18.19-.88-.39-1.05-.63S362.38,384.38,362.38,384.38Z" style="fill:#fff"></path><path d="M365.79,399.24c.15-.22,1.87.38,2.46.2s1.87-3.79,2-4.08.48-.69.55-.36a44.56,44.56,0,0,1-1.48,4.49,3.05,3.05,0,0,1-.83,1,3.47,3.47,0,0,1-1.24-.2C366.94,400.15,365.55,399.59,365.79,399.24Z" style="fill:#fff"></path><path d="M363.83,390c.13.18-3.72,8.73-4.08,8.54s1.84-4.87,2.06-5.3S363.58,389.61,363.83,390Z" style="fill:#fff"></path><path d="M372.6,391.27c-.4-.06-8.13-1.17-8.29-1.29s-3.72-5.76-3.7-6,.38-.09.49.09,3.37,4.95,3.61,5.08,7.37,1.67,7.56,1.67S372.84,391.31,372.6,391.27Z" style="fill:#F7552F;opacity:0.6000000000000001"></path></g></g></svg>